<?xml version="1.0" encoding="UTF-8"?>
<svg xmlns="http://www.w3.org/2000/svg" viewBox="0 0 1366 768">
  <defs>
    <style>
      .cls-1 {
        letter-spacing: .01em;
      }

      .cls-2 {
        letter-spacing: .04em;
      }

      .cls-3 {
        letter-spacing: .05em;
      }

      .cls-4 {
        fill: #263a38;
      }

      .cls-4, .cls-5, .cls-6 {
        stroke-width: 0px;
      }

      .cls-7 {
        letter-spacing: .01em;
      }

      .cls-8 {
        font-family: MinionConceptRoman-Medium, 'Minion Variable Concept';
        font-size: 238.77px;
        font-variation-settings: 'wght' 500, 'opsz' 11;
        font-weight: 500;
        stroke-width: 3px;
      }

      .cls-8, .cls-9, .cls-10, .cls-11, .cls-12, .cls-13, .cls-14 {
        stroke-miterlimit: 10;
      }

      .cls-8, .cls-9, .cls-5, .cls-11, .cls-12 {
        fill: #f4eded;
      }

      .cls-8, .cls-9, .cls-11, .cls-12, .cls-14 {
        stroke: #331b0e;
      }

      .cls-9 {
        font-family: MinionVariableConcept-Roman, 'Minion Variable Concept';
        font-size: 90.22px;
        font-variation-settings: 'wght' 400, 'opsz' 11;
      }

      .cls-9, .cls-10, .cls-12, .cls-14 {
        stroke-width: 2px;
      }

      .cls-10, .cls-13 {
        stroke: #f4eded;
      }

      .cls-10, .cls-13, .cls-6 {
        fill: #331b0e;
      }

      .cls-15 {
        letter-spacing: .03em;
      }

      .cls-16 {
        letter-spacing: -.05em;
      }

      .cls-17 {
        letter-spacing: 0em;
      }

      .cls-11 {
        stroke-width: 1.25px;
      }

      .cls-18 {
        letter-spacing: .03em;
      }

      .cls-19 {
        letter-spacing: .02em;
      }

      .cls-13 {
        stroke-width: .2px;
      }

      .cls-14 {
        fill: none;
      }
    </style>
  </defs>
  <g id="Bakrunnur">
    <rect class="cls-4" x="0" y="-.54" width="1366" height="768"/>
  </g>
  <g id="Layer_1" data-name="Layer 1">
    <g id="Trjágreinar">
      <path id="Vinstri" class="cls-12" d="m523.74,201.17s-10.37-3.31-17.38-2.81c-7.01.5-21.34-8.67-22.37-9.77s-2.67,1-2.32,1.9,5.49,5.01,6.4,6.62-15.28,1.05-18.25.5-36.94-12.17-47.17-9.67c-10.23,2.5-19.72,3.48-21.26,3.33s-1.2,4.21,0,4.29,16.29-1.8,20.98-2.41,8.06-.68,10.98.53-1.71,6.99-5.83,8.65-9.78,1.08-11.15.73-1.26,2.91-.8,3.16,7.83,1.1,12.52,0c4.69-1.1,11.49-6.97,13.32-9.04s13.38,3.27,21.15,5.22c7.77,1.95,27.84,1.9,37.73.65,9.89-1.25,20.21,1.83,22.08,2.43s2.36-4.02,1.38-4.31Z"/>
      <path id="Hægri" class="cls-12" d="m843.9,198.86s12.84-2.81,17.94-2.91c0,0,7.33-4.81,12.82-6.47,2.71-.82,4.83-1.47,6.05-1.36,1.02.1,1.33.89,1.29,1.83-.08,2.1-6.12.39-12.14,6.69,0,0,32.93,2.06,47.45-4.86,14.52-6.92,38.02-10.6,42.59-10.15,4.57.45,9.15,2.26,11.4,3.04.66.23.21,3.68-.31,3.66-2.07-.06-7.99-2.76-12.15-2.86s-18.13,1.91-23.27,4.32c-5.14,2.41-15.06,6.36-16.92,7.01,0,0,7.3,3.71,10.84,6.57,3.54,2.86,10.41,4.93,13.57,4.81,1.74-.07,1.98,3.64,1.34,3.76-1.72.32-5.12,0-7.98-.59-3.64-.76-12.59-7.68-19.45-9.41-6.86-1.73-14.24-1.21-19.44.02s-19.03-.45-29.15-.87-20.69,1.34-22.98,2.17-3.03-3.12-1.49-4.4Z"/>
    </g>
    <g>
      <text class="cls-9" transform="translate(453.63 570.23)"><tspan class="cls-19" x="0" y="0">R</tspan><tspan x="57.02" y="0">E</tspan><tspan class="cls-3" x="110.16" y="0">Y</tspan><tspan class="cls-2" x="163.47" y="0">K</tspan><tspan class="cls-7" x="225.99" y="0">J</tspan><tspan class="cls-16" x="257.57" y="0">A</tspan><tspan class="cls-18" x="307.73" y="0">V</tspan><tspan class="cls-1" x="366.37" y="0">Í</tspan><tspan x="399.66" y="0">K</tspan></text>
      <text class="cls-8" transform="translate(443.08 470.76) scale(1.07 1)"><tspan class="cls-17" x="0" y="0">F</tspan><tspan class="cls-15" x="132.99" y="0">K</tspan><tspan x="298.22" y="0">R</tspan></text>
    </g>
    <g>
      <g>
        <line class="cls-12" x1="395.56" y1="650.54" x2="543.35" y2="650.54"/>
        <g>
          <rect class="cls-5" x="394.56" y="648.1" width="149.78" height="4.87"/>
          <path class="cls-6" d="m543.35,649.1v2.87h-147.78v-2.87h147.78m2-2h-151.78v6.87h151.78v-6.87h0Z"/>
        </g>
      </g>
      <g>
        <line class="cls-12" x1="825.37" y1="650.54" x2="973.16" y2="650.54"/>
        <g>
          <rect class="cls-5" x="824.37" y="648.1" width="149.78" height="4.87"/>
          <path class="cls-6" d="m973.16,649.1v2.87h-147.78v-2.87h147.78m2-2h-151.78v6.87h151.78v-6.87h0Z"/>
        </g>
      </g>
    </g>
    <path class="cls-6" d="m806.79,248.39c.78.45,1.61.81,2.48,1.05.19.05.42-.07.46-.26s-.06-.4-.26-.46c-.82-.23-1.56-.54-2.3-.98-.17-.1-.42-.04-.51.13s-.05.41.13.51h0Z"/>
    <g>
      <g>
        <path class="cls-11" d="m583.37,657.89c1.3.65,2.53.97,4.31.97,3.89,0,6.47-1.64,6.47-4.54,0-2.42-1.6-3.5-5.16-4.76l-1.55-.56c-4.18-1.49-7.04-3.65-7.04-7.44,0-4.28,3.97-6.89,9.17-6.89,2.74,0,4.91.78,6.67,1.97l-.25,4.84h-2.46l-.86-4.2c-1.06-.54-2.08-.75-3.36-.75-3.19,0-5.61,1.45-5.61,4.24,0,2.34,1.68,3.72,4.67,4.76l1.6.56c5.4,1.9,7.49,4.06,7.49,7.56,0,4.39-4.05,7.07-9.66,7.07-3.07,0-6.06-.89-7.94-1.97l.25-5.21h2.46l.81,4.35Z"/>
        <path class="cls-11" d="m607.16,633.47c.78-1.12,1.47-1.49,2.17-1.49.78,0,1.51.45,1.51,1.38,0,.48-.2,1.04-1.31,1.97-1.64,1.38-3.27,2.72-4.99,4.09l-1.02-.71c1.19-1.75,2.37-3.5,3.64-5.25Z"/>
        <path class="cls-11" d="m616.9,648.17c0,2.72,1.47,4.58,4.01,4.58s4.26-1.97,4.26-4.73-1.47-4.5-4.05-4.5-4.22,1.94-4.22,4.65Zm-.63,12.04c-1.76-.62-2.16-1.29-2.16-2.74,0-1.14.67-2.33,2.73-4.1-1.93-.95-3.14-2.69-3.14-5.25,0-3.95,3.19-6.11,7.37-6.11,2.07,0,3.81.44,5.1,1.44l4.64-1.44.61.37v2.31h-4.05c.66.92.98,2,.98,3.42,0,3.95-3.19,6.1-7.33,6.1-1.08,0-2.09-.13-2.99-.4-.76.85-1.06,1.52-1.06,2.41,0,1.01.45,1.67,2.37,1.67h5.4c4.38,0,6.47,1.75,6.47,4.76,0,3.2-3.36,6.4-9.99,6.4-5.89,0-8.47-1.86-8.47-4.54,0-1.61,1.2-2.91,3.51-4.34Zm1.46.36c-1.17,1.17-1.65,2.17-1.65,3.41,0,2.46,2.09,3.42,5.28,3.42,4.5,0,6.92-1.71,6.92-3.83,0-1.68-1.15-2.94-4.13-2.94h-4.83c-.54,0-1.07-.02-1.59-.06Z"/>
        <path class="cls-11" d="m672.6,644.45v-8.49l-3.52-.37v-1.3l6.26-1.67.57.3-.16,5.29v20.16l3.4.5v1.3l-6.26.37-.28-2.61c-1.4,1.75-3.13,2.72-5.74,2.72-4.99,0-8.35-3.76-8.35-9.16s3.68-9.45,8.72-9.45c1.94,0,3.62.55,5.36,2.42Zm-.12,1.62c-1.96-1.55-3.37-2-4.75-2-3.07,0-5.73,2.23-5.73,7.33s2.46,7.18,5.77,7.18c1.84,0,3.13-.59,4.71-2.25v-10.27Z"/>
        <path class="cls-11" d="m652.29,658.32l3.32.53v1.3h-10.07v-1.3l3.31-.53c.05-1.98.09-4,.09-5.98v-16.38l-3.4-.37v-1.3l6.26-1.67.57.3-.16,5.29v14.14c0,1.98.03,4,.08,5.98Z"/>
        <path class="cls-11" d="m636.95,658.34c.08-1.68.08-3.68.08-5.99v-1.75c0-2.05-.04-3.2-.12-4.69l-3.36-.33v-1.3l6.18-2.23.61.37-.12,5.03v4.91c0,2.31.04,4.32.12,5.99l2.87.52v1.3h-9.41v-1.3l3.15-.52h0Zm-1.06-22.85c0-1.41,1.19-2.34,2.7-2.34s2.7.93,2.7,2.34-1.19,2.34-2.7,2.34-2.7-.97-2.7-2.34Z"/>
        <path class="cls-11" d="m603.72,658.34c.08-1.68.08-3.68.08-5.99v-1.75c0-2.05-.04-3.2-.12-4.69l-3.36-.33v-1.3l6.18-2.23.61.37-.12,5.03v4.91c0,2.31.04,4.32.12,5.99l2.87.52v1.3h-9.41v-1.3l3.15-.52h0Z"/>
      </g>
      <g>
        <path class="cls-11" d="m719.37,658.32l3.32.53v1.3h-10.07v-1.3l3.31-.53c.05-1.98.09-4,.09-5.98v-16.38l-3.4-.37v-1.3l6.26-1.67.57.3-.16,5.29v14.14c0,1.98.03,4,.08,5.98Z"/>
        <path class="cls-11" d="m736.47,650.63c-1.42.35-2.85.8-3.72,1.12-3.68,1.3-4.09,2.57-4.09,3.65,0,1.9,1.56,2.83,3.32,2.83,1.62,0,2.48-.39,5.32-2.32-.56-1.25-.86-2.73-.86-4.42,0-.31,0-.56.04-.86Zm3.44.6c.01,4.55,2.63,7.07,6.71,7.07,2.62,0,4.26-1.08,5.73-2.64l.94.67c-1.47,2.64-4.09,4.32-7.82,4.32-3.38,0-6.04-1.26-7.57-3.6-3.36,2.87-4.88,3.6-7.25,3.6-2.99,0-5.48-1.64-5.48-4.73,0-2.08,1.23-3.61,6.71-5.43,1.3-.42,3.05-.91,4.71-1.27v-.97c0-3.65-1.23-4.54-3.72-4.54-1.02,0-1.87.1-2.47.76l-.68,2.1c-.37,1.08-1.07,1.68-2.17,1.68s-1.76-.63-1.84-1.56c.78-2.83,3.81-4.65,7.9-4.65,2.55,0,4.6.83,5.5,2.98,1.72-1.85,4.04-2.98,6.61-2.98,4.26,0,7.61,2.61,7.61,7.15,0,.82-.12,1.56-.29,2.05h-13.14Zm.09-1.56h7.69c1.92,0,2.41-.82,2.41-1.9,0-2.12-1.96-4.06-4.58-4.06-2.33,0-5.02,1.61-5.52,5.96Z"/>
        <path class="cls-11" d="m771.96,651.49c0-4.91-2.13-7.3-5.57-7.3-3.64,0-5.52,2.68-5.52,7.44s2.05,7.33,5.52,7.33c3.77,0,5.57-2.75,5.57-7.48Zm-.43-6.97c-.89-2.72-2.09-4.75-3.92-6.61l-5.8,2.71-.74-1.34,5.33-2.49c-1.34-1.16-2.9-2.21-4.84-3.35l.82-1.19c2.27.98,4.32,2.14,6.13,3.56l6.18-2.89.74,1.34-5.64,2.63c3.52,3.2,5.68,7.39,5.68,12.85,0,6.7-3.4,10.91-9.46,10.91-4.54,0-8.84-3.2-8.84-9.19s4.46-8.93,9-8.93c2.23,0,4.11.66,5.34,2Z"/>
        <path class="cls-11" d="m782.6,658.34c.08-1.68.08-3.68.08-5.99v-1.75c0-2.05-.04-3.2-.12-4.69l-3.36-.33v-1.3l6.18-2.23.61.37-.12,5.03v4.91c0,2.31.04,4.32.12,5.99l2.87.52v1.3h-9.41v-1.3l3.15-.52h0Zm-1.06-22.85c0-1.41,1.19-2.34,2.7-2.34s2.7.93,2.7,2.34-1.19,2.34-2.7,2.34-2.7-.97-2.7-2.34Z"/>
        <path class="cls-11" d="m708.9,658.41l2.69.45v1.3h-5.4l-6.39-9.26-2.77,2.59c0,1.61.04,3.24.08,4.83l3.32.53v1.3h-10.07v-1.3l3.31-.53c.05-1.98.09-4,.09-5.98v-16.38l-3.4-.37v-1.3l6.26-1.67.57.3-.16,5.29v13.11l7.03-6.68-3.02-.69v-1.41h9.5v1.41l-3.82.53-4.59,4.31,6.78,9.64Z"/>
      </g>
    </g>
    <path class="cls-6" d="m806.79,248.39c.78.45,1.61.81,2.48,1.05.19.05.42-.07.46-.26s-.06-.4-.26-.46c-.82-.23-1.56-.54-2.3-.98-.17-.1-.42-.04-.51.13s-.05.41.13.51h0Z"/>
    <g id="Trjágreinar-2" data-name="Trjágreinar">
      <path id="Vinstri-2" data-name="Vinstri" class="cls-12" d="m523.74,201.17s-10.37-3.31-17.38-2.81c-7.01.5-21.34-8.67-22.37-9.77s-2.67,1-2.32,1.9,5.49,5.01,6.4,6.62-15.28,1.05-18.25.5-36.94-12.17-47.17-9.67c-10.23,2.5-19.72,3.48-21.26,3.33s-1.2,4.21,0,4.29,16.29-1.8,20.98-2.41,8.06-.68,10.98.53-1.71,6.99-5.83,8.65-9.78,1.08-11.15.73-1.26,2.91-.8,3.16,7.83,1.1,12.52,0c4.69-1.1,11.49-6.97,13.32-9.04s13.38,3.27,21.15,5.22c7.77,1.95,27.84,1.9,37.73.65,9.89-1.25,20.21,1.83,22.08,2.43s2.36-4.02,1.38-4.31Z"/>
      <path id="Hægri-2" data-name="Hægri" class="cls-12" d="m843.9,198.86s12.84-2.81,17.94-2.91c0,0,7.33-4.81,12.82-6.47,2.71-.82,4.83-1.47,6.05-1.36,1.02.1,1.33.89,1.29,1.83-.08,2.1-6.12.39-12.14,6.69,0,0,32.93,2.06,47.45-4.86,14.52-6.92,38.02-10.6,42.59-10.15,4.57.45,9.15,2.26,11.4,3.04.66.23.21,3.68-.31,3.66-2.07-.06-7.99-2.76-12.15-2.86s-18.13,1.91-23.27,4.32c-5.14,2.41-15.06,6.36-16.92,7.01,0,0,7.3,3.71,10.84,6.57,3.54,2.86,10.41,4.93,13.57,4.81,1.74-.07,1.98,3.64,1.34,3.76-1.72.32-5.12,0-7.98-.59-3.64-.76-12.59-7.68-19.45-9.41-6.86-1.73-14.24-1.21-19.44.02s-19.03-.45-29.15-.87-20.69,1.34-22.98,2.17-3.03-3.12-1.49-4.4Z"/>
    </g>
    <path class="cls-12" d="m679.05,211.78s1.95,8.11,5.58,11.19,12.55,7.98,15.01,10.16,4.97,4.84,3.21,9.24c-1.55,3.89-4.36,12.18-4.36,12.18,0,0-.68,2.78-4.15,3.03-3.94.28-8.68,3.62-8.6,4.78.09,1.16.14,2.32,1.37,3.41s12.89,1.56,16.17-2.12c3.27-3.69,4.42-10.1,6.67-15.46,1.48-3.53,2.59-5.16,3.6-6.48s3.35-4.56.18-8.34c-3.68-4.38-6.54-15.73-7.84-17.98s-2.7-8.27-2.7-8.27l-24.13,4.67Z"/>
    <path class="cls-12" d="m582.53,157.94s16.93,37.39,24.66,44.56c7.73,7.17,8.66,6.73,7.53,17.01s-5.03,29.71-7.54,32.3-8.73,3.64-10.04,4.55-3.38,3.96-2.46,4.81,8.37,3.08,16.3.38c7.93-2.7,13.85-23.52,22.98-35.98,0,0-1.88,25.24-2.83,30s-9.57,6.82-10.74,8.09-1.17,3.16-.55,3.53,13.85,1.26,18.4-.95c4.55-2.21,1.14-5.03,1.14-6.66s9.94-30.47,13.5-37.33,3.38-9.69,11.55-9.8,26.78-1.05,31.64-3.73c0,0,6.1,9.52,13.59,15.88,7.5,6.36,16.93,14.54,17.84,15.74s1.62,2.33,1.7,7.38.65,12.88-2.28,15.61c-2.93,2.73-5.69,3.56-7.47,4.36s-2.78,1.5-2.72,3.75,13.62,2.47,16.82.76c3.2-1.71,2.36-1.47,3.1-7.56s.92-12.7,5.65-18.89c4.73-6.19-2.65-10.51-3.87-12.93s-4.38-5.91-4.12-16.64,1.62-16.26,1.38-20.22c-.23-3.96-1.72-5.64-1.72-5.64,0,0,4,.09,6.38,4.86s2.73,17.11,2.82,25.69c.09,8.58,2.97,11.46,5.78,15.15s10.92,13.02,25.92,14.84c11.04,1.34,7.55-2.8,7.55-2.8,0,0,14.76,9.43,29.06,3.54-5.7-1.55-15.94-8.04-21.47-14.53,0,0,12.5,6.2,26.73,2.2,0,0-11.28-3.41-22.25-14.24-10.97-10.83-21.68-26.92-26.71-36.15s-19.41-18.5-30.68-18.31c0,0-9.35-12.72-21.21-16.43-11.86-3.71-45.83-5.31-53.24-4.1-7.41,1.21-80.12,7.88-80.12,7.88Z"/>
    <path class="cls-14" d="m633.95,225.58s1.59-8.7-.8-13.36-3.65-7.13-4.65-13.94"/>
    <path class="cls-14" d="m616.75,201.47s3.26,6.3,9.12,9.05c4.47,2.1,7.52,2.25,7.52,2.25"/>
    <g>
      <path class="cls-5" d="m812.89,250.67c-1.35,0-2.61-.07-3.74-.21l-.14-.02-.13-.06c-.33-.14-8.1-3.49-13.7-8.88l-2.54-2.44,3.45.75c.05.01,5.46,1.17,10.74,1.17,1.27,0,2.45-.07,3.49-.2l.35-.04.3.19c.07.04,6.74,4.13,14.1,6.49l3.56,1.14-3.65.79c-.25.05-6.21,1.33-12.08,1.33Z"/>
      <path class="cls-6" d="m795.88,240.79s5.5,1.19,10.95,1.19c1.23,0,2.45-.06,3.61-.21,0,0,6.75,4.17,14.32,6.59,0,0-6.03,1.31-11.87,1.31-1.23,0-2.46-.06-3.61-.2,0,0-7.87-3.36-13.4-8.68m-6.46-3.44l5.08,4.89c5.73,5.51,13.67,8.94,14,9.08l.26.11.28.03c1.16.14,2.46.21,3.86.21,5.98,0,12.04-1.3,12.29-1.35l7.3-1.58-7.12-2.28c-7.24-2.32-13.81-6.35-13.88-6.39l-.6-.37-.7.09c-1,.13-2.13.19-3.36.19-5.16,0-10.48-1.14-10.53-1.15l-6.89-1.49h0Z"/>
    </g>
    <path class="cls-12" d="m607.82,126.63s19.96-18.91,22.98-20.79,5.44.44,6.62,4.65c1.19,4.2,2.18,11.77,1.98,19.58-.2,7.81-2.89,11.72-2.89,11.72,0,0,2.16-.27,6.03,1.29,2.15.87,5.04,4.1,4.08,6.4s-3.81,4.02-3.81,4.02c0,0,.84-.31,4.99,1.24,4.15,1.56,6.97,5.49,6.97,5.49,0,0-7.27.07-15.2.52-7.93.44-14.98,6.23-16.31,8.75s-2.18,5.12-4.89,8.23c-2.53,2.89-6.74,5-12.63,5.01-5.89,0-9.4-2.11-11.93-5.01-2.72-3.11-3.56-5.71-4.89-8.23s-8.38-8.31-16.31-8.75-15.2-.52-15.2-.52c0,0,2.82-3.93,6.97-5.49s4.99-1.24,4.99-1.24c0,0-2.84-1.72-3.81-4.02s1.93-5.54,4.08-6.4c3.87-1.56,6.03-1.29,6.03-1.29,0,0-2.69-3.91-2.89-11.72-.2-7.81.79-15.37,1.98-19.58s3.61-6.53,6.62-4.65,22.34,20.86,22.34,20.86c0,0,1.24-.69,4.1-.07Z"/>
    <g>
      <path class="cls-10" d="m580,111.15s0,17.64,2.3,19.4,6.9,0,9.21-3.53-11.51-15.88-11.51-15.88Z"/>
      <path class="cls-10" d="m632.16,113.33s.15,14.24-1.88,17.02-10.17-1.49-9.8-4.82c.37-3.33,11.68-12.19,11.68-12.19Z"/>
      <g>
        <path class="cls-6" d="m611.3,154.5c-.03-.1-.75-2.51,1.7-7.4,2.68-5.36,7.67-6.06,8.23-6.12l.2-.02c.67-.07,1.36-.15,2.07-.15.94,0,1.74.14,2.44.43.42.17,1.82.84,2.33,2.2.41,1.09.17,2.59-.92,3.11-.8.38-1.58.42-2.48.46-.71.03-1.52.07-2.49.28-2.51.55-3.03.77-5.56,2.38-3.66,2.34-5.32,4.82-5.34,4.84l-.12.17-.06-.2Z"/>
        <path class="cls-5" d="m623.5,140.91c.81,0,1.62.1,2.4.42.51.21,1.8.87,2.27,2.14.38,1.03.17,2.48-.87,2.98-1.39.67-2.73.26-4.95.74-2.51.54-3.04.76-5.59,2.4-3.72,2.38-5.37,4.87-5.37,4.87,0,0-.76-2.42,1.69-7.32s6.94-5.93,8.15-6.06c.71-.08,1.48-.17,2.26-.17m0-.2c-.72,0-1.41.08-2.09.15l-.19.02c-.57.06-5.61.76-8.31,6.17-2.46,4.92-1.73,7.37-1.7,7.47l.13.4.23-.35s1.67-2.48,5.31-4.81c2.51-1.61,3.03-1.83,5.52-2.37.97-.21,1.77-.25,2.47-.28.92-.04,1.71-.08,2.52-.47,1.14-.55,1.39-2.11.97-3.23-.52-1.39-1.95-2.08-2.38-2.26-.71-.29-1.52-.44-2.48-.44h0Z"/>
      </g>
      <g>
        <path class="cls-6" d="m599.39,154.52s-1.68-2.5-5.34-4.84c-2.52-1.62-3.04-1.84-5.56-2.38-.97-.21-1.78-.25-2.49-.28-.91-.04-1.69-.08-2.48-.46-1.09-.52-1.33-2.02-.92-3.11.5-1.36,1.91-2.03,2.33-2.2.7-.29,1.5-.43,2.44-.43.71,0,1.41.08,2.07.15l.2.02c.56.06,5.55.75,8.23,6.12,2.44,4.88,1.73,7.3,1.7,7.4l-.06.2-.12-.17Z"/>
        <path class="cls-5" d="m587.37,140.91c.78,0,1.55.09,2.26.17,1.22.13,5.7,1.16,8.15,6.06s1.69,7.32,1.69,7.32c0,0-1.65-2.49-5.37-4.87-2.55-1.63-3.08-1.85-5.59-2.4-2.22-.48-3.56-.07-4.95-.74-1.04-.5-1.25-1.96-.87-2.98.47-1.27,1.76-1.93,2.27-2.14.78-.32,1.6-.42,2.4-.42m0-.2c-.96,0-1.77.14-2.48.44-.43.18-1.86.86-2.38,2.26-.42,1.13-.17,2.69.97,3.23.81.39,1.6.43,2.52.47.71.03,1.51.07,2.47.28,2.5.54,3.01.76,5.52,2.37,3.64,2.33,5.29,4.79,5.31,4.81l.23.35.13-.4c.03-.1.76-2.55-1.7-7.47-2.71-5.41-7.75-6.11-8.31-6.17l-.19-.02c-.67-.07-1.37-.15-2.09-.15h0Z"/>
      </g>
      <path class="cls-13" d="m614.56,171.16c0,3.28-3.8,5.59-8.49,5.59s-8.49-2.32-8.49-5.59c0-1.63.84-3.26,2.46-4.18,1.84-1.04,3.88-1.17,6.24-1.17s4.88.6,5.95,1.25c1.17.73,2.34,2.51,2.34,4.09Z"/>
    </g>
    <g>
      <g>
        <g>
          <path class="cls-6" d="m626.04,199.62c1.01,4.24,2.17,8.58,4.38,12.37.19.33.71.03.52-.3-2.19-3.75-3.32-8.04-4.32-12.23-.09-.38-.67-.22-.58.16h0Z"/>
          <path class="cls-6" d="m625.22,202.45c.31,1.52.76,3.01,1.29,4.47s1.05,2.95,1.9,4.25c.21.32.73.02.52-.3-.85-1.3-1.37-2.8-1.89-4.25s-.94-2.85-1.24-4.32c-.08-.38-.66-.22-.58.16h0Z"/>
          <path class="cls-6" d="m623.13,201.55c.53,2.73,1.32,5.41,2.31,8,.14.36.72.2.58-.16-.99-2.59-1.78-5.27-2.31-8-.07-.38-.65-.22-.58.16h0Z"/>
          <path class="cls-6" d="m621.98,203.76c.39,1.7,1.15,3.29,1.6,4.97.1.37.68.21.58-.16-.45-1.68-1.21-3.27-1.6-4.97-.09-.38-.67-.22-.58.16h0Z"/>
          <path class="cls-6" d="m631.06,213.33c.23.95.43,1.92.6,2.88s.33,1.94.3,2.92c-.01.39.59.39.6,0,.03-1-.14-2.01-.3-2.99s-.37-1.99-.61-2.97c-.09-.38-.67-.22-.58.16h0Z"/>
          <path class="cls-6" d="m631.95,221.57c0,2.09-.12,4.18-.33,6.26-.04.38.56.38.6,0,.21-2.08.33-4.17.33-6.26,0-.39-.6-.39-.6,0h0Z"/>
          <path class="cls-6" d="m630.43,224.29c-.04.82-.06,1.63-.08,2.45s-.05,1.64,0,2.45c.02.38.62.39.6,0-.05-.81-.02-1.64,0-2.45s.05-1.63.08-2.45c.02-.39-.58-.39-.6,0h0Z"/>
          <path class="cls-6" d="m629.4,212.84c.19.67.39,1.34.52,2.02s.15,1.36.16,2.04c0,.39.61.39.6,0-.01-.72-.04-1.44-.17-2.15s-.34-1.38-.53-2.07c-.1-.37-.68-.21-.58.16h0Z"/>
          <path class="cls-6" d="m627.78,212.14c.3.89.46,1.83.6,2.76.15,1,.27,2.01.27,3.02,0,.39.6.39.6,0,0-1.04-.13-2.07-.28-3.09-.14-.95-.31-1.92-.61-2.84-.12-.36-.7-.21-.58.16h0Z"/>
        </g>
        <g>
          <g>
            <path class="cls-6" d="m694,210.09c.27,2.47,1.14,4.75,2.09,7.02.15.35.73.2.58-.16-.92-2.21-1.81-4.45-2.07-6.86-.04-.38-.64-.38-.6,0h0Z"/>
            <path class="cls-6" d="m692.67,210.49c.17.98.3,1.96.5,2.94s.5,1.9.89,2.81c.15.35.67.05.52-.3-.78-1.79-1.01-3.7-1.33-5.6-.06-.38-.64-.22-.58.16h0Z"/>
            <path class="cls-6" d="m691.13,210.93c.26,1.01.42,2.03.71,3.03.27.94.57,1.88.98,2.76.16.35.68.05.52-.3-.4-.86-.68-1.79-.95-2.7-.28-.98-.44-1.97-.69-2.95-.1-.37-.67-.22-.58.16h0Z"/>
            <path class="cls-6" d="m684.69,212.21c-.01.4,0,.78.06,1.18.07.48.2.95.32,1.41.1.37.68.21.58-.16-.12-.46-.25-.92-.32-1.39,0-.02,0-.04,0-.06,0-.04,0,.04,0-.02,0-.04-.01-.09-.01-.13,0-.09-.01-.17-.02-.26,0-.19,0-.39,0-.58.01-.39-.59-.39-.6,0h0Z"/>
            <path class="cls-6" d="m685.94,211.89c0,.21.04.43.08.63.06.33.13.65.2.97.15.66.31,1.33.5,1.98.11.37.69.21.58-.16-.19-.64-.34-1.29-.49-1.94-.07-.32-.14-.64-.2-.97-.04-.24-.07-.31-.07-.53,0-.39-.59-.39-.6,0h0Z"/>
            <path class="cls-6" d="m688.39,213.86c-.08-.33-.19-.66-.27-.99-.05-.19-.1-.37-.13-.56,0-.04-.02-.09-.02-.13,0-.02-.02-.14-.01-.06,0-.08-.02-.15-.02-.23,0-.16-.14-.3-.3-.3s-.3.14-.3.3c0,.38.1.76.2,1.12.09.34.19.67.28,1.01.04.16.21.25.37.21s.25-.21.21-.37h0Z"/>
            <path class="cls-6" d="m690.41,216.1c-.37-.78-.58-1.65-.78-2.49-.15-.65-.32-1.37-.37-1.99-.03-.38-.63-.39-.6,0,.06.72.23,1.45.39,2.15.21.89.45,1.8.84,2.63.16.35.68.05.52-.3h0Z"/>
          </g>
          <path class="cls-6" d="m691.57,215.07c-.49-1.21-.85-2.44-1-3.74-.02-.16-.12-.3-.3-.3-.15,0-.32.14-.3.3.08.64.18,1.28.34,1.9.18.68.42,1.34.68,2,.06.15.2.26.37.21.14-.04.27-.22.21-.37h0Z"/>
        </g>
        <g>
          <path class="cls-6" d="m731.31,190.03c1.73,1.73,1.88,4.2,1.93,6.51.03,1.47-.07,2.89-.25,4.34-.32,2.68-.85,5.45-.75,8.15.01.38.61.39.6,0-.11-2.92.5-5.9.83-8.78.2-1.73.23-3.45.12-5.19-.12-2.01-.59-3.99-2.05-5.45-.27-.27-.7.15-.42.42h0Z"/>
          <path class="cls-6" d="m730.11,191.09c.88,1.22,1.36,2.42,1.5,3.92.12,1.26.16,2.56.05,3.82-.17,1.9-.52,3.79-.79,5.68-.05.38.53.54.58.16.28-1.98.66-3.96.82-5.95.11-1.38.05-2.81-.11-4.18s-.7-2.6-1.53-3.75c-.22-.31-.75-.01-.52.3h0Z"/>
          <path class="cls-6" d="m729.23,192.36c.78,1.32,1.03,2.8,1.13,4.31s.05,3.03-.31,4.51c-.09.38.49.54.58.16.38-1.58.43-3.21.32-4.83s-.4-3.09-1.21-4.46c-.2-.33-.71-.03-.52.3h0Z"/>
        </g>
        <g>
          <path class="cls-6" d="m561.86,159.87c1.11-.6,2.3-1.04,3.5-1.43,1.03-.34,2.09-.63,3.15-.87.38-.08.22-.66-.16-.58-1.1.24-2.18.55-3.25.9-1.21.4-2.42.85-3.55,1.46-.34.18-.04.7.3.52h0Z"/>
          <path class="cls-6" d="m567.18,160.01c1.94-.52,3.92-.91,5.94-.92.39,0,.39-.6,0-.6-2.07,0-4.1.41-6.09.94-.37.1-.21.68.16.58h0Z"/>
          <path class="cls-6" d="m559.6,159.17c3.57-1.74,7.36-3.25,11.32-3.82.38-.05.22-.63-.16-.58-4.01.58-7.84,2.11-11.46,3.88-.35.17-.04.69.3.52h0Z"/>
          <path class="cls-6" d="m594.15,180.66h1.43c.16,0,.31-.14.3-.3s-.13-.3-.3-.3h-1.43c-.16,0-.31.14-.3.3s.13.3.3.3h0Z"/>
          <path class="cls-6" d="m595.09,181.96c.66-.03,1.31-.1,1.97-.19.16-.02.25-.23.21-.37-.06-.17-.2-.23-.37-.21-.58.08-1.2.14-1.81.17-.16,0-.31.13-.3.3,0,.16.13.31.3.3h0Z"/>
          <path class="cls-6" d="m595.97,183.27c.59-.14,1.23-.16,1.85-.21.38-.03.75-.05,1.13-.06.15,0,.3,0,.46,0,.06,0,.12,0,.18,0,.03,0,.2.02.1,0,.16.02.32-.04.37-.21.04-.14-.05-.35-.21-.37-.66-.09-1.36-.02-2.02.03s-1.36.08-2.01.23c-.38.09-.22.67.16.58h0Z"/>
          <path class="cls-6" d="m654.77,161.89c-7.83-.25-15.82-.66-23.39,1.69-.37.11-.21.69.16.58,7.52-2.33,15.46-1.92,23.23-1.67.39.01.39-.59,0-.6h0Z"/>
          <path class="cls-6" d="m652.45,163.31c-4.47-.29-8.92-.34-13.37.12-4.19.43-8.2,1.57-12.23,2.73-.37.11-.21.69.16.58,4.08-1.18,8.12-2.31,12.35-2.74s8.72-.37,13.09-.09c.39.03.38-.57,0-.6h0Z"/>
          <path class="cls-6" d="m634.76,166.91c-3.78.92-7.58,1.97-11.2,3.41-.35.14-.2.72.16.58,3.61-1.44,7.42-2.49,11.2-3.41.37-.09.22-.67-.16-.58h0Z"/>
          <path class="cls-6" d="m646.79,165.96c-2.79-.07-5.55-.17-8.31.37-.38.07-.22.65.16.58,2.71-.53,5.42-.42,8.15-.35.39,0,.39-.59,0-.6h0Z"/>
          <path class="cls-6" d="m632.02,168.89c-3.54.99-7.17,2.11-10.34,3.99-.33.2-.03.72.3.52,3.13-1.86,6.71-2.96,10.2-3.93.37-.1.21-.68-.16-.58h0Z"/>
          <path class="cls-6" d="m621.49,175.15c2.88-1.48,5.91-2.63,9.01-3.57.37-.11.21-.69-.16-.58-3.14.96-6.22,2.13-9.15,3.63-.34.18-.04.69.3.52h0Z"/>
          <path class="cls-6" d="m626.42,174.12c-2.18.53-4.25,1.46-6.36,2.2-.36.13-.21.71.16.58,2.11-.74,4.18-1.67,6.36-2.2.38-.09.22-.67-.16-.58h0Z"/>
          <path class="cls-6" d="m623.56,176.94c-1.92.27-3.8.79-5.65,1.38-.37.12-.21.7.16.58,1.85-.59,3.73-1.1,5.65-1.38.38-.05.22-.63-.16-.58h0Z"/>
          <path class="cls-6" d="m621.83,178.81c-1.83.21-3.67.5-5.44.99-.37.1-.21.68.16.58,1.73-.47,3.51-.77,5.28-.97.38-.04.38-.64,0-.6h0Z"/>
          <path class="cls-6" d="m621.25,180.66c-1.69.12-3.38.46-5.04.76s-3.38.63-5.06,1.01c-.38.09-.22.66.16.58,1.63-.37,3.28-.68,4.93-.99s3.33-.65,5.01-.76c.38-.03.39-.63,0-.6h0Z"/>
          <path class="cls-6" d="m598.11,184.76c2.77-.09,5.52-.47,8.3-.57,4-.14,7.9-.52,11.85-1.18.38-.06.22-.64-.16-.58-3.96.66-7.87,1.01-11.88,1.16-2.71.1-5.4.47-8.11.56-.39.01-.39.61,0,.6h0Z"/>
          <path class="cls-6" d="m650.54,164.33c-8.65-.52-17.56.82-25.65,3.97-.36.14-.2.72.16.58,8.04-3.13,16.89-4.46,25.49-3.95.39.02.38-.58,0-.6h0Z"/>
          <path class="cls-6" d="m601.82,186.26c2.22-.46,4.53-.49,6.78-.71s4.4-.47,6.61-.48c.39,0,.39-.6,0-.6-2.28.01-4.55.28-6.82.5s-4.52.25-6.73.72c-.38.08-.22.66.16.58h0Z"/>
          <path class="cls-6" d="m604.44,187.49c2.55-.19,5.11-.39,7.67-.54.38-.02.39-.62,0-.6-2.56.15-5.11.35-7.67.54-.38.03-.39.63,0,.6h0Z"/>
        </g>
        <g>
          <path class="cls-6" d="m799.09,242.7c1.26.33,2.52.63,3.82.74,1.36.11,2.74.04,4.1,0,.39-.01.39-.61,0-.6-1.34.04-2.68.11-4.02.01s-2.52-.4-3.75-.73c-.37-.1-.53.48-.16.58h0Z"/>
          <path class="cls-6" d="m798.95,242.62c.93.77,1.98,1.39,3,2.02.72.45,1.42.94,2.16,1.36,1.37.77,2.76,1.48,4.15,2.21.34.18.64-.34.3-.52-1.36-.72-2.73-1.42-4.08-2.17-.69-.38-1.33-.83-1.99-1.25-1.06-.66-2.16-1.28-3.12-2.08-.3-.24-.72.18-.42.42h0Z"/>
          <path class="cls-6" d="m804.01,244.41c.99.71,2.12,1.16,3.25,1.59.15.06.33-.06.37-.21.05-.17-.06-.31-.21-.37-1.08-.41-2.16-.85-3.11-1.53-.13-.09-.33-.02-.41.11-.09.15-.02.32.11.41h0Z"/>
          <path class="cls-6" d="m804.08,244.44c.75.12,1.5.23,2.26.14.16-.02.3-.12.3-.3,0-.15-.14-.32-.3-.3-.7.08-1.4,0-2.1-.12-.16-.03-.32.04-.37.21-.04.14.05.34.21.37h0Z"/>
          <path class="cls-6" d="m782.15,249.12c-1.93-1.12-3.76-2.61-5.35-4.17-1.9-1.86-3.67-3.85-5.35-5.91-.24-.3-.67.13-.42.42,1.71,2.11,3.53,4.15,5.48,6.04,1.59,1.54,3.42,3.02,5.34,4.13.33.19.64-.32.3-.52h0Z"/>
          <path class="cls-6" d="m780.08,245.5c-.86-.69-1.66-1.46-2.43-2.24s-1.52-1.6-2.21-2.46c-.24-.3-.66.12-.42.42.69.86,1.44,1.67,2.21,2.46s1.57,1.55,2.43,2.24c.3.24.73-.18.42-.42h0Z"/>
          <path class="cls-6" d="m776.36,238.77c1.22,1.63,2.37,3.33,3.78,4.81,1.28,1.34,2.69,2.61,4.12,3.79,1.63,1.35,3.58,2.27,5.28,3.53.31.23.61-.29.3-.52-1.65-1.23-3.56-2.14-5.16-3.44-1.38-1.12-2.72-2.36-3.96-3.63-1.44-1.48-2.6-3.21-3.84-4.85-.23-.3-.75,0-.52.3h0Z"/>
          <path class="cls-6" d="m782.94,243.41c1.91,2.05,3.94,4.13,6.24,5.75,1.85,1.29,3.88,2.64,6.02,3.39.36.13.52-.45.16-.58-2.08-.73-4.08-2.07-5.88-3.33-2.26-1.58-4.24-3.64-6.12-5.65-.26-.28-.69.14-.42.42h0Z"/>
          <path class="cls-6" d="m787.69,234.94c-.91-.73-1.82-1.47-2.64-2.3-.86-.88-1.54-1.88-2.2-2.91-.21-.32-.73-.02-.52.3.67,1.04,1.36,2.07,2.23,2.96s1.77,1.62,2.7,2.37c.3.24.72-.18.42-.42h0Z"/>
          <path class="cls-6" d="m791.22,236.64c-1.01-.79-1.95-1.68-2.87-2.57s-1.82-1.81-2.68-2.77c-.26-.29-.68.14-.42.42.85.96,1.76,1.88,2.68,2.77s1.86,1.78,2.87,2.57c.3.24.73-.19.42-.42h0Z"/>
          <path class="cls-6" d="m788.73,233.72c1.97,1.82,3.96,3.78,6.47,4.82.36.15.51-.43.16-.58-2.41-1-4.32-2.93-6.21-4.67-.28-.26-.71.16-.42.42h0Z"/>
        </g>
        <g>
          <path class="cls-6" d="m740.26,192.07c1.57,1.23,2.24,3.48,2.86,5.3s1.06,3.58,1.36,5.42c.69,4.24.69,8.56.68,12.85-.01,4.92-.71,10.64,3.05,14.45.27.28.7-.15.42-.42-1.81-1.83-2.55-4.05-2.76-6.58-.29-3.45-.09-6.94-.12-10.39-.03-3.88-.18-7.8-.98-11.61-.4-1.9-.97-3.76-1.69-5.56-.57-1.42-1.15-2.91-2.39-3.88-.3-.24-.73.19-.42.42h0Z"/>
          <path class="cls-6" d="m748.12,202.75c.44,2.97.67,5.91.6,8.92,0,.39.59.39.6,0,.07-3.06-.17-6.06-.62-9.08-.06-.38-.64-.22-.58.16h0Z"/>
          <path class="cls-6" d="m745.7,199.01c1.02,3.3,1.2,6.94,1.36,10.36.19,4.16-.44,8.38.27,12.5.07.38.64.22.58-.16-.4-2.33-.29-4.59-.21-6.94.07-2.04.03-4.08-.08-6.11-.18-3.24-.38-6.69-1.35-9.81-.11-.37-.69-.21-.58.16h0Z"/>
        </g>
      </g>
      <path class="cls-6" d="m683.29,212.21c-.01.35.07.71.13,1.05.09.48.21.95.35,1.42.11.37.69.21.58-.16-.13-.46-.25-.92-.34-1.38-.02-.1-.04-.2-.06-.3,0-.04-.01-.09-.02-.13,0-.02,0-.04,0-.06,0,0-.01-.08,0-.05,0-.02-.02-.14-.02-.2s0-.12,0-.18c.01-.39-.59-.39-.6,0h0Z"/>
      <path class="cls-6" d="m695.44,209.91c.34,1.97,1,3.82,1.8,5.65.15.35.67.05.52-.3-.78-1.78-1.41-3.58-1.74-5.51-.07-.38-.64-.22-.58.16h0Z"/>
    </g>
  </g>
</svg>