<?xml version="1.0" encoding="UTF-8"?>
<svg xmlns="http://www.w3.org/2000/svg" viewBox="0 0 1172.43 224.68">
  <defs>
    <style>
      .cls-1 {
        stroke-width: .2px;
      }

      .cls-1, .cls-2, .cls-3, .cls-4 {
        stroke: #263a38;
        stroke-miterlimit: 10;
      }

      .cls-1, .cls-3, .cls-5 {
        fill: #f4eded;
      }

      .cls-6, .cls-5 {
        stroke-width: 0px;
      }

      .cls-6, .cls-4, .cls-7 {
        fill: #263a38;
      }

      .cls-2 {
        fill: none;
      }

      .cls-2, .cls-3, .cls-4 {
        stroke-width: 2px;
      }

      .cls-8 {
        letter-spacing: .03em;
      }

      .cls-9 {
        letter-spacing: .05em;
      }

      .cls-10 {
        letter-spacing: 0em;
      }

      .cls-11 {
        letter-spacing: 0em;
      }

      .cls-12 {
        letter-spacing: 0em;
      }

      .cls-7 {
        font-family: MinionVariableConcept-Roman, 'Minion Variable Concept';
        font-size: 149px;
        font-variation-settings: 'wght' 400, 'opsz' 11;
      }
    </style>
  </defs>
  <g id="Bakrunnur">
    <rect class="cls-5" width="1172.43" height="224.68"/>
  </g>
  <g id="Layer_1" data-name="Layer 1">
    <g>
      <text class="cls-7" transform="translate(73.03 160.76) scale(1.07 1)"><tspan class="cls-10" x="0" y="0">F</tspan><tspan class="cls-8" x="82.4" y="0">K</tspan><tspan x="184.91" y="0">R</tspan></text>
      <text class="cls-7" transform="translate(828.08 160.76)"><tspan class="cls-11" x="0" y="0">R</tspan><tspan class="cls-12" x="90.44" y="0">v</tspan><tspan class="cls-9" x="158.53" y="0">k</tspan><tspan x="239.44" y="0">.</tspan></text>
    </g>
    <path class="cls-4" d="m574.72,133.05s1.72,7.18,4.94,9.91,11.12,7.06,13.29,9,4.4,4.29,2.85,8.19c-1.37,3.45-3.86,10.78-3.86,10.78,0,0-.6,2.46-3.68,2.68-3.49.25-7.69,3.21-7.62,4.23.08,1.03.12,2.05,1.21,3.02s11.42,1.38,14.32-1.88c2.9-3.26,3.92-8.95,5.91-13.69,1.31-3.13,2.29-4.57,3.19-5.74s2.96-4.04.16-7.39c-3.26-3.88-5.79-13.93-6.94-15.93s-2.39-7.32-2.39-7.32l-21.37,4.13Z"/>
    <path class="cls-4" d="m489.23,85.37s14.99,33.12,21.84,39.47c6.85,6.35,7.67,5.96,6.67,15.07s-4.45,26.31-6.68,28.61c-2.23,2.3-7.74,3.23-8.89,4.03s-2.99,3.51-2.18,4.26,7.42,2.73,14.44.34c7.02-2.39,12.27-20.83,20.35-31.87,0,0-1.66,22.36-2.5,26.57s-8.48,6.04-9.51,7.16-1.04,2.8-.49,3.13,12.26,1.12,16.29-.84,1.01-4.45,1.01-5.9,8.8-26.98,11.96-33.06c3.15-6.08,2.99-8.59,10.23-8.68,7.24-.09,23.72-.93,28.02-3.3,0,0,5.4,8.43,12.04,14.06s14.99,12.88,15.81,13.94,1.44,2.06,1.51,6.54c.07,4.47.58,11.41-2.02,13.83s-5.04,3.15-6.61,3.86-2.46,1.33-2.41,3.32,12.06,2.19,14.9.68,2.09-1.31,2.75-6.69c.66-5.39.81-11.25,5.01-16.73,4.19-5.48-2.35-9.31-3.42-11.45s-3.88-5.24-3.65-14.74c.23-9.5,1.43-14.4,1.23-17.91s-1.52-4.99-1.52-4.99c0,0,3.55.08,5.65,4.31,2.1,4.23,2.42,15.15,2.5,22.75.08,7.6,2.63,10.15,5.12,13.42,2.5,3.27,9.67,11.53,22.96,13.15,9.78,1.19,6.69-2.48,6.69-2.48,0,0,13.08,8.35,25.74,3.13-5.05-1.37-14.12-7.12-19.02-12.87,0,0,11.07,5.49,23.68,1.95,0,0-9.99-3.02-19.71-12.61-9.72-9.59-19.2-23.85-23.66-32.02s-17.19-16.38-27.18-16.22c0,0-8.28-11.27-18.79-14.55s-40.59-4.7-47.15-3.63c-6.56,1.07-70.97,6.98-70.97,6.98Z"/>
    <path class="cls-2" d="m534.78,145.28s1.41-7.7-.71-11.83-3.23-6.32-4.12-12.35"/>
    <path class="cls-2" d="m519.54,123.92s2.89,5.58,8.08,8.01c3.96,1.86,6.66,1.99,6.66,1.99"/>
    <path class="cls-6" d="m680.45,159.47s7.31,1.59,12.9.87c0,0,5.98,3.69,12.68,5.84,0,0-7.84,1.7-13.72.98,0,0-6.97-2.98-11.87-7.69Z"/>
    <path class="cls-4" d="m511.63,57.63s17.68-16.75,20.35-18.41,4.82.39,5.87,4.12,1.93,10.42,1.75,17.34c-.18,6.92-2.56,10.38-2.56,10.38,0,0,1.92-.24,5.34,1.14,1.9.77,4.47,3.63,3.61,5.67s-3.37,3.56-3.37,3.56c0,0,.75-.28,4.42,1.1,3.68,1.38,6.17,4.86,6.17,4.86,0,0-6.44.07-13.46.46-7.03.39-13.27,5.52-14.45,7.75s-1.93,4.54-4.33,7.29c-2.24,2.56-5.97,4.43-11.19,4.43-5.22,0-8.32-1.87-10.57-4.43-2.41-2.75-3.15-5.06-4.33-7.29s-7.42-7.36-14.45-7.75c-7.03-.39-13.46-.46-13.46-.46,0,0,2.5-3.48,6.17-4.86s4.42-1.1,4.42-1.1c0,0-2.52-1.52-3.37-3.56s1.71-4.9,3.61-5.67c3.43-1.38,5.34-1.14,5.34-1.14,0,0-2.39-3.46-2.56-10.38-.18-6.92.7-13.62,1.75-17.34s3.2-5.78,5.87-4.12c2.67,1.66,19.79,18.48,19.79,18.48,0,0,1.09-.61,3.63-.07Z"/>
    <g>
      <path class="cls-3" d="m486.99,43.92s0,15.62,2.04,17.19,6.12,0,8.15-3.12-10.19-14.06-10.19-14.06Z"/>
      <path class="cls-3" d="m533.19,45.85s.13,12.61-1.67,15.07-9.01-1.32-8.68-4.27c.33-2.95,10.35-10.8,10.35-10.8Z"/>
      <g>
        <path class="cls-5" d="m514.7,82.32c-.03-.09-.66-2.23,1.5-6.56,2.38-4.76,6.8-5.37,7.3-5.43l.17-.02c.59-.07,1.21-.13,1.84-.13.84,0,1.54.12,2.17.38.37.16,1.62.75,2.07,1.95.36.97.15,2.3-.82,2.77-.71.34-1.4.37-2.2.41-.63.03-1.34.07-2.2.25-2.22.48-2.68.68-4.92,2.11-3.24,2.08-4.71,4.26-4.72,4.28l-.12.18-.06-.2Z"/>
        <path class="cls-6" d="m525.52,70.28c.71,0,1.44.09,2.13.37.46.19,1.59.77,2.01,1.9.34.91.15,2.2-.77,2.64-1.23.59-2.41.23-4.38.66-2.22.48-2.69.68-4.95,2.12-3.3,2.11-4.75,4.31-4.75,4.31,0,0-.67-2.14,1.5-6.48,2.17-4.34,6.14-5.25,7.22-5.37.63-.07,1.31-.15,2-.15m0-.2c-.64,0-1.25.07-1.85.13l-.17.02c-.5.06-4.98.68-7.38,5.48-2.18,4.36-1.54,6.54-1.51,6.63l.13.4.23-.35s1.48-2.2,4.69-4.26c2.22-1.42,2.68-1.62,4.89-2.1.85-.18,1.56-.22,2.19-.25.81-.04,1.52-.07,2.24-.42,1.02-.49,1.25-1.88.87-2.89-.46-1.24-1.74-1.85-2.12-2.01-.63-.26-1.35-.39-2.21-.39h0Z"/>
      </g>
      <g>
        <path class="cls-5" d="m504.15,82.35s-1.49-2.21-4.72-4.29c-2.23-1.43-2.69-1.63-4.92-2.11-.86-.19-1.57-.22-2.2-.25-.8-.04-1.5-.07-2.2-.41-.97-.47-1.18-1.8-.82-2.77.45-1.2,1.69-1.8,2.07-1.95.62-.26,1.33-.38,2.17-.38.63,0,1.25.07,1.84.13l.17.02c.5.05,4.92.67,7.3,5.43,2.16,4.33,1.53,6.47,1.5,6.56l-.06.2-.12-.17Z"/>
        <path class="cls-6" d="m493.51,70.28c.69,0,1.37.08,2,.15,1.08.12,5.05,1.03,7.22,5.37,2.17,4.34,1.5,6.48,1.5,6.48,0,0-1.46-2.2-4.75-4.31-2.26-1.45-2.73-1.64-4.95-2.12-1.97-.43-3.15-.07-4.38-.66-.93-.44-1.11-1.74-.77-2.64.42-1.12,1.56-1.71,2.01-1.9.69-.29,1.41-.37,2.13-.37m0-.2h0c-.85,0-1.57.13-2.21.39-.38.16-1.66.77-2.12,2.01-.38,1.01-.15,2.4.87,2.89.72.35,1.43.38,2.24.42.63.03,1.33.07,2.19.25,2.21.48,2.67.67,4.89,2.1,3.22,2.06,4.68,4.23,4.69,4.26l.23.35.13-.4c.03-.09.67-2.27-1.51-6.63-2.4-4.8-6.88-5.43-7.38-5.48l-.17-.02c-.6-.07-1.21-.13-1.85-.13h0Z"/>
      </g>
      <path class="cls-1" d="m517.6,97.07c0,2.9-3.37,4.96-7.52,4.96s-7.52-2.05-7.52-4.96c0-1.44.74-2.89,2.18-3.7,1.63-.92,3.44-1.03,5.53-1.03s4.33.53,5.27,1.11c1.04.64,2.07,2.22,2.07,3.62Z"/>
    </g>
    <g>
      <g>
        <g>
          <path class="cls-5" d="m527.74,122.3c.9,3.76,1.92,7.6,3.88,10.96.19.33.71.03.52-.3-1.93-3.32-2.94-7.11-3.82-10.82-.09-.38-.67-.22-.58.16h0Z"/>
          <path class="cls-5" d="m527.01,124.79c.27,1.35.67,2.67,1.14,3.96s.93,2.62,1.69,3.77c.21.32.73.02.52-.3-.75-1.15-1.21-2.48-1.67-3.76s-.83-2.52-1.1-3.83c-.08-.38-.66-.22-.58.16h0Z"/>
          <path class="cls-5" d="m525.16,124c.47,2.41,1.17,4.79,2.05,7.08.14.36.72.2.58-.16-.88-2.29-1.58-4.67-2.05-7.08-.07-.38-.65-.22-.58.16h0Z"/>
          <path class="cls-5" d="m524.14,125.96c.35,1.51,1.02,2.92,1.41,4.41.1.37.68.21.58-.16-.4-1.49-1.07-2.9-1.41-4.41-.09-.38-.67-.22-.58.16h0Z"/>
          <path class="cls-5" d="m532.18,134.43c.2.84.38,1.7.53,2.55s.29,1.71.26,2.58c-.01.39.59.39.6,0,.03-.89-.12-1.79-.27-2.66s-.33-1.76-.54-2.63c-.09-.38-.67-.22-.58.16h0Z"/>
          <path class="cls-5" d="m532.97,141.72c0,1.85-.11,3.7-.29,5.54-.04.38.56.38.6,0,.19-1.84.29-3.69.29-5.54,0-.39-.6-.39-.6,0h0Z"/>
          <path class="cls-5" d="m531.62,144.14c-.03.72-.05,1.45-.07,2.17s-.05,1.45,0,2.17c.02.38.62.39.6,0-.05-.72-.01-1.45,0-2.17s.04-1.45.07-2.17c.02-.39-.58-.39-.6,0h0Z"/>
          <path class="cls-5" d="m530.71,134c.17.59.35,1.18.46,1.79s.13,1.2.14,1.8c0,.39.61.39.6,0-.01-.64-.04-1.28-.15-1.91s-.3-1.22-.47-1.83c-.1-.37-.68-.21-.58.16h0Z"/>
          <path class="cls-5" d="m529.27,133.38c.26.79.41,1.62.53,2.44.13.88.24,1.77.24,2.67,0,.39.6.39.6,0,0-.92-.11-1.84-.25-2.75-.13-.84-.27-1.7-.54-2.52-.12-.36-.7-.21-.58.16h0Z"/>
        </g>
        <g>
          <g>
            <path class="cls-5" d="m587.93,131.56c.24,2.19,1.01,4.21,1.85,6.23.15.35.73.2.58-.16-.82-1.96-1.6-3.94-1.83-6.07-.04-.38-.64-.38-.6,0h0Z"/>
            <path class="cls-5" d="m586.75,131.92c.15.87.26,1.74.44,2.6s.44,1.69.79,2.49c.15.35.67.05.52-.3-.69-1.58-.89-3.27-1.17-4.95-.06-.38-.64-.22-.58.16h0Z"/>
            <path class="cls-5" d="m585.39,132.31c.23.89.37,1.8.63,2.69.24.83.51,1.67.87,2.46.16.35.68.05.52-.3-.35-.76-.6-1.58-.83-2.38-.25-.86-.39-1.75-.61-2.62-.1-.37-.67-.22-.58.16h0Z"/>
            <path class="cls-5" d="m579.68,133.43c-.01.35,0,.7.05,1.05.06.42.18.84.29,1.25.04.16.21.25.37.21s.25-.21.21-.37c-.11-.41-.22-.81-.28-1.23,0-.02,0-.03,0-.05,0-.04,0,.05,0,0,0-.04,0-.08-.01-.12,0-.08-.01-.15-.01-.23,0-.17,0-.34,0-.52,0-.16-.14-.3-.3-.3-.17,0-.29.14-.3.3h0Z"/>
            <path class="cls-5" d="m580.79,133.15c0,.19.04.39.07.57.05.29.11.58.18.86.13.59.27,1.18.44,1.76.11.37.69.21.58-.16-.17-.57-.3-1.14-.43-1.72-.06-.28-.13-.57-.18-.86-.01-.06-.02-.11-.03-.17,0-.02,0-.04-.01-.06,0,0-.01-.09,0-.04,0,.04,0-.07,0-.09,0-.03,0-.06,0-.09,0-.39-.59-.39-.6,0h0Z"/>
            <path class="cls-5" d="m583.02,134.88c-.08-.29-.17-.58-.24-.87-.04-.17-.08-.33-.12-.5,0-.04-.01-.08-.02-.11,0-.02,0-.04,0-.05,0-.05-.01-.02,0,0-.03-.04-.01-.15-.01-.2,0-.16-.14-.31-.3-.3s-.3.13-.3.3c0,.34.09.68.18,1,.08.3.17.6.25.9.04.15.22.26.37.21s.25-.21.21-.37h0Z"/>
            <path class="cls-5" d="m584.81,136.86c-.32-.69-.51-1.46-.68-2.2-.09-.36-.16-.73-.23-1.09-.05-.25-.08-.46-.1-.66-.03-.38-.63-.39-.6,0,.05.64.2,1.29.35,1.91.19.79.4,1.6.75,2.34.16.35.68.05.52-.3h0Z"/>
          </g>
          <path class="cls-5" d="m585.84,135.96c-.43-1.07-.75-2.15-.89-3.3-.02-.16-.12-.3-.3-.3-.15,0-.32.14-.3.3.07.57.16,1.14.3,1.7.16.6.37,1.19.61,1.77.06.15.2.26.37.21.14-.04.27-.22.21-.37h0Z"/>
        </g>
        <g>
          <path class="cls-5" d="m620.98,113.81c1.52,1.53,1.65,3.7,1.7,5.74.03,1.3-.07,2.56-.22,3.84-.28,2.37-.75,4.83-.67,7.22.01.38.61.39.6,0-.09-2.58.44-5.22.73-7.78.18-1.53.2-3.06.11-4.6-.11-1.79-.53-3.55-1.83-4.85-.27-.27-.7.15-.42.42h0Z"/>
          <path class="cls-5" d="m619.92,114.75c.78,1.07,1.2,2.14,1.32,3.46.1,1.12.14,2.26.05,3.38-.15,1.68-.46,3.35-.69,5.02-.05.38.53.54.58.16.25-1.76.59-3.51.72-5.28.1-1.23.04-2.49-.1-3.71s-.62-2.31-1.36-3.34c-.22-.31-.75-.01-.52.3h0Z"/>
          <path class="cls-5" d="m619.14,115.87c.68,1.17.91,2.47,1,3.8s.04,2.68-.27,3.99c-.09.38.49.54.58.16.34-1.41.39-2.85.28-4.29s-.36-2.75-1.07-3.97c-.2-.33-.71-.03-.52.3h0Z"/>
        </g>
        <g>
          <path class="cls-5" d="m470.94,87.11c.98-.53,2.03-.92,3.09-1.26.92-.3,1.85-.56,2.79-.77.38-.08.22-.66-.16-.58-.97.21-1.93.49-2.87.8-1.08.35-2.15.75-3.15,1.29-.34.18-.04.7.3.52h0Z"/>
          <path class="cls-5" d="m475.64,87.23c1.72-.46,3.46-.81,5.25-.81.39,0,.39-.6,0-.6-1.84,0-3.64.36-5.41.83-.37.1-.21.68.16.58h0Z"/>
          <path class="cls-5" d="m468.94,86.48c3.16-1.54,6.52-2.87,10.02-3.38.38-.05.22-.63-.16-.58-3.55.51-6.95,1.87-10.16,3.44-.35.17-.04.69.3.52h0Z"/>
          <path class="cls-5" d="m499.52,105.52h1.27c.16,0,.31-.14.3-.3s-.13-.3-.3-.3h-1.27c-.16,0-.31.14-.3.3s.13.3.3.3h0Z"/>
          <path class="cls-5" d="m500.35,106.68c.59-.03,1.17-.09,1.75-.17.16-.02.25-.23.21-.37-.06-.17-.2-.23-.37-.21-.03,0-.07,0-.1.01.04,0-.06,0-.07,0-.07,0-.13.02-.2.02-.14.02-.27.03-.41.04-.27.03-.55.04-.82.06-.16,0-.31.13-.3.3,0,.16.13.31.3.3h0Z"/>
          <path class="cls-5" d="m501.14,107.83c.09-.02.19-.04.28-.05.03,0,.06,0,.09-.01-.06,0,.04,0,.04,0,.07,0,.14-.02.2-.02.34-.04.68-.07,1.02-.09s.67-.04,1-.05c.13,0,.27,0,.4,0,.05,0,.1,0,.16,0,.03,0,.19.02.08,0,.16.02.32-.04.37-.21.04-.14-.05-.35-.21-.37-.59-.08-1.21-.02-1.8.02s-1.21.07-1.79.21c-.38.09-.22.67.16.58h0Z"/>
          <path class="cls-5" d="m553.22,88.83c-6.94-.22-14.02-.58-20.73,1.5-.37.11-.21.69.16.58,6.65-2.07,13.69-1.7,20.57-1.48.39.01.39-.59,0-.6h0Z"/>
          <path class="cls-5" d="m551.16,90.08c-3.92-.26-7.82-.31-11.72.09s-7.35,1.39-10.96,2.43c-.37.11-.21.69.16.58,3.65-1.05,7.26-2.05,11.05-2.43s7.65-.32,11.48-.07c.39.03.38-.57,0-.6h0Z"/>
          <path class="cls-5" d="m535.48,93.27c-3.34.82-6.72,1.75-9.92,3.02-.35.14-.2.72.16.58,3.2-1.28,6.57-2.21,9.92-3.02.37-.09.22-.67-.16-.58h0Z"/>
          <path class="cls-5" d="m546.15,92.43c-2.48-.06-4.92-.15-7.37.33-.38.07-.22.65.16.58,2.39-.47,4.79-.37,7.21-.31.39,0,.39-.59,0-.6h0Z"/>
          <path class="cls-5" d="m533.06,95.03c-3.13.88-6.36,1.87-9.17,3.54-.33.2-.03.72.3.52,2.77-1.64,5.94-2.62,9.03-3.48.37-.1.21-.68-.16-.58h0Z"/>
          <path class="cls-5" d="m523.76,100.63c2.55-1.31,5.23-2.33,7.97-3.16.37-.11.21-.69-.16-.58-2.79.85-5.52,1.89-8.11,3.22-.34.18-.04.69.3.52h0Z"/>
          <path class="cls-5" d="m528.09,99.67c-1.93.47-3.76,1.29-5.63,1.95-.36.13-.21.71.16.58,1.87-.66,3.7-1.48,5.63-1.95.38-.09.22-.67-.16-.58h0Z"/>
          <path class="cls-5" d="m525.56,102.16c-1.7.24-3.37.7-5,1.22-.37.12-.21.7.16.58,1.63-.52,3.3-.98,5-1.22.38-.05.22-.63-.16-.58h0Z"/>
          <path class="cls-5" d="m524.04,103.81c-1.62.18-3.25.44-4.83.88-.37.1-.21.68.16.58,1.53-.42,3.1-.68,4.67-.86.38-.04.38-.64,0-.6h0Z"/>
          <path class="cls-5" d="m523.53,105.46c-1.5.1-3,.41-4.48.67s-3,.56-4.48.89c-.38.09-.22.66.16.58,1.45-.33,2.91-.61,4.37-.87s2.95-.57,4.43-.67c.38-.03.39-.63,0-.6h0Z"/>
          <path class="cls-5" d="m503.03,109.15c2.46-.08,4.89-.42,7.35-.5,3.54-.12,7.01-.46,10.51-1.04.38-.06.22-.64-.16-.58-3.5.58-6.97.9-10.51,1.03-2.4.09-4.78.42-7.18.5-.39.01-.39.61,0,.6h0Z"/>
          <path class="cls-5" d="m549.47,90.99c-7.67-.46-15.56.73-22.73,3.52-.36.14-.2.72.16.58,7.12-2.77,14.95-3.95,22.57-3.5.39.02.38-.58,0-.6h0Z"/>
          <path class="cls-5" d="m506.32,110.48c1.96-.41,4.01-.44,6-.63s3.9-.42,5.85-.43c.39,0,.39-.6,0-.6-2.02.01-4.03.25-6.04.45s-4.01.22-5.97.63c-.38.08-.22.66.16.58h0Z"/>
          <path class="cls-5" d="m508.64,111.58c2.26-.17,4.52-.34,6.79-.48.38-.02.39-.62,0-.6-2.26.14-4.53.31-6.79.48-.38.03-.39.63,0,.6h0Z"/>
        </g>
        <g>
          <path class="cls-5" d="m683.04,160.93c.87.15,1.74.29,2.62.37.96.09,1.92.1,2.88.14.39.01.39-.59,0-.6-.94-.03-1.89-.05-2.83-.13-.85-.07-1.68-.22-2.52-.36-.38-.06-.54.52-.16.58h0Z"/>
          <path class="cls-5" d="m682.9,160.85c1.19,1.01,2.3,2.05,3.68,2.8.53.29,1.06.57,1.6.85.41.21.83.44,1.27.59.37.12.52-.46.16-.58-.42-.14-.81-.36-1.2-.56-.52-.26-1.03-.53-1.53-.81-.55-.3-1.08-.62-1.57-1.01-.69-.54-1.32-1.14-1.98-1.7-.29-.25-.72.17-.42.42h0Z"/>
          <path class="cls-5" d="m686.35,162.28c.36.26.72.53,1.11.76s.82.43,1.25.59c.15.06.33-.06.37-.21.05-.17-.06-.31-.21-.37-.39-.15-.77-.33-1.14-.55s-.73-.49-1.08-.74c-.13-.09-.33-.02-.41.11-.09.15-.02.32.11.41h0Z"/>
          <path class="cls-5" d="m686.42,162.31c.77.12,1.59.19,2.37.1.16-.02.3-.12.3-.3,0-.15-.14-.32-.3-.3-.37.04-.75.04-1.13.02-.19,0-.39-.02-.58-.04-.1,0-.19-.02-.29-.03-.02,0-.04,0-.06,0-.05,0,.04,0-.01,0-.04,0-.09-.01-.13-.02-.16-.02-.32.04-.37.21-.04.14.05.34.21.37h0Z"/>
          <path class="cls-5" d="m666.06,166.09c-1.71-.99-3.33-2.31-4.74-3.69-1.68-1.65-3.25-3.41-4.74-5.23-.24-.3-.67.13-.42.42,1.52,1.87,3.13,3.67,4.86,5.35,1.41,1.37,3.03,2.68,4.74,3.67.33.19.64-.32.3-.52h0Z"/>
          <path class="cls-5" d="m664.23,162.89c-.76-.61-1.47-1.29-2.15-1.98s-1.35-1.41-1.96-2.18c-.1-.13-.32-.1-.42,0-.13.12-.1.3,0,.42.61.76,1.27,1.48,1.96,2.18s1.39,1.37,2.15,1.98c.13.1.3.12.42,0,.11-.1.13-.32,0-.42h0Z"/>
          <path class="cls-5" d="m660.89,156.97c1.09,1.44,2.11,2.95,3.35,4.27,1.13,1.19,2.38,2.32,3.65,3.36,1.45,1.19,3.18,2.01,4.68,3.14.31.23.61-.29.3-.52-1.46-1.09-3.15-1.89-4.56-3.04-1.22-1-2.41-2.09-3.51-3.21-1.28-1.31-2.3-2.84-3.4-4.29-.23-.3-.75,0-.52.3h0Z"/>
          <path class="cls-5" d="m666.72,161.09c1.7,1.82,3.49,3.66,5.53,5.1,1.64,1.15,3.44,2.34,5.34,3.01.36.13.52-.45.16-.58-1.84-.65-3.61-1.83-5.2-2.95-2-1.4-3.75-3.22-5.41-5-.26-.28-.69.14-.42.42h0Z"/>
          <path class="cls-5" d="m670.98,153.55c-.8-.65-1.61-1.3-2.33-2.04s-1.36-1.66-1.94-2.57c-.21-.32-.73-.02-.52.3.59.93,1.21,1.84,1.98,2.63s1.57,1.43,2.39,2.1c.3.24.72-.18.42-.42h0Z"/>
          <path class="cls-5" d="m674.1,155.05c-.89-.7-1.72-1.48-2.54-2.28s-1.62-1.6-2.37-2.45c-.26-.29-.68.14-.42.42.75.85,1.55,1.66,2.37,2.45s1.65,1.57,2.54,2.28c.3.24.73-.19.42-.42h0Z"/>
          <path class="cls-5" d="m671.84,152.51c1.75,1.62,3.51,3.36,5.75,4.28.36.15.51-.43.16-.58-2.13-.88-3.82-2.59-5.49-4.13-.28-.26-.71.16-.42.42h0Z"/>
        </g>
        <g>
          <path class="cls-5" d="m628.91,115.62c1.35,1.06,1.92,2.96,2.47,4.52s.98,3.25,1.25,4.93c.62,3.73.61,7.53.6,11.3,0,4.4-.64,9.51,2.71,12.93.27.28.7-.15.42-.42-1.66-1.69-2.28-3.71-2.45-6.03-.23-3.12-.06-6.27-.09-9.4-.04-3.39-.19-6.81-.92-10.13-.37-1.66-.88-3.28-1.52-4.85-.49-1.21-1-2.44-2.05-3.27-.3-.24-.73.19-.42.42h0Z"/>
          <path class="cls-5" d="m635.87,125.06c.39,2.62.59,5.23.53,7.89,0,.39.59.39.6,0,.06-2.71-.15-5.37-.55-8.05-.06-.38-.64-.22-.58.16h0Z"/>
          <path class="cls-5" d="m633.72,121.75c.9,2.92,1.07,6.14,1.21,9.17.17,3.69-.39,7.43.24,11.08.07.38.64.22.58-.16-.36-2.06-.26-4.06-.18-6.13.07-1.8.03-3.61-.07-5.42-.16-2.87-.34-5.93-1.2-8.7-.11-.37-.69-.21-.58.16h0Z"/>
        </g>
      </g>
      <path class="cls-5" d="m578.44,133.43c0,.31.06.64.12.94.08.42.19.84.31,1.26.05.16.21.25.37.21s.26-.21.21-.37c-.12-.4-.22-.81-.3-1.22-.02-.09-.03-.18-.05-.27,0-.04-.01-.08-.02-.12,0-.02,0-.04,0-.06,0,0-.01-.08,0-.04,0,.04,0-.02,0-.02,0-.02,0-.03,0-.05,0-.03,0-.07,0-.1,0-.05,0-.11,0-.16,0-.16-.14-.3-.3-.3-.17,0-.3.14-.3.3h0Z"/>
      <path class="cls-5" d="m589.2,131.4c.3,1.75.89,3.39,1.6,5.01.15.35.67.05.52-.3-.69-1.58-1.24-3.17-1.54-4.87-.07-.38-.64-.22-.58.16h0Z"/>
    </g>
  </g>
</svg>