<?xml version="1.0" encoding="UTF-8"?>
<svg id="Layer_1" data-name="Layer 1" xmlns="http://www.w3.org/2000/svg" viewBox="0 0 768 768">
  <defs>
    <style>
      .cls-1 {
        letter-spacing: .01em;
      }

      .cls-2 {
        letter-spacing: .04em;
      }

      .cls-3 {
        letter-spacing: .05em;
      }

      .cls-4, .cls-5, .cls-6, .cls-7 {
        stroke-width: 0px;
      }

      .cls-4, .cls-8, .cls-9 {
        fill: #263a38;
      }

      .cls-10 {
        letter-spacing: .01em;
      }

      .cls-11 {
        fill: none;
      }

      .cls-11, .cls-12 {
        stroke: #263a38;
      }

      .cls-11, .cls-12, .cls-13, .cls-8, .cls-9 {
        stroke-miterlimit: 10;
      }

      .cls-11, .cls-12, .cls-9 {
        stroke-width: 2px;
      }

      .cls-14 {
        font-family: MinionVariableConcept-Roman, 'Minion Variable Concept';
        font-size: 90.22px;
        font-variation-settings: 'wght' 400, 'opsz' 11;
      }

      .cls-14, .cls-15, .cls-12, .cls-6, .cls-13 {
        fill: #f4eded;
      }

      .cls-5 {
        fill: #e6e6e6;
      }

      .cls-15 {
        font-family: MinionConceptRoman-Medium, 'Minion Variable Concept';
        font-size: 238.77px;
        font-variation-settings: 'wght' 500, 'opsz' 11;
        font-weight: 500;
      }

      .cls-16 {
        letter-spacing: .03em;
      }

      .cls-13, .cls-8, .cls-9 {
        stroke: #f4eded;
      }

      .cls-17 {
        letter-spacing: -.05em;
      }

      .cls-18 {
        letter-spacing: 0em;
      }

      .cls-19 {
        letter-spacing: .03em;
      }

      .cls-8 {
        stroke-width: .2px;
      }

      .cls-20 {
        letter-spacing: .02em;
      }

      .cls-7 {
        fill: #331b0e;
      }
    </style>
  </defs>
  <rect class="cls-4" x="-1.59" y="-1.07" width="769.07" height="769.07"/>
  <path class="cls-13" d="m39.18,41.23v687.16h687.16V41.23H39.18Zm682.25,682.25H44.09V46.13h677.34v677.34Z"/>
  <g>
    <path class="cls-5" d="m339.83,651.98v-1.08c4.98-.27,5.25-.46,5.25-3.36v-14.84c0-1.97-.31-2.05-2.29-2.2l-2.2-.19v-.97c2.96-.42,5.92-1.04,8.21-1.89v20.09c0,2.94.27,3.09,5.3,3.36v1.08h-14.27Z"/>
    <path class="cls-5" d="m383.84,652.44c-.67,0-1.66-.31-2.11-.73-.58-.5-.85-1.04-1.08-1.74-1.79,1.04-3.99,2.47-5.39,2.47-3.19,0-5.47-2.28-5.47-4.75,0-1.89,1.21-3.13,3.68-3.86,2.74-.81,6.1-1.82,7.09-2.51v-.77c0-2.74-1.62-4.33-3.95-4.33-1.03,0-1.66.43-2.11.89-.49.54-.81,1.39-1.21,2.51-.22.62-.63.89-1.3.89-.85,0-1.97-.77-1.97-1.7,0-.54.58-1,1.48-1.54,1.3-.81,3.9-2.24,6.46-2.71,1.35,0,2.74.35,3.77,1.04,1.57,1.16,2.29,2.47,2.29,4.48v7.46c0,1.78.76,2.32,1.57,2.32.54,0,1.12-.19,1.62-.42l.45,1.08-3.81,1.93Zm-3.28-9.78c-.99.43-3.14,1.24-4.17,1.62-1.71.66-2.74,1.39-2.74,2.82,0,2.05,1.79,2.97,3.23,2.97,1.17,0,2.78-.62,3.68-1.39v-6.03Z"/>
    <path class="cls-5" d="m392.23,635.02v-1.04c0-2.78,1.12-5.64,3.95-7.73,1.57-1.2,3.28-1.85,5.03-2.05,1.53.04,2.92.5,3.63,1.24.4.42.49.81.27,1.35-.13.39-.63.93-1.08,1.24-.49.27-.85.19-1.3-.08-.9-.7-2.15-1.58-3.63-1.58-3.32,0-3.32,3.9-3.32,6.84v1.82h4.76c.27.35.04,1.31-.45,1.58h-4.31v11.17c0,2.78.49,2.82,3.86,3.13v1.08h-10.54v-1.08c2.83-.23,3.14-.39,3.14-2.9v-11.4h-3.19l-.18-.42.99-1.16h2.38Z"/>
    <path class="cls-5" d="m415.12,651.98v-1.08c4.98-.27,5.25-.46,5.25-3.36v-14.84c0-1.97-.31-2.05-2.29-2.2l-2.2-.19v-.97c2.96-.42,5.92-1.04,8.21-1.89v20.09c0,2.94.27,3.09,5.3,3.36v1.08h-14.27Z"/>
  </g>
  <path class="cls-7" d="m507.31,250.33c.78.45,1.61.81,2.48,1.05.19.05.42-.07.46-.26s-.06-.4-.26-.46c-.82-.23-1.56-.54-2.3-.98-.17-.1-.42-.04-.51.13s-.05.41.13.51h0Z"/>
  <path class="cls-7" d="m507.31,250.33c.78.45,1.61.81,2.48,1.05.19.05.42-.07.46-.26s-.06-.4-.26-.46c-.82-.23-1.56-.54-2.3-.98-.17-.1-.42-.04-.51.13s-.05.41.13.51h0Z"/>
  <path class="cls-13" d="m-.27-.27v769.07h769.07V-.27H-.27Zm751.85,753.89H13.94V15.98h737.64v737.64Z"/>
  <g>
    <text class="cls-14" transform="translate(152.03 569.06)"><tspan class="cls-20" x="0" y="0">R</tspan><tspan x="57.02" y="0">E</tspan><tspan class="cls-3" x="110.16" y="0">Y</tspan><tspan class="cls-2" x="163.47" y="0">K</tspan><tspan class="cls-10" x="225.99" y="0">J</tspan><tspan class="cls-17" x="257.57" y="0">A</tspan><tspan class="cls-19" x="307.73" y="0">V</tspan><tspan class="cls-1" x="366.37" y="0">Í</tspan><tspan x="399.66" y="0">K</tspan></text>
    <text class="cls-15" transform="translate(141.47 469.59) scale(1.07 1)"><tspan class="cls-18" x="0" y="0">F</tspan><tspan class="cls-16" x="132.99" y="0">K</tspan><tspan x="298.22" y="0">R</tspan></text>
  </g>
  <g id="Trjágreinar">
    <path id="Vinstri" class="cls-6" d="m221.43,197.77s-10.31-2.5-17.28-2.12c-6.97.38-21.22-6.56-22.24-7.39s-2.65.76-2.31,1.44,5.46,3.79,6.37,5-15.2.8-18.15.38-36.73-9.2-46.9-7.31c-10.17,1.89-19.6,2.63-21.14,2.52s-1.19,3.18,0,3.24,16.2-1.36,20.86-1.82,8.01-.51,10.91.4-1.71,5.29-5.8,6.54-9.72.81-11.08.55-1.25,2.2-.8,2.39,7.79.83,12.45,0c4.66-.83,11.42-5.27,13.24-6.83s13.3,2.47,21.03,3.95c7.73,1.48,27.68,1.44,37.51.49,9.83-.95,20.09,1.38,21.96,1.84s2.34-3.04,1.37-3.26Z"/>
    <path id="Hægri" class="cls-6" d="m539.78,196.02s12.77-2.12,17.83-2.2c0,0,7.29-3.64,12.75-4.89,2.7-.62,4.8-1.11,6.01-1.03,1.01.07,1.32.67,1.29,1.38-.08,1.59-6.08.3-12.07,5.06,0,0,32.74,1.55,47.18-3.68,14.44-5.23,37.8-8.01,42.35-7.67,4.55.34,9.1,1.71,11.34,2.3.66.17.21,2.78-.31,2.77-2.06-.05-7.95-2.09-12.08-2.16s-18.03,1.44-23.14,3.26c-5.12,1.82-14.97,4.8-16.83,5.3,0,0,7.26,2.8,10.78,4.96s10.35,3.72,13.49,3.63c1.73-.05,1.97,2.75,1.34,2.84-1.71.24-5.09,0-7.94-.45-3.62-.57-12.52-5.81-19.34-7.11-6.82-1.31-14.16-.91-19.33.02s-18.92-.34-28.98-.66-20.58,1.01-22.85,1.64-3.01-2.36-1.48-3.33Z"/>
  </g>
  <g>
    <rect class="cls-6" x="146.31" y="641.47" width="147.5" height="1.5"/>
    <rect class="cls-6" x="474.72" y="641.47" width="147.5" height="1.5"/>
  </g>
  <path class="cls-7" d="m507.33,249.63c.78.45,1.61.81,2.48,1.05.19.05.42-.07.46-.26s-.06-.4-.26-.46c-.82-.23-1.56-.54-2.3-.98-.17-.1-.42-.04-.51.13s-.05.41.13.51h0Z"/>
  <path class="cls-7" d="m507.33,249.63c.78.45,1.61.81,2.48,1.05.19.05.42-.07.46-.26s-.06-.4-.26-.46c-.82-.23-1.56-.54-2.3-.98-.17-.1-.42-.04-.51.13s-.05.41.13.51h0Z"/>
  <path class="cls-12" d="m379.6,213.02s1.95,8.11,5.58,11.19,12.55,7.98,15.01,10.16,4.97,4.84,3.21,9.24c-1.55,3.89-4.36,12.18-4.36,12.18,0,0-.68,2.78-4.15,3.03-3.94.28-8.68,3.62-8.6,4.78.09,1.16.14,2.32,1.37,3.41s12.89,1.56,16.17-2.12c3.27-3.69,4.42-10.1,6.67-15.46,1.48-3.53,2.59-5.16,3.6-6.48s3.35-4.56.18-8.34c-3.68-4.38-6.54-15.73-7.84-17.98s-2.7-8.27-2.7-8.27l-24.13,4.67Z"/>
  <path class="cls-12" d="m283.08,159.18s16.93,37.39,24.66,44.56c7.73,7.17,8.66,6.73,7.53,17.01s-5.03,29.71-7.54,32.3c-2.51,2.59-8.73,3.64-10.04,4.55s-3.38,3.96-2.46,4.81,8.37,3.08,16.3.38,13.85-23.52,22.98-35.98c0,0-1.88,25.24-2.83,30-.95,4.76-9.57,6.82-10.74,8.09s-1.17,3.16-.55,3.53,13.85,1.26,18.4-.95c4.55-2.21,1.14-5.03,1.14-6.66s9.94-30.47,13.5-37.33c3.56-6.86,3.38-9.69,11.55-9.8s26.78-1.05,31.64-3.73c0,0,6.1,9.52,13.59,15.88,7.5,6.36,16.93,14.54,17.84,15.74s1.62,2.33,1.7,7.38.65,12.88-2.28,15.61c-2.93,2.73-5.69,3.56-7.47,4.36s-2.78,1.5-2.72,3.75,13.62,2.47,16.82.76c3.2-1.71,2.36-1.47,3.1-7.56s.92-12.7,5.65-18.89c4.73-6.19-2.65-10.51-3.87-12.93s-4.38-5.91-4.12-16.64,1.62-16.26,1.38-20.22c-.23-3.96-1.72-5.64-1.72-5.64,0,0,4,.09,6.38,4.86s2.73,17.11,2.82,25.69c.09,8.58,2.97,11.46,5.78,15.15s10.92,13.02,25.92,14.84c11.04,1.34,7.55-2.8,7.55-2.8,0,0,14.76,9.43,29.06,3.54-5.7-1.55-15.94-8.04-21.47-14.53,0,0,12.5,6.2,26.73,2.2,0,0-11.28-3.41-22.25-14.24-10.97-10.83-21.68-26.92-26.71-36.15s-19.41-18.5-30.68-18.31c0,0-9.35-12.72-21.21-16.43-11.86-3.71-45.83-5.31-53.24-4.1-7.41,1.21-80.12,7.88-80.12,7.88Z"/>
  <path class="cls-11" d="m334.5,226.82s1.59-8.7-.8-13.36c-2.39-4.66-3.65-7.13-4.65-13.94"/>
  <path class="cls-11" d="m317.3,202.71s3.26,6.3,9.12,9.05c4.47,2.1,7.52,2.25,7.52,2.25"/>
  <g>
    <path class="cls-6" d="m513.44,251.91c-1.35,0-2.61-.07-3.73-.21l-.14-.02-.13-.06c-.33-.14-8.1-3.49-13.7-8.88l-2.54-2.44,3.45.75c.05.01,5.46,1.17,10.74,1.17,1.27,0,2.44-.07,3.49-.2l.35-.04.3.19c.07.04,6.74,4.13,14.1,6.49l3.56,1.14-3.65.79c-.25.05-6.2,1.33-12.08,1.33Z"/>
    <path class="cls-4" d="m496.43,242.03s5.5,1.19,10.95,1.19c1.23,0,2.45-.06,3.61-.21,0,0,6.75,4.17,14.32,6.59,0,0-6.03,1.31-11.87,1.31-1.23,0-2.46-.06-3.61-.2,0,0-7.87-3.36-13.4-8.68m-6.47-3.45l5.08,4.89c5.73,5.51,13.67,8.94,14,9.08l.26.11.28.03c1.16.14,2.46.21,3.86.21,5.98,0,12.04-1.3,12.29-1.35l7.3-1.58-7.12-2.28c-7.26-2.32-13.81-6.35-13.88-6.39l-.6-.37-.7.09c-1,.13-2.13.19-3.36.19-5.18,0-10.48-1.14-10.53-1.15l-6.89-1.5h0Z"/>
  </g>
  <path class="cls-12" d="m308.36,127.87s19.96-18.91,22.98-20.79,5.44.44,6.62,4.65,2.18,11.77,1.98,19.58c-.2,7.81-2.89,11.72-2.89,11.72,0,0,2.16-.27,6.03,1.29,2.15.87,5.04,4.1,4.08,6.4s-3.81,4.02-3.81,4.02c0,0,.84-.31,4.99,1.24s6.97,5.49,6.97,5.49c0,0-7.27.07-15.2.52-7.93.44-14.98,6.23-16.31,8.75s-2.18,5.12-4.89,8.23c-2.53,2.89-6.74,5-12.63,5.01-5.89,0-9.4-2.11-11.93-5.01-2.72-3.11-3.56-5.71-4.89-8.23s-8.38-8.31-16.31-8.75-15.2-.52-15.2-.52c0,0,2.82-3.93,6.97-5.49s4.99-1.24,4.99-1.24c0,0-2.84-1.72-3.81-4.02s1.93-5.54,4.08-6.4c3.87-1.56,6.03-1.29,6.03-1.29,0,0-2.69-3.91-2.89-11.72-.2-7.81.79-15.37,1.98-19.58s3.61-6.53,6.62-4.65,22.34,20.86,22.34,20.86c0,0,1.24-.69,4.1-.07Z"/>
  <g>
    <path class="cls-9" d="m280.55,112.39s0,17.64,2.3,19.4,6.9,0,9.21-3.53-11.51-15.88-11.51-15.88Z"/>
    <path class="cls-9" d="m332.71,114.57s.15,14.24-1.88,17.02-10.17-1.49-9.8-4.82c.37-3.33,11.68-12.19,11.68-12.19Z"/>
    <g>
      <path class="cls-4" d="m311.85,155.74c-.03-.1-.75-2.51,1.7-7.4,2.68-5.37,7.67-6.06,8.23-6.12l.19-.02c.67-.07,1.36-.15,2.08-.15.94,0,1.74.14,2.44.43.42.17,1.82.84,2.33,2.2.4,1.09.17,2.59-.92,3.11-.79.38-1.58.42-2.48.46-.71.03-1.52.07-2.49.28-2.52.55-3.04.77-5.56,2.38-3.66,2.34-5.32,4.82-5.34,4.84l-.12.17-.06-.2Z"/>
      <path class="cls-6" d="m324.05,142.15c.81,0,1.62.1,2.4.42.51.21,1.8.87,2.27,2.14.38,1.03.17,2.48-.87,2.98-1.39.67-2.73.26-4.95.74-2.51.54-3.04.76-5.59,2.4-3.72,2.38-5.37,4.87-5.37,4.87,0,0-.76-2.42,1.69-7.32,2.45-4.9,6.94-5.93,8.15-6.06.71-.08,1.48-.17,2.26-.17m0-.2c-.72,0-1.41.08-2.09.15l-.19.02c-.57.06-5.61.76-8.31,6.17-2.46,4.92-1.73,7.37-1.7,7.47l.13.4.23-.35s1.67-2.48,5.31-4.81c2.51-1.61,3.03-1.83,5.52-2.37.96-.21,1.77-.25,2.47-.28.92-.04,1.71-.08,2.52-.47,1.14-.55,1.39-2.11.97-3.23-.52-1.39-1.95-2.08-2.38-2.26-.71-.29-1.52-.44-2.48-.44h0Z"/>
    </g>
    <g>
      <path class="cls-4" d="m299.93,155.76s-1.68-2.5-5.34-4.84c-2.52-1.62-3.04-1.84-5.56-2.38-.97-.21-1.78-.25-2.49-.28-.91-.04-1.69-.08-2.48-.46-1.09-.52-1.33-2.02-.92-3.11.5-1.36,1.91-2.03,2.33-2.2.7-.29,1.5-.43,2.44-.43.72,0,1.41.08,2.08.15l.19.02c.56.06,5.55.75,8.23,6.12,2.44,4.88,1.73,7.3,1.7,7.4l-.06.2-.12-.17Z"/>
      <path class="cls-6" d="m287.91,142.15c.78,0,1.55.09,2.26.17,1.22.13,5.7,1.16,8.15,6.06,2.45,4.9,1.69,7.32,1.69,7.32,0,0-1.65-2.49-5.37-4.87-2.55-1.63-3.08-1.85-5.59-2.4-2.22-.48-3.56-.07-4.95-.74-1.04-.5-1.25-1.96-.87-2.98.47-1.27,1.76-1.93,2.27-2.14.78-.32,1.6-.42,2.4-.42m0-.2h0c-.96,0-1.77.14-2.48.44-.43.18-1.86.86-2.38,2.26-.42,1.13-.17,2.69.97,3.23.81.39,1.6.43,2.52.47.71.03,1.51.07,2.47.28,2.5.54,3.01.76,5.52,2.37,3.64,2.33,5.29,4.79,5.31,4.81l.23.35.13-.4c.03-.1.76-2.55-1.7-7.47-2.71-5.41-7.75-6.11-8.31-6.17l-.19-.02c-.67-.07-1.37-.15-2.09-.15h0Z"/>
    </g>
    <path class="cls-8" d="m315.11,172.4c0,3.28-3.8,5.59-8.49,5.59s-8.49-2.32-8.49-5.59c0-1.63.84-3.26,2.46-4.18,1.84-1.04,3.88-1.17,6.24-1.17s4.88.6,5.95,1.25c1.17.73,2.34,2.51,2.34,4.09Z"/>
  </g>
</svg>