<?xml version="1.0" encoding="UTF-8"?>
<svg xmlns="http://www.w3.org/2000/svg" viewBox="0 0 768 768">
  <defs>
    <style>
      .cls-1 {
        letter-spacing: .01em;
      }

      .cls-2 {
        letter-spacing: .04em;
      }

      .cls-3 {
        letter-spacing: .05em;
      }

      .cls-4 {
        fill: #263a38;
      }

      .cls-4, .cls-5, .cls-6, .cls-7 {
        stroke-width: 0px;
      }

      .cls-8 {
        letter-spacing: .01em;
      }

      .cls-9 {
        font-family: MinionVariableConcept-Roman, 'Minion Variable Concept';
        font-size: 90.22px;
        font-variation-settings: 'wght' 400, 'opsz' 11;
      }

      .cls-9, .cls-10, .cls-6, .cls-11, .cls-12 {
        fill: #f4eded;
      }

      .cls-5 {
        fill: #e6e6e6;
      }

      .cls-10 {
        font-family: MinionConceptRoman-Medium, 'Minion Variable Concept';
        font-size: 238.77px;
        font-variation-settings: 'wght' 500, 'opsz' 11;
        font-weight: 500;
      }

      .cls-13, .cls-11, .cls-12, .cls-14, .cls-15 {
        stroke-miterlimit: 10;
      }

      .cls-13, .cls-11, .cls-14 {
        stroke: #f4eded;
      }

      .cls-13, .cls-12, .cls-15 {
        stroke-width: 2px;
      }

      .cls-13, .cls-14, .cls-7 {
        fill: #331b0e;
      }

      .cls-16 {
        letter-spacing: .03em;
      }

      .cls-17 {
        letter-spacing: -.05em;
      }

      .cls-18 {
        letter-spacing: 0em;
      }

      .cls-19 {
        letter-spacing: .03em;
      }

      .cls-12, .cls-15 {
        stroke: #331b0e;
      }

      .cls-20 {
        letter-spacing: .02em;
      }

      .cls-14 {
        stroke-width: .2px;
      }

      .cls-15 {
        fill: none;
      }
    </style>
  </defs>
  <g id="Bakrunnur">
    <rect class="cls-4" x="-.54" y="-.54" width="769.07" height="769.07"/>
  </g>
  <g id="Layer_1" data-name="Layer 1">
    <path class="cls-11" d="m39.45,41.49v687.16h687.16V41.49H39.45Zm682.25,682.25H44.36V46.4h677.34v677.34Z"/>
    <g>
      <path class="cls-5" d="m340.09,652.25v-1.08c4.98-.27,5.25-.46,5.25-3.36v-14.84c0-1.97-.31-2.05-2.29-2.2l-2.2-.19v-.97c2.96-.42,5.92-1.04,8.21-1.89v20.09c0,2.94.27,3.09,5.3,3.36v1.08h-14.27Z"/>
      <path class="cls-5" d="m384.11,652.71c-.67,0-1.66-.31-2.11-.73-.58-.5-.85-1.04-1.08-1.74-1.79,1.04-3.99,2.47-5.39,2.47-3.19,0-5.47-2.28-5.47-4.75,0-1.89,1.21-3.13,3.68-3.86,2.74-.81,6.1-1.82,7.09-2.51v-.77c0-2.74-1.62-4.33-3.95-4.33-1.03,0-1.66.43-2.11.89-.49.54-.81,1.39-1.21,2.51-.22.62-.63.89-1.3.89-.85,0-1.97-.77-1.97-1.7,0-.54.58-1,1.48-1.54,1.3-.81,3.9-2.24,6.46-2.71,1.35,0,2.74.35,3.77,1.04,1.57,1.16,2.29,2.47,2.29,4.48v7.46c0,1.78.76,2.32,1.57,2.32.54,0,1.12-.19,1.62-.42l.45,1.08-3.81,1.93Zm-3.28-9.78c-.99.43-3.14,1.24-4.17,1.62-1.71.66-2.74,1.39-2.74,2.82,0,2.05,1.79,2.97,3.23,2.97,1.17,0,2.78-.62,3.68-1.39v-6.03Z"/>
      <path class="cls-5" d="m392.5,635.28v-1.04c0-2.78,1.12-5.64,3.95-7.73,1.57-1.2,3.28-1.85,5.03-2.05,1.53.04,2.92.5,3.63,1.24.4.42.49.81.27,1.35-.13.39-.63.93-1.08,1.24-.49.27-.85.19-1.3-.08-.9-.7-2.15-1.58-3.63-1.58-3.32,0-3.32,3.9-3.32,6.84v1.82h4.76c.27.35.04,1.31-.45,1.58h-4.31v11.17c0,2.78.49,2.82,3.86,3.13v1.08h-10.54v-1.08c2.83-.23,3.14-.39,3.14-2.9v-11.4h-3.19l-.18-.42.99-1.16h2.38Z"/>
      <path class="cls-5" d="m415.39,652.25v-1.08c4.98-.27,5.25-.46,5.25-3.36v-14.84c0-1.97-.31-2.05-2.29-2.2l-2.2-.19v-.97c2.96-.42,5.92-1.04,8.21-1.89v20.09c0,2.94.27,3.09,5.3,3.36v1.08h-14.27Z"/>
    </g>
    <path class="cls-11" d="m0,0v769.07h769.07V0H0Zm751.85,753.89H14.21V16.25h737.64v737.64Z"/>
    <g>
      <text class="cls-9" transform="translate(152.3 569.33)"><tspan class="cls-20" x="0" y="0">R</tspan><tspan x="57.02" y="0">E</tspan><tspan class="cls-3" x="110.16" y="0">Y</tspan><tspan class="cls-2" x="163.47" y="0">K</tspan><tspan class="cls-8" x="225.99" y="0">J</tspan><tspan class="cls-17" x="257.57" y="0">A</tspan><tspan class="cls-19" x="307.73" y="0">V</tspan><tspan class="cls-1" x="366.37" y="0">Í</tspan><tspan x="399.66" y="0">K</tspan></text>
      <text class="cls-10" transform="translate(141.75 469.86) scale(1.07 1)"><tspan class="cls-18" x="0" y="0">F</tspan><tspan class="cls-16" x="132.99" y="0">K</tspan><tspan x="298.22" y="0">R</tspan></text>
    </g>
    <g id="Trjágreinar">
      <path id="Vinstri" class="cls-6" d="m221.7,198.04s-10.31-2.5-17.28-2.12c-6.97.38-21.22-6.56-22.24-7.39s-2.65.76-2.31,1.44,5.46,3.79,6.37,5-15.2.8-18.15.38-36.73-9.2-46.9-7.31c-10.17,1.89-19.6,2.63-21.14,2.52s-1.19,3.18,0,3.24,16.2-1.36,20.86-1.82,8.01-.51,10.91.4-1.71,5.29-5.8,6.54-9.72.81-11.08.55-1.25,2.2-.8,2.39,7.79.83,12.45,0c4.66-.83,11.42-5.27,13.24-6.83s13.3,2.47,21.03,3.95c7.73,1.48,27.68,1.44,37.51.49,9.83-.95,20.09,1.38,21.96,1.84s2.34-3.04,1.37-3.26Z"/>
      <path id="Hægri" class="cls-6" d="m540.05,196.29s12.77-2.12,17.83-2.2c0,0,7.29-3.64,12.75-4.89,2.7-.62,4.8-1.11,6.01-1.03,1.01.07,1.32.67,1.29,1.38-.08,1.59-6.08.3-12.07,5.06,0,0,32.74,1.55,47.18-3.68,14.44-5.23,37.8-8.01,42.35-7.67,4.55.34,9.1,1.71,11.34,2.3.66.17.21,2.78-.31,2.77-2.06-.05-7.95-2.09-12.08-2.16s-18.03,1.44-23.14,3.26c-5.12,1.82-14.97,4.8-16.83,5.3,0,0,7.26,2.8,10.78,4.96s10.35,3.72,13.49,3.63c1.73-.05,1.97,2.75,1.34,2.84-1.71.24-5.09,0-7.94-.45-3.62-.57-12.52-5.81-19.34-7.11-6.82-1.31-14.16-.91-19.33.02s-18.92-.34-28.98-.66-20.58,1.01-22.85,1.64-3.01-2.36-1.48-3.33Z"/>
    </g>
    <g>
      <rect class="cls-6" x="146.58" y="641.74" width="147.5" height="1.5"/>
      <rect class="cls-6" x="474.99" y="641.74" width="147.5" height="1.5"/>
    </g>
    <g>
      <path class="cls-7" d="m507.55,249.93c.78.45,1.61.81,2.48,1.05.19.05.42-.07.46-.26s-.06-.4-.26-.46c-.82-.23-1.56-.54-2.3-.98-.17-.1-.42-.04-.51.13s-.05.41.13.51h0Z"/>
      <path class="cls-7" d="m507.55,249.93c.78.45,1.61.81,2.48,1.05.19.05.42-.07.46-.26s-.06-.4-.26-.46c-.82-.23-1.56-.54-2.3-.98-.17-.1-.42-.04-.51.13s-.05.41.13.51h0Z"/>
      <path class="cls-12" d="m379.81,213.32s1.95,8.11,5.58,11.19c3.59,3.05,12.55,7.98,15.01,10.16s4.97,4.84,3.21,9.24c-1.55,3.89-4.36,12.18-4.36,12.18,0,0-.68,2.78-4.15,3.03-3.94.28-8.68,3.62-8.6,4.78.09,1.16.14,2.32,1.37,3.41s12.89,1.56,16.17-2.12c3.27-3.69,4.42-10.1,6.67-15.46,1.48-3.53,2.59-5.16,3.6-6.48s3.35-4.56.18-8.34c-3.68-4.38-6.54-15.73-7.84-17.98-1.3-2.25-2.7-8.27-2.7-8.27l-24.13,4.67Z"/>
      <path class="cls-12" d="m283.29,159.48s16.93,37.39,24.66,44.56c7.73,7.17,8.66,6.73,7.53,17.01s-5.03,29.71-7.54,32.3-8.73,3.64-10.04,4.55-3.38,3.96-2.46,4.81,8.37,3.08,16.3.38c7.93-2.7,13.85-23.52,22.98-35.98,0,0-1.88,25.24-2.83,30-.95,4.76-9.57,6.82-10.74,8.09s-1.17,3.16-.55,3.53,13.85,1.26,18.4-.95c4.55-2.21,1.14-5.03,1.14-6.66s9.94-30.47,13.5-37.33c3.56-6.86,3.38-9.69,11.55-9.8s26.78-1.05,31.64-3.73c0,0,6.1,9.52,13.59,15.88,7.5,6.36,16.93,14.54,17.84,15.74s1.62,2.33,1.7,7.38.65,12.88-2.28,15.61c-2.93,2.73-5.69,3.56-7.47,4.36s-2.78,1.5-2.72,3.75,13.62,2.47,16.82.76c3.2-1.71,2.36-1.47,3.1-7.56s.92-12.7,5.65-18.89-2.65-10.51-3.87-12.93-4.38-5.91-4.12-16.64,1.62-16.26,1.38-20.22c-.23-3.96-1.72-5.64-1.72-5.64,0,0,4,.09,6.38,4.86,2.37,4.78,2.73,17.11,2.82,25.69.09,8.58,2.97,11.46,5.78,15.15s10.92,13.02,25.92,14.84c11.04,1.34,7.55-2.8,7.55-2.8,0,0,14.76,9.43,29.06,3.54-5.7-1.55-15.94-8.04-21.47-14.53,0,0,12.5,6.2,26.73,2.2,0,0-11.28-3.41-22.25-14.24-10.97-10.83-21.68-26.92-26.71-36.15-5.03-9.23-19.41-18.5-30.68-18.31,0,0-9.35-12.72-21.21-16.43s-45.83-5.31-53.24-4.1c-7.41,1.21-80.12,7.88-80.12,7.88Z"/>
      <path class="cls-15" d="m334.71,227.12s1.59-8.7-.8-13.36-3.65-7.13-4.65-13.94"/>
      <path class="cls-15" d="m317.51,203s3.26,6.3,9.12,9.05c4.47,2.1,7.52,2.25,7.52,2.25"/>
      <g>
        <path class="cls-6" d="m513.65,252.21c-1.35,0-2.61-.07-3.73-.21l-.14-.02-.13-.06c-.33-.14-8.1-3.49-13.7-8.88l-2.54-2.44,3.45.75c.05.01,5.46,1.17,10.74,1.17,1.27,0,2.45-.07,3.49-.2l.35-.04.3.19c.07.04,6.74,4.13,14.1,6.49l3.56,1.14-3.65.79c-.25.05-6.2,1.33-12.08,1.33Z"/>
        <path class="cls-7" d="m496.64,242.33s5.5,1.19,10.95,1.19c1.23,0,2.45-.06,3.61-.21,0,0,6.75,4.17,14.32,6.59,0,0-6.03,1.31-11.87,1.31-1.23,0-2.46-.06-3.61-.2,0,0-7.87-3.36-13.4-8.68m-6.47-3.45l5.08,4.89c5.73,5.51,13.67,8.94,14,9.08l.26.11.28.03c1.16.14,2.46.21,3.86.21,5.98,0,12.04-1.3,12.29-1.35l7.3-1.58-7.12-2.28c-7.24-2.32-13.81-6.35-13.88-6.39l-.6-.37-.7.09c-1,.13-2.13.19-3.36.19-5.18,0-10.48-1.14-10.53-1.15l-6.89-1.5h0Z"/>
      </g>
      <path class="cls-12" d="m308.58,128.16s19.96-18.91,22.98-20.79,5.44.44,6.62,4.65,2.18,11.77,1.98,19.58c-.2,7.81-2.89,11.72-2.89,11.72,0,0,2.16-.27,6.03,1.29,2.15.87,5.04,4.1,4.08,6.4s-3.81,4.02-3.81,4.02c0,0,.84-.31,4.99,1.24s6.97,5.49,6.97,5.49c0,0-7.27.07-15.2.52-7.93.44-14.98,6.23-16.31,8.75s-2.18,5.12-4.89,8.23c-2.53,2.89-6.74,5-12.63,5.01-5.89,0-9.4-2.11-11.93-5.01-2.72-3.11-3.56-5.71-4.89-8.23s-8.38-8.31-16.31-8.75-15.2-.52-15.2-.52c0,0,2.82-3.93,6.97-5.49s4.99-1.24,4.99-1.24c0,0-2.84-1.72-3.81-4.02s1.93-5.54,4.08-6.4c3.87-1.56,6.03-1.29,6.03-1.29,0,0-2.69-3.91-2.89-11.72s.79-15.37,1.98-19.58,3.61-6.53,6.62-4.65,22.34,20.86,22.34,20.86c0,0,1.24-.69,4.1-.07Z"/>
      <g>
        <path class="cls-13" d="m280.76,112.69s0,17.64,2.3,19.4,6.9,0,9.21-3.53c2.3-3.53-11.51-15.88-11.51-15.88Z"/>
        <path class="cls-13" d="m332.92,114.87s.15,14.24-1.88,17.02-10.17-1.49-9.8-4.82c.37-3.33,11.68-12.19,11.68-12.19Z"/>
        <g>
          <path class="cls-7" d="m312.06,156.04c-.03-.1-.74-2.51,1.7-7.4,2.68-5.36,7.67-6.06,8.23-6.12l.2-.02c.67-.07,1.36-.15,2.07-.15.94,0,1.74.14,2.44.43.42.17,1.82.84,2.33,2.2.41,1.09.17,2.59-.92,3.11-.79.38-1.58.42-2.48.46-.71.03-1.52.07-2.49.28-2.51.54-3.03.77-5.56,2.38-3.66,2.34-5.32,4.82-5.34,4.84l-.12.17-.06-.2Z"/>
          <path class="cls-6" d="m324.26,142.45c.81,0,1.62.1,2.4.42.51.21,1.8.87,2.27,2.14.38,1.03.17,2.48-.87,2.98-1.39.67-2.73.26-4.95.74-2.51.54-3.04.76-5.59,2.4-3.72,2.38-5.37,4.87-5.37,4.87,0,0-.76-2.42,1.69-7.32,2.45-4.9,6.94-5.93,8.15-6.06.71-.08,1.48-.17,2.26-.17m0-.2c-.72,0-1.41.08-2.09.15l-.19.02c-.57.06-5.61.76-8.31,6.17-2.46,4.92-1.73,7.37-1.7,7.47l.13.4.23-.35s1.67-2.48,5.31-4.81c2.51-1.61,3.03-1.83,5.52-2.37.97-.21,1.77-.25,2.47-.28.92-.04,1.71-.08,2.52-.47,1.14-.55,1.39-2.11.97-3.23-.52-1.39-1.95-2.08-2.38-2.26-.71-.29-1.52-.44-2.48-.44h0Z"/>
        </g>
        <g>
          <path class="cls-7" d="m300.15,156.06s-1.68-2.5-5.34-4.84c-2.53-1.62-3.04-1.84-5.56-2.38-.97-.21-1.78-.25-2.49-.28-.91-.04-1.69-.08-2.48-.46-1.09-.52-1.33-2.02-.92-3.11.5-1.35,1.91-2.03,2.33-2.2.7-.29,1.5-.43,2.44-.43.71,0,1.41.08,2.07.15l.2.02c.56.06,5.55.76,8.23,6.12,2.44,4.88,1.73,7.3,1.7,7.4l-.06.2-.12-.17Z"/>
          <path class="cls-6" d="m288.13,142.45c.78,0,1.55.09,2.26.17,1.22.13,5.7,1.16,8.15,6.06,2.45,4.9,1.69,7.32,1.69,7.32,0,0-1.65-2.49-5.37-4.87-2.55-1.63-3.08-1.85-5.59-2.4-2.22-.48-3.56-.07-4.95-.74-1.04-.5-1.25-1.96-.87-2.98.47-1.27,1.76-1.93,2.27-2.14.78-.32,1.6-.42,2.4-.42m0-.2h0c-.96,0-1.77.14-2.48.44-.43.18-1.86.86-2.38,2.26-.42,1.13-.17,2.69.97,3.23.81.39,1.6.43,2.52.47.71.03,1.51.07,2.47.28,2.5.54,3.01.76,5.52,2.37,3.64,2.33,5.29,4.79,5.31,4.81l.23.35.13-.4c.03-.1.76-2.55-1.7-7.47-2.71-5.41-7.75-6.11-8.31-6.17l-.19-.02c-.67-.07-1.37-.15-2.09-.15h0Z"/>
        </g>
        <path class="cls-14" d="m315.32,172.7c0,3.28-3.8,5.59-8.49,5.59s-8.49-2.32-8.49-5.59c0-1.63.84-3.26,2.46-4.18,1.84-1.04,3.88-1.17,6.24-1.17s4.88.6,5.95,1.25c1.17.73,2.34,2.51,2.34,4.09Z"/>
      </g>
      <g>
        <g>
          <g>
            <path class="cls-7" d="m326.8,201.16c1.01,4.24,2.17,8.58,4.38,12.37.19.33.71.03.52-.3-2.19-3.75-3.32-8.04-4.32-12.23-.09-.38-.67-.22-.58.16h0Z"/>
            <path class="cls-7" d="m325.98,203.98c.31,1.52.76,3.01,1.29,4.47s1.05,2.95,1.9,4.25c.21.32.73.02.52-.3-.85-1.3-1.37-2.8-1.89-4.25s-.94-2.85-1.24-4.32c-.08-.38-.66-.22-.58.16h0Z"/>
            <path class="cls-7" d="m323.89,203.08c.53,2.73,1.32,5.41,2.31,8,.14.36.72.2.58-.16-.99-2.59-1.78-5.27-2.31-8-.07-.38-.65-.22-.58.16h0Z"/>
            <path class="cls-7" d="m322.74,205.3c.39,1.7,1.15,3.29,1.6,4.97.1.37.68.21.58-.16-.45-1.68-1.21-3.27-1.6-4.97-.09-.38-.67-.22-.58.16h0Z"/>
            <path class="cls-7" d="m331.82,214.87c.23.95.43,1.92.6,2.88s.33,1.94.3,2.92c-.01.39.59.39.6,0,.03-1-.14-2.01-.3-2.99s-.37-1.99-.61-2.97c-.09-.38-.67-.22-.58.16h0Z"/>
            <path class="cls-7" d="m332.71,223.1c0,2.09-.12,4.18-.33,6.26-.04.38.56.38.6,0,.21-2.08.33-4.17.33-6.26,0-.39-.6-.39-.6,0h0Z"/>
            <path class="cls-7" d="m331.19,225.83c-.04.82-.06,1.63-.08,2.45s-.05,1.64,0,2.45c.02.38.62.39.6,0-.05-.81-.02-1.64,0-2.45s.05-1.63.08-2.45c.02-.39-.58-.39-.6,0h0Z"/>
            <path class="cls-7" d="m330.16,214.38c.19.67.39,1.34.52,2.02s.15,1.36.16,2.04c0,.39.61.39.6,0-.01-.72-.04-1.44-.17-2.15s-.34-1.38-.53-2.07c-.1-.37-.68-.21-.58.16h0Z"/>
            <path class="cls-7" d="m328.53,213.68c.3.89.46,1.83.6,2.76.15,1,.27,2.01.27,3.02,0,.39.6.39.6,0,0-1.04-.13-2.07-.28-3.09-.14-.95-.31-1.92-.61-2.84-.12-.36-.7-.21-.58.16h0Z"/>
          </g>
          <g>
            <g>
              <path class="cls-7" d="m394.76,211.63c.27,2.47,1.14,4.75,2.09,7.02.15.35.73.2.58-.16-.92-2.21-1.81-4.45-2.07-6.86-.04-.38-.64-.38-.6,0h0Z"/>
              <path class="cls-7" d="m393.43,212.03c.17.98.3,1.96.5,2.94s.5,1.9.89,2.81c.15.35.67.05.52-.3-.78-1.79-1.01-3.7-1.33-5.6-.06-.38-.64-.22-.58.16h0Z"/>
              <path class="cls-7" d="m391.89,212.47c.26,1.01.42,2.03.71,3.03.27.94.57,1.88.98,2.76.16.35.68.05.52-.3-.4-.86-.68-1.79-.95-2.7-.28-.98-.44-1.97-.69-2.95-.1-.37-.67-.22-.58.16h0Z"/>
              <path class="cls-7" d="m385.45,213.75c-.01.4,0,.78.06,1.18.07.48.2.95.32,1.41.1.37.68.21.58-.16-.12-.46-.25-.92-.32-1.39,0-.02,0-.04,0-.06,0-.04,0,.04,0-.02,0-.04-.01-.09-.01-.13,0-.09-.01-.17-.02-.26,0-.19,0-.39,0-.58.01-.39-.59-.39-.6,0h0Z"/>
              <path class="cls-7" d="m386.69,213.43c0,.21.04.43.08.63.06.33.13.65.2.97.15.66.31,1.33.5,1.98.11.37.69.21.58-.16-.19-.64-.34-1.29-.49-1.94-.07-.32-.14-.64-.2-.97-.04-.24-.07-.31-.07-.53,0-.39-.59-.39-.6,0h0Z"/>
              <path class="cls-7" d="m389.15,215.4c-.08-.33-.19-.66-.27-.99-.05-.19-.1-.37-.13-.56,0-.04-.02-.09-.02-.13,0-.02-.02-.14-.01-.06,0-.08-.02-.15-.02-.23,0-.16-.14-.3-.3-.3s-.3.14-.3.3c0,.38.1.76.2,1.12.09.34.19.67.28,1.01.04.16.21.25.37.21s.25-.21.21-.37h0Z"/>
              <path class="cls-7" d="m391.17,217.64c-.37-.78-.58-1.65-.78-2.49-.15-.65-.32-1.37-.37-1.99-.03-.38-.63-.39-.6,0,.06.72.23,1.45.39,2.15.21.89.45,1.8.84,2.63.16.35.68.05.52-.3h0Z"/>
            </g>
            <path class="cls-7" d="m392.33,216.61c-.49-1.21-.85-2.44-1-3.74-.02-.16-.12-.3-.3-.3-.15,0-.32.14-.3.3.08.64.18,1.28.34,1.9.18.68.42,1.34.68,2,.06.15.2.26.37.21.14-.04.27-.22.21-.37h0Z"/>
          </g>
          <g>
            <path class="cls-7" d="m432.07,191.57c1.73,1.73,1.88,4.2,1.93,6.51.03,1.47-.07,2.89-.25,4.34-.32,2.68-.85,5.45-.75,8.15.01.38.61.39.6,0-.11-2.92.5-5.9.83-8.78.2-1.73.23-3.45.12-5.19-.12-2.01-.59-3.99-2.05-5.45-.27-.27-.7.15-.42.42h0Z"/>
            <path class="cls-7" d="m430.87,192.63c.88,1.22,1.36,2.42,1.5,3.92.12,1.26.16,2.56.05,3.82-.17,1.9-.52,3.79-.79,5.68-.05.38.53.54.58.16.28-1.98.66-3.96.82-5.95.11-1.38.05-2.81-.11-4.18s-.7-2.6-1.53-3.75c-.22-.31-.75-.01-.52.3h0Z"/>
            <path class="cls-7" d="m429.99,193.9c.78,1.32,1.03,2.8,1.13,4.31s.05,3.03-.31,4.51c-.09.38.49.54.58.16.38-1.58.43-3.21.32-4.83s-.4-3.09-1.21-4.46c-.2-.33-.71-.03-.52.3h0Z"/>
          </g>
          <g>
            <path class="cls-7" d="m262.62,161.41c1.11-.6,2.3-1.04,3.5-1.43,1.03-.34,2.09-.63,3.15-.87.38-.08.22-.66-.16-.58-1.1.24-2.18.55-3.25.9-1.21.4-2.42.85-3.55,1.46-.34.18-.04.7.3.52h0Z"/>
            <path class="cls-7" d="m267.94,161.55c1.94-.52,3.92-.91,5.94-.92.39,0,.39-.6,0-.6-2.07,0-4.1.41-6.09.94-.37.1-.21.68.16.58h0Z"/>
            <path class="cls-7" d="m260.36,160.71c3.57-1.74,7.36-3.25,11.32-3.82.38-.05.22-.63-.16-.58-4.01.58-7.84,2.11-11.46,3.88-.35.17-.04.69.3.52h0Z"/>
            <path class="cls-7" d="m294.91,182.2h1.43c.16,0,.31-.14.3-.3s-.13-.3-.3-.3h-1.43c-.16,0-.31.14-.3.3s.13.3.3.3h0Z"/>
            <path class="cls-7" d="m295.85,183.5c.66-.03,1.31-.1,1.97-.19.16-.02.25-.23.21-.37-.06-.17-.2-.23-.37-.21-.58.08-1.2.14-1.81.17-.16,0-.31.13-.3.3,0,.16.13.31.3.3h0Z"/>
            <path class="cls-7" d="m296.73,184.81c.59-.14,1.23-.16,1.85-.21.38-.03.75-.05,1.13-.06.15,0,.3,0,.46,0,.06,0,.12,0,.18,0,.03,0,.2.02.1,0,.16.02.32-.04.37-.21.04-.14-.05-.35-.21-.37-.66-.09-1.36-.02-2.02.03s-1.36.08-2.01.23c-.38.09-.22.67.16.58h0Z"/>
            <path class="cls-7" d="m355.53,163.43c-7.83-.25-15.82-.66-23.39,1.69-.37.11-.21.69.16.58,7.52-2.33,15.46-1.92,23.23-1.67.39.01.39-.59,0-.6h0Z"/>
            <path class="cls-7" d="m353.21,164.84c-4.47-.29-8.92-.34-13.37.12-4.19.43-8.2,1.57-12.23,2.73-.37.11-.21.69.16.58,4.08-1.18,8.12-2.31,12.35-2.74s8.72-.37,13.09-.09c.39.03.38-.57,0-.6h0Z"/>
            <path class="cls-7" d="m335.52,168.44c-3.78.92-7.58,1.97-11.2,3.41-.35.14-.2.72.16.58,3.61-1.44,7.42-2.49,11.2-3.41.37-.09.22-.67-.16-.58h0Z"/>
            <path class="cls-7" d="m347.55,167.49c-2.79-.07-5.55-.17-8.31.37-.38.07-.22.65.16.58,2.71-.53,5.42-.42,8.15-.35.39,0,.39-.59,0-.6h0Z"/>
            <path class="cls-7" d="m332.78,170.43c-3.54.99-7.17,2.11-10.34,3.99-.33.2-.03.72.3.52,3.13-1.86,6.71-2.96,10.2-3.93.37-.1.21-.68-.16-.58h0Z"/>
            <path class="cls-7" d="m322.25,176.68c2.88-1.48,5.91-2.63,9.01-3.57.37-.11.21-.69-.16-.58-3.14.96-6.22,2.13-9.15,3.63-.34.18-.04.69.3.52h0Z"/>
            <path class="cls-7" d="m327.18,175.66c-2.18.53-4.25,1.46-6.36,2.2-.36.13-.21.71.16.58,2.11-.74,4.18-1.67,6.36-2.2.38-.09.22-.67-.16-.58h0Z"/>
            <path class="cls-7" d="m324.32,178.48c-1.92.27-3.8.79-5.65,1.38-.37.12-.21.7.16.58,1.85-.59,3.73-1.1,5.65-1.38.38-.05.22-.63-.16-.58h0Z"/>
            <path class="cls-7" d="m322.59,180.34c-1.83.21-3.67.5-5.44.99-.37.1-.21.68.16.58,1.73-.47,3.51-.77,5.28-.97.38-.04.38-.64,0-.6h0Z"/>
            <path class="cls-7" d="m322.01,182.2c-1.69.12-3.38.46-5.04.76s-3.38.63-5.06,1.01c-.38.09-.22.66.16.58,1.63-.37,3.28-.68,4.93-.99s3.33-.65,5.01-.76c.38-.03.39-.63,0-.6h0Z"/>
            <path class="cls-7" d="m298.87,186.29c2.77-.09,5.52-.47,8.3-.57,4-.14,7.9-.52,11.85-1.18.38-.06.22-.64-.16-.58-3.96.66-7.87,1.01-11.88,1.16-2.71.1-5.4.47-8.11.56-.39.01-.39.61,0,.6h0Z"/>
            <path class="cls-7" d="m351.3,165.87c-8.65-.52-17.56.82-25.65,3.97-.36.14-.2.72.16.58,8.04-3.13,16.89-4.46,25.49-3.95.39.02.38-.58,0-.6h0Z"/>
            <path class="cls-7" d="m302.58,187.8c2.22-.46,4.53-.49,6.78-.71s4.4-.47,6.61-.48c.39,0,.39-.6,0-.6-2.28.01-4.55.28-6.82.5s-4.52.25-6.73.72c-.38.08-.22.66.16.58h0Z"/>
            <path class="cls-7" d="m305.2,189.03c2.55-.19,5.11-.39,7.67-.54.38-.02.39-.62,0-.6-2.56.15-5.11.35-7.67.54-.38.03-.39.63,0,.6h0Z"/>
          </g>
          <g>
            <path class="cls-7" d="m499.85,244.24c1.26.33,2.52.63,3.82.74,1.36.11,2.74.04,4.1,0,.39-.01.39-.61,0-.6-1.34.04-2.68.11-4.02.01s-2.52-.4-3.75-.73c-.37-.1-.53.48-.16.58h0Z"/>
            <path class="cls-7" d="m499.71,244.16c.93.77,1.98,1.39,3,2.02.72.45,1.42.94,2.16,1.36,1.37.77,2.76,1.48,4.15,2.21.34.18.64-.34.3-.52-1.36-.72-2.73-1.42-4.08-2.17-.69-.38-1.33-.83-1.99-1.25-1.06-.66-2.16-1.28-3.12-2.08-.3-.24-.72.18-.42.42h0Z"/>
            <path class="cls-7" d="m504.77,245.95c.99.71,2.12,1.16,3.25,1.59.15.06.33-.06.37-.21.05-.17-.06-.31-.21-.37-1.08-.41-2.16-.85-3.11-1.53-.13-.09-.33-.02-.41.11-.09.15-.02.32.11.41h0Z"/>
            <path class="cls-7" d="m504.84,245.98c.75.12,1.5.23,2.26.14.16-.02.3-.12.3-.3,0-.15-.14-.32-.3-.3-.7.08-1.4,0-2.1-.12-.16-.03-.32.04-.37.21-.04.14.05.34.21.37h0Z"/>
            <path class="cls-7" d="m482.91,250.66c-1.93-1.12-3.76-2.61-5.35-4.17-1.9-1.86-3.67-3.85-5.35-5.91-.24-.3-.67.13-.42.42,1.71,2.11,3.53,4.15,5.48,6.04,1.59,1.54,3.42,3.02,5.34,4.13.33.19.64-.32.3-.52h0Z"/>
            <path class="cls-7" d="m480.84,247.04c-.86-.69-1.66-1.46-2.43-2.24s-1.52-1.6-2.21-2.46c-.24-.3-.66.12-.42.42.69.86,1.44,1.67,2.21,2.46s1.57,1.55,2.43,2.24c.3.24.73-.18.42-.42h0Z"/>
            <path class="cls-7" d="m477.12,240.31c1.22,1.63,2.37,3.33,3.78,4.81,1.28,1.34,2.69,2.61,4.12,3.79,1.63,1.35,3.58,2.27,5.28,3.53.31.23.61-.29.3-.52-1.65-1.23-3.56-2.14-5.16-3.44-1.38-1.12-2.72-2.36-3.96-3.63-1.44-1.48-2.6-3.21-3.84-4.85-.23-.3-.75,0-.52.3h0Z"/>
            <path class="cls-7" d="m483.7,244.95c1.91,2.05,3.94,4.13,6.24,5.75,1.85,1.29,3.88,2.64,6.02,3.39.36.13.52-.45.16-.58-2.08-.73-4.08-2.07-5.88-3.33-2.26-1.58-4.24-3.64-6.12-5.65-.26-.28-.69.14-.42.42h0Z"/>
            <path class="cls-7" d="m488.45,236.48c-.91-.73-1.82-1.47-2.64-2.3-.86-.88-1.54-1.88-2.2-2.91-.21-.32-.73-.02-.52.3.67,1.04,1.36,2.07,2.23,2.96s1.77,1.62,2.7,2.37c.3.24.72-.18.42-.42h0Z"/>
            <path class="cls-7" d="m491.98,238.18c-1.01-.79-1.95-1.68-2.87-2.57s-1.82-1.81-2.68-2.77c-.26-.29-.68.14-.42.42.85.96,1.76,1.88,2.68,2.77s1.86,1.78,2.87,2.57c.3.24.73-.19.42-.42h0Z"/>
            <path class="cls-7" d="m489.49,235.26c1.97,1.82,3.96,3.78,6.47,4.82.36.15.51-.43.16-.58-2.41-1-4.32-2.93-6.21-4.67-.28-.26-.71.16-.42.42h0Z"/>
          </g>
          <g>
            <path class="cls-7" d="m441.02,193.61c1.57,1.23,2.24,3.48,2.86,5.3s1.06,3.58,1.36,5.42c.69,4.24.69,8.56.68,12.85-.01,4.92-.71,10.64,3.05,14.45.27.28.7-.15.42-.42-1.81-1.83-2.55-4.05-2.76-6.58-.29-3.45-.09-6.94-.12-10.39-.03-3.88-.18-7.8-.98-11.61-.4-1.9-.97-3.76-1.69-5.56-.57-1.42-1.15-2.91-2.39-3.88-.3-.24-.73.19-.42.42h0Z"/>
            <path class="cls-7" d="m448.88,204.28c.44,2.97.67,5.91.6,8.92,0,.39.59.39.6,0,.07-3.06-.17-6.06-.62-9.08-.06-.38-.64-.22-.58.16h0Z"/>
            <path class="cls-7" d="m446.46,200.55c1.02,3.3,1.2,6.94,1.36,10.36.19,4.16-.44,8.38.27,12.5.07.38.64.22.58-.16-.4-2.33-.29-4.59-.21-6.94.07-2.04.03-4.08-.08-6.11-.18-3.24-.38-6.69-1.35-9.81-.11-.37-.69-.21-.58.16h0Z"/>
          </g>
        </g>
        <path class="cls-7" d="m384.05,213.75c-.01.35.07.71.13,1.05.09.48.21.95.35,1.42.11.37.69.21.58-.16-.13-.46-.25-.92-.34-1.38-.02-.1-.04-.2-.06-.3,0-.04-.01-.09-.02-.13,0-.02,0-.04,0-.06,0,0-.01-.08,0-.05,0-.02-.02-.14-.02-.2s0-.12,0-.18c.01-.39-.59-.39-.6,0h0Z"/>
        <path class="cls-7" d="m396.2,211.45c.34,1.97,1,3.82,1.8,5.65.15.35.67.05.52-.3-.78-1.78-1.41-3.58-1.74-5.51-.07-.38-.64-.22-.58.16h0Z"/>
      </g>
    </g>
  </g>
</svg>