<?xml version="1.0" encoding="UTF-8"?>
<svg xmlns="http://www.w3.org/2000/svg" viewBox="0 0 1172.43 224.68">
  <defs>
    <style>
      .cls-1 {
        fill: #263a38;
      }

      .cls-1, .cls-2, .cls-3 {
        stroke-width: 0px;
      }

      .cls-4, .cls-5, .cls-6, .cls-7 {
        stroke-miterlimit: 10;
      }

      .cls-4, .cls-5, .cls-7 {
        stroke-width: 2px;
      }

      .cls-4, .cls-6 {
        stroke: #f4eded;
      }

      .cls-4, .cls-6, .cls-3 {
        fill: #331b0e;
      }

      .cls-2, .cls-5 {
        fill: #f4eded;
      }

      .cls-5, .cls-7 {
        stroke: #331b0e;
      }

      .cls-6 {
        stroke-width: .2px;
      }

      .cls-7 {
        fill: none;
      }
    </style>
  </defs>
  <g id="Bakrunnur">
    <rect class="cls-1" width="1172.43" height="224.68"/>
  </g>
  <g id="Layer_1" data-name="Layer 1">
    <g>
      <g>
        <g>
          <path class="cls-2" d="m69.01,162.01v-6.59l1.16-.08c12.39-.86,13.12-1.62,13.12-13.5v-59c0-12.27-.99-12.37-13.15-13.51l-1.13-.11v-6.56h51.57c15.21,0,20.02-.17,22.31-.3l1.28-.07.04,1.28c.17,5.64.82,15.98,1.58,22.85l.14,1.23-7.15.87-.33-.96c-1.5-4.37-2.71-7.69-4.77-10.73-2.73-4.57-4.56-5.71-13.25-5.71h-16.98q-3.83,0-3.83,3.52v33.17h18.43c10.82,0,11.11-1.28,13.39-11.25l.22-.97h7.01v33.64h-7.2l-.2-1.01c-1.97-9.94-2.67-11.81-13.22-11.81h-18.43v25.42c0,12.28,1.12,12.37,14.89,13.5l1.15.09v6.57h-46.63Z"/>
          <path class="cls-3" d="m142.96,63.61c.16,5.36.79,15.79,1.59,22.95l-4.92.6c-1.43-4.17-2.7-7.75-4.92-11.03-3.02-5.07-5.4-6.26-14.29-6.26h-16.98c-4.6,0-5.08.45-5.08,4.77v34.42h19.68c11.43,0,12.22-1.79,14.6-12.22h4.76v31.14h-4.92c-2.06-10.43-3.17-12.81-14.45-12.81h-19.68v26.67c0,12.96,1.59,13.56,16.03,14.75v4.17h-44.13v-4.17c12.86-.89,14.29-1.94,14.29-14.75v-59c0-12.96-1.59-13.56-14.29-14.75v-4.17h50.32c14.29,0,19.68-.15,22.38-.3m2.42-2.64l-2.56.14c-2.28.13-7.07.29-22.24.29h-52.82v8.95l2.27.21c5.55.52,9.02.93,10.4,2.27,1.35,1.31,1.62,4.66,1.62,9.99v59c0,5.37-.26,8.74-1.59,10.08-1.31,1.32-4.52,1.77-10.37,2.18l-2.33.16v9h49.13v-8.97l-2.29-.19c-6.39-.53-10.38-.95-12-2.36-1.3-1.13-1.74-3.63-1.74-9.9v-24.17h17.18c5.11,0,7.61.5,8.93,1.78,1.47,1.44,2.2,4.65,3.06,9.02l.4,2.01h9.47v-36.14h-9.26l-.44,1.94c-1.05,4.6-1.79,7.48-3.15,8.73-1.24,1.13-3.68,1.55-9.01,1.55h-17.18v-31.92c0-1.22.05-1.83.11-2.14.42-.08,1.25-.12,2.47-.12h16.98c8.3,0,9.71.95,12.14,5.04l.04.06.04.06c1.97,2.91,3.16,6.16,4.62,10.43l.66,1.92,2.01-.24,4.92-.6,2.46-.3-.27-2.46c-.76-6.84-1.41-17.13-1.57-22.74l-.08-2.56h0Z"/>
        </g>
        <g>
          <path class="cls-2" d="m233.69,162.01l-.37-.39c-8.06-8.55-16.42-17.77-25.27-27.54-4.6-5.07-9.34-10.3-14.26-15.69-2.84-3.25-4.92-3.87-6.72-3.94v27.08c0,12.14.63,12.79,13.45,13.8l1.15.09v6.58h-44.88v-6.58l1.15-.09c12.52-1,13.14-1.65,13.14-13.8v-58.11c0-12.72-.49-13.24-13.12-14.1l-1.17-.08v-6.59h44.88v6.57l-1.15.1c-11.93,1.01-13.46,1.61-13.46,14.1v24.12c2.44-.7,5.4-2.7,9.34-6.27,9.44-8.39,19.94-18.48,26.76-25.71,2.83-3.01,2.89-4.01,2.79-4.3-.08-.22-.64-.98-4.58-1.5l-5.53-.56v-6.55h41.07v6.54l-1.11.12c-11.86,1.34-15.74,2.16-25.94,12.02-4.7,4.26-16.59,15.14-26.42,24.22,12.23,13.57,29.09,31.79,37.06,39.71,8.04,8.14,9.84,9.08,19.25,10.07l1.12.12v6.55h-27.19Z"/>
          <path class="cls-3" d="m255.66,63.91v4.17c-11.91,1.34-16.03,2.09-26.67,12.37-4.76,4.32-17.14,15.65-27.3,25.03,12.06,13.41,29.68,32.48,37.94,40.68,8.1,8.2,10.16,9.39,20,10.43v4.17h-25.4c-12.22-12.96-25.08-27.42-39.53-43.21-3.23-3.69-5.71-4.35-8-4.35-.3,0-.6.01-.89.03v28.31c0,12.96,1.43,14.01,14.6,15.05v4.17h-42.38v-4.17c13.02-1.04,14.29-2.09,14.29-15.05v-58.11c0-13.41-1.11-14.45-14.29-15.35v-4.17h42.38v4.17c-12.38,1.04-14.6,2.09-14.6,15.35v25.63c3.17-.3,6.83-2.68,11.43-6.85,8.89-7.9,19.52-18.03,26.83-25.78,4.76-5.07,4.29-7-2.54-7.9l-4.44-.45v-4.17h38.57m2.5-2.5h-43.57v8.93l2.25.23,4.41.44c1.94.26,2.89.55,3.33.74-.23.46-.82,1.36-2.32,2.96-6.79,7.21-17.26,17.26-26.67,25.62-2.93,2.66-5.31,4.42-7.27,5.38v-22.28c0-6.2.53-9.13,1.9-10.47,1.45-1.41,4.51-1.89,10.41-2.39l2.29-.19v-8.97h-47.38v9.01l2.33.16c5.93.4,9.17.85,10.43,2.2,1.29,1.37,1.52,4.66,1.52,10.66v58.11c0,5.61-.25,8.9-1.56,10.26-1.3,1.34-4.53,1.83-10.43,2.3l-2.3.18v8.98h47.38v-8.98l-2.3-.18c-6.01-.48-9.31-.97-10.67-2.33-1.37-1.38-1.63-4.66-1.63-10.23v-25.65c1.19.32,2.62,1.15,4.51,3.31l.02.02.02.02c4.92,5.38,9.67,10.62,14.26,15.68,8.86,9.77,17.22,19,25.29,27.56l.74.78h28.98v-8.92l-2.24-.24c-9.11-.97-10.66-1.78-18.49-9.7-7.8-7.74-24.07-25.31-36.21-38.76,9.64-8.89,20.95-19.24,25.47-23.34l.03-.03.03-.03c10.35-10.01,14.09-10.43,25.21-11.68l2.22-.25v-8.91h0Z"/>
        </g>
        <g>
          <path class="cls-2" d="m361.38,163.2c-1.86,0-3.5-.12-5.24-.25l-.73-.05c-12.42-.8-18.66-4.03-25.67-13.31-4.23-5.47-8.3-11.75-12.24-17.82-1.53-2.37-3.03-4.67-4.47-6.83-2.92-4.39-4.65-5.11-12.29-5.11h-4.31v22.14c0,11.83.94,12.2,13.31,13.36l1.13.11v6.56h-44.88v-6.55l1.12-.11c12.42-1.26,13.16-1.34,13.16-13.36v-59.45c0-11.8-.99-11.91-13.17-13.21l-1.12-.12v-6.54h41.73c12.3,0,20.09,1.57,26.05,5.25,7.34,4.37,11.39,11.73,11.39,20.73,0,11.48-6.87,20.52-19.89,26.21,3.18,4.99,9.3,13.92,13.62,20,5.97,8.03,8.88,11.59,12.41,15.2,4.41,4.45,8.03,5.79,10.99,6.51l1.11.27-.97,6.37h-1.07Zm-58.57-50.93c8.2,0,13.04-1.17,16.69-4.05,5.65-3.95,8.25-9.44,8.25-17.35,0-18.51-15.56-20.5-22.24-20.5-5.68,0-7.28.93-7.63,1.21-.99.72-1.44,1.71-1.44,5.43v35.26h6.37Z"/>
          <path class="cls-3" d="m307.72,63.91c11.59,0,19.37,1.34,25.4,5.07,6.51,3.87,10.79,10.58,10.79,19.67,0,12.81-8.73,20.86-20.48,25.63,2.86,4.62,9.68,14.6,14.45,21.31,5.87,7.9,8.89,11.62,12.54,15.35,4.29,4.32,7.94,5.96,11.59,6.85l-.63,4.17c-2.06,0-3.81-.15-5.87-.3-11.59-.74-17.78-3.58-24.76-12.81-5.87-7.6-11.59-16.99-16.67-24.59-3.17-4.77-5.24-5.66-13.33-5.66h-5.56v23.39c0,12.67,1.75,13.41,14.44,14.6v4.17h-42.38v-4.17c13.18-1.34,14.29-1.94,14.29-14.6v-59.45c0-12.67-1.75-13.11-14.29-14.45v-4.17h40.48m-12.54,49.62h7.62c8.25,0,13.49-1.19,17.46-4.32,6.19-4.32,8.73-10.28,8.73-18.33,0-15.94-11.27-21.75-23.49-21.75-4.6,0-7.3.6-8.41,1.49-1.43,1.04-1.9,2.53-1.9,6.41v36.51m12.54-52.12h-42.98v8.92l2.23.24c5.54.59,9.01,1.02,10.41,2.33,1.21,1.13,1.64,3.65,1.64,9.64v59.45c0,5.52-.23,8.55-1.46,9.77-1.34,1.32-4.89,1.77-10.58,2.35l-2.25.23v8.93h47.38v-8.95l-2.27-.21c-5.39-.51-9.04-.94-10.5-2.32-1.24-1.18-1.68-3.74-1.68-9.79v-20.89h3.06c7.62,0,8.68.69,11.25,4.55,1.44,2.15,2.91,4.42,4.46,6.82,3.95,6.09,8.04,12.39,12.31,17.91,7.17,9.48,13.88,12.96,26.58,13.78l.7.05c1.76.13,3.42.25,5.33.25h2.15l.32-2.12.63-4.17.34-2.26-2.22-.54c-2.93-.72-6.22-1.96-10.41-6.19-3.48-3.55-6.35-7.07-12.29-15.06-3.98-5.6-9.48-13.61-12.79-18.72,12.64-5.93,19.3-15.13,19.3-26.75,0-9.46-4.27-17.2-12.02-21.82-6.14-3.79-14.13-5.42-26.68-5.42h0Zm-10.04,49.62v-34.01c0-3.75.51-4.12.88-4.39l.05-.03.05-.04s1.24-.94,6.85-.94c7.84,0,20.99,2.5,20.99,19.25,0,7.56-2.36,12.58-7.66,16.28l-.06.04-.06.05c-3.41,2.69-8.02,3.78-15.91,3.78h-5.12Z"/>
        </g>
      </g>
      <g>
        <g>
          <path class="cls-2" d="m913.23,163.2c-1.75,0-3.3-.12-4.93-.25l-.68-.05c-11.7-.8-17.57-4.04-24.17-13.34-3.97-5.47-7.79-11.75-11.49-17.82-1.44-2.36-2.84-4.67-4.19-6.82-2.61-4.18-3.89-5.08-11.46-5.08h-3.96v22.14c0,12.12,1.18,12.23,12.43,13.36l1.13.11v6.55h-42.28v-6.54l1.12-.12c11.83-1.28,12.29-1.33,12.29-13.36v-59.45c0-11.81-.93-11.92-12.3-13.21l-1.11-.13v-6.54h39.25c11.58,0,18.91,1.58,24.53,5.27,6.89,4.37,10.69,11.73,10.69,20.71,0,11.47-6.45,20.5-18.68,26.2,2.98,4.98,8.75,13.94,12.81,20.04,5.61,8.03,8.33,11.59,11.65,15.19,4.13,4.44,7.51,5.77,10.27,6.49l1.08.28-.91,6.35h-1.08Zm-54.98-50.93c7.66,0,12.18-1.17,15.59-4.03,5.3-3.95,7.75-9.45,7.75-17.37,0-18.51-14.55-20.5-20.8-20.5-5.28,0-6.76.91-7.08,1.19-.91.71-1.35,1.73-1.35,5.46v35.26h5.9Z"/>
          <path class="cls-3" d="m862.87,63.91c10.88,0,18.18,1.34,23.84,5.07,6.11,3.87,10.13,10.58,10.13,19.67,0,12.81-8.2,20.86-19.22,25.63,2.68,4.62,9.09,14.6,13.56,21.31,5.51,7.9,8.34,11.62,11.77,15.35,4.02,4.32,7.45,5.96,10.88,6.85l-.6,4.17c-1.94,0-3.58-.15-5.51-.3-10.88-.74-16.69-3.58-23.24-12.81-5.51-7.6-10.88-16.99-15.64-24.59-2.98-4.77-4.92-5.66-12.52-5.66h-5.21v23.39c0,12.67,1.64,13.41,13.56,14.6v4.17h-39.78v-4.17c12.37-1.34,13.41-1.94,13.41-14.6v-59.45c0-12.67-1.64-13.11-13.41-14.45v-4.17h38m-11.77,49.62h7.15c7.75,0,12.67-1.19,16.39-4.32,5.81-4.32,8.2-10.28,8.2-18.33,0-15.94-10.58-21.75-22.05-21.75-4.32,0-6.85.6-7.9,1.49-1.34,1.04-1.79,2.53-1.79,6.41v36.51m11.77-52.12h-40.5v8.9l2.22.25c5.15.59,8.37,1.01,9.64,2.27,1.29,1.28,1.55,4.66,1.55,9.7v59.45c0,5.55-.21,8.6-1.38,9.83-1.22,1.28-4.51,1.72-9.8,2.29l-2.23.24v8.92h44.78v-8.93l-2.25-.23c-5.01-.5-8.39-.93-9.72-2.27-1.32-1.33-1.59-4.76-1.59-9.84v-20.89h2.71c7.03,0,8.02.68,10.4,4.49,1.35,2.15,2.73,4.41,4.19,6.81,3.71,6.1,7.55,12.4,11.55,17.92,6.76,9.52,13.09,13.02,25.1,13.84l.66.05c1.66.13,3.22.25,5.03.25h2.17l.31-2.15.6-4.17.32-2.21-2.16-.56c-2.72-.71-5.77-1.94-9.68-6.14-3.26-3.54-5.96-7.07-11.54-15.05-3.76-5.64-8.96-13.7-12.06-18.8,11.89-5.94,18.15-15.13,18.15-26.73,0-9.43-4.01-17.16-11.29-21.78-5.8-3.82-13.34-5.46-25.18-5.46h0Zm-9.27,49.62v-34.01c0-3.79.48-4.16.82-4.43l.05-.04.05-.04s1.15-.89,6.27-.89c7.3,0,19.55,2.5,19.55,19.25,0,7.59-2.22,12.63-7.19,16.32l-.06.04-.06.05c-3.16,2.65-7.44,3.74-14.78,3.74h-4.65Z"/>
        </g>
        <g>
          <path class="cls-2" d="m939.62,163.65l-.3-.82c-5.12-14-11.01-28.62-16.71-42.74-1.28-3.18-2.56-6.35-3.83-9.52-3.35-8.46-4.25-8.86-11.4-9.96l-1.06-.16v-6.35h32.9v6.37l-1.09.14c-2.88.37-5.62.83-6.16,1.73-.47.78.27,2.94,1.07,5.09,2.68,7.4,7.05,18.69,12.99,33.59,5.2-12.88,9.43-23.51,12.37-32.07,1.09-3.14,1.6-5.16.96-6.15-.66-1.04-2.88-1.68-7.66-2.18l-1.12-.12v-6.4h29.62v6.37l-1.09.14c-7.38.96-8.17,1.64-11.98,10.43-1.17,2.84-2.56,6.17-4.1,9.84-4.97,11.9-11.16,26.7-17.04,41.97l-.31.8h-6.05Z"/>
          <path class="cls-3" d="m978.94,95.35v4.02c-8.05,1.04-9.09,2.23-12.96,11.17-4.92,11.92-13.41,31.74-21.16,51.85h-4.32c-6.26-17.13-13.56-34.87-20.56-52.3-3.43-8.64-4.62-9.54-12.37-10.73v-4.02h30.4v4.02c-8.2,1.04-8.49,2.09-6.11,8.49,3.73,10.28,9.98,26.08,14.16,36.5,5.36-13.26,10.28-25.48,13.56-35.01,2.53-7.3,2.09-8.94-7.75-9.98v-4.02h27.12m2.5-2.5h-32.12v8.77l2.24.24c5.33.57,6.51,1.25,6.74,1.61.29.45-.08,2.16-1.09,5.07-2.71,7.89-6.52,17.55-11.18,29.12-5.35-13.46-9.32-23.75-11.82-30.64-.31-.84-1.21-3.26-1.15-4.03.38-.27,1.63-.68,5.23-1.13l2.18-.28v-8.73h-35.4v8.67l2.12.33c6.68,1.03,7.22,1.11,10.42,9.18,1.28,3.18,2.56,6.35,3.84,9.53,5.7,14.12,11.59,28.72,16.7,42.71l.6,1.64h7.78l.62-1.6c5.87-15.25,12.06-30.04,17.03-41.93,1.54-3.67,2.93-7,4.11-9.87,3.64-8.39,4.05-8.75,10.97-9.65l2.18-.28v-8.72h0Z"/>
        </g>
        <g>
          <path class="cls-2" d="m1033.12,161.87c-.21-.24-1.63-1.93-3.71-4.39-6.18-7.31-20.65-24.42-21.41-25.2-2.08-2.37-2.67-2.76-3.43-2.76-.33,0-.89,0-1.43.06v15.53c0,9.37.35,9.4,9.29,10.23l1.13.11v6.56h-35.43v-6.56l1.14-.1c9.23-.83,9.59-1.21,9.59-10.23v-71.22c0-8.75-.17-8.78-9.21-10.09l-1.07-.16v-6.09l1.13-.11c8.12-.78,16.95-3.13,21.72-4.99l1.7-.66v71.28c3.07-.92,5.39-2.33,7.37-4.45,3.28-3.28,8.78-9.92,11.35-13.71,1.57-2.17,1.43-2.76,1.39-2.85-.15-.32-1.08-.92-5.67-1.31l-1.15-.1v-6.52l33.19-1.45v6.4l-1.06.17c-10.03,1.58-12.78,2.54-19.11,9.17-2.69,2.83-8.69,9.63-11.98,13.62,3.97,5.18,17.85,20.93,22.42,25.78,6.86,6.86,8.61,7.22,14.2,7.51l1.19.06v6.61h-1.25c-8.17,0-16.89.15-19.91.3l-.61.03-.4-.46Z"/>
          <path class="cls-3" d="m1001.88,53.63v71.07c4.47-1.04,7.3-2.83,9.54-5.21,3.43-3.43,8.94-10.13,11.47-13.86,3.13-4.32,1.94-5.51-5.21-6.11v-4.17l30.69-1.34v4.02c-10.43,1.64-13.41,2.83-19.82,9.54-2.83,2.98-9.54,10.58-12.67,14.45,2.98,4.17,18.18,21.46,23.1,26.67,7.15,7.15,9.24,7.6,15.05,7.9v4.17c-8.05,0-16.84.15-19.97.3-.89-1.04-24.29-28.76-25.18-29.65-2.09-2.38-2.98-3.13-4.32-3.13-.6,0-1.79,0-2.68.3v16.54c0,9.98.75,10.58,10.43,11.47v4.17h-32.93v-4.17c9.98-.89,10.73-1.94,10.73-11.47v-71.22c0-9.69-1.04-9.98-10.28-11.32v-3.87c7.75-.75,16.69-2.98,22.05-5.07m2.5-3.65l-3.41,1.32c-4.69,1.82-13.39,4.14-21.39,4.91l-2.26.22v8.31l2.14.31c3.52.51,6.31.92,7.17,1.8.81.83.97,3.31.97,7.05v71.22c0,4.05-.15,6.4-.96,7.29-.85.93-3.5,1.34-7.49,1.7l-2.28.2v8.96h37.93v-8.95l-2.27-.21c-3.6-.33-6.43-.66-7.24-1.54-.85-.92-.92-4.04-.92-7.45v-14.34c.07,0,.13,0,.18,0,.32,0,1.03.66,2.44,2.28l.05.06.06.06c.89.95,15.22,17.88,21.33,25.12,2.08,2.46,3.51,4.15,3.72,4.39l.8.93,1.22-.06c3-.14,11.7-.3,19.85-.3h2.5v-9.05l-2.37-.12c-5.05-.26-6.57-.34-13.38-7.14-4.37-4.64-17.13-19.11-21.7-24.87,3.35-4.01,8.83-10.2,11.29-12.79,5.83-6.1,8.06-7.17,18.39-8.79l2.11-.33v-8.77l-2.61.11-30.69,1.34-2.39.1v8.87l2.29.19c2.52.21,3.75.47,4.35.66-.16.32-.45.79-.95,1.49l-.02.03-.02.03c-2.54,3.73-7.97,10.29-11.17,13.5l-.03.03-.03.03c-1.47,1.56-3.13,2.71-5.21,3.54V49.97h0Z"/>
        </g>
        <g>
          <path class="cls-2" d="m1073.4,164.1c-6.09,0-10.34-4.44-10.34-10.79s4.44-10.79,10.34-10.79,10.64,4.74,10.64,10.79-4.47,10.79-10.64,10.79Z"/>
          <path class="cls-3" d="m1073.4,143.77c5.36,0,9.39,4.17,9.39,9.54,0,5.66-4.02,9.54-9.39,9.54s-9.09-3.87-9.09-9.54c0-5.36,3.72-9.54,9.09-9.54m0-2.5c-6.61,0-11.59,5.17-11.59,12.04s4.87,12.04,11.59,12.04,11.89-5.06,11.89-12.04-5.22-12.04-11.89-12.04h0Z"/>
        </g>
      </g>
    </g>
    <g>
      <path class="cls-3" d="m688.68,164.48c.69.4,1.43.72,2.2.94.19.05.42-.07.46-.26s-.06-.4-.26-.46c-.74-.21-1.35-.47-2.02-.86-.17-.1-.42-.04-.51.13s-.05.41.13.51h0Z"/>
      <path class="cls-3" d="m688.68,164.48c.69.4,1.43.72,2.2.94.19.05.42-.07.46-.26s-.06-.4-.26-.46c-.74-.21-1.35-.47-2.02-.86-.17-.1-.42-.04-.51.13s-.05.41.13.51h0Z"/>
      <path class="cls-5" d="m575.56,132.02s1.72,7.18,4.94,9.91,11.12,7.06,13.29,9,4.4,4.29,2.85,8.19c-1.37,3.45-3.86,10.78-3.86,10.78,0,0-.6,2.46-3.68,2.68-3.49.25-7.69,3.21-7.62,4.23.08,1.03.12,2.05,1.21,3.02s11.42,1.38,14.32-1.88c2.9-3.26,3.92-8.95,5.91-13.69,1.31-3.13,2.29-4.57,3.19-5.74s2.96-4.04.16-7.39c-3.26-3.88-5.79-13.93-6.94-15.93s-2.39-7.32-2.39-7.32l-21.37,4.13Z"/>
      <path class="cls-5" d="m490.07,84.33s14.99,33.12,21.84,39.47c6.85,6.35,7.67,5.96,6.67,15.07s-4.45,26.31-6.68,28.61c-2.23,2.3-7.74,3.23-8.89,4.03s-2.99,3.51-2.18,4.26,7.42,2.73,14.44.34c7.02-2.39,12.27-20.83,20.35-31.87,0,0-1.66,22.36-2.5,26.57s-8.48,6.04-9.51,7.16-1.04,2.8-.49,3.13,12.26,1.12,16.29-.84,1.01-4.45,1.01-5.9,8.8-26.98,11.96-33.06c3.15-6.08,2.99-8.59,10.23-8.68,7.24-.09,23.72-.93,28.02-3.3,0,0,5.4,8.43,12.04,14.06,6.64,5.63,14.99,12.88,15.81,13.94s1.44,2.06,1.51,6.54c.07,4.47.58,11.41-2.02,13.83s-5.04,3.15-6.61,3.86-2.46,1.33-2.41,3.32,12.06,2.19,14.9.68,2.09-1.31,2.75-6.69c.66-5.39.81-11.25,5.01-16.73,4.19-5.48-2.35-9.31-3.42-11.45s-3.88-5.24-3.65-14.74c.23-9.5,1.43-14.4,1.23-17.91s-1.52-4.99-1.52-4.99c0,0,3.55.08,5.65,4.31,2.1,4.23,2.42,15.15,2.5,22.75.08,7.6,2.63,10.15,5.12,13.42,2.5,3.27,9.67,11.53,22.96,13.15,9.78,1.19,6.69-2.48,6.69-2.48,0,0,13.08,8.35,25.74,3.13-5.05-1.37-14.12-7.12-19.02-12.87,0,0,11.07,5.49,23.68,1.95,0,0-9.99-3.02-19.71-12.61-9.72-9.59-19.2-23.85-23.66-32.02s-17.19-16.38-27.18-16.22c0,0-8.28-11.27-18.79-14.55s-40.59-4.7-47.15-3.63c-6.56,1.07-70.97,6.98-70.97,6.98Z"/>
      <path class="cls-7" d="m535.61,144.25s1.41-7.7-.71-11.83c-2.12-4.13-3.23-6.32-4.12-12.35"/>
      <path class="cls-7" d="m520.38,122.88s2.89,5.58,8.08,8.01c3.96,1.86,6.66,1.99,6.66,1.99"/>
      <g>
        <path class="cls-2" d="m694.11,166.58c-1.2,0-2.32-.06-3.32-.18l-.14-.02-.13-.06c-.29-.12-7.2-3.1-12.17-7.89l-2.54-2.44,3.45.75s4.83,1.03,9.49,1.03c1.12,0,2.16-.06,3.07-.18l.35-.04.3.19c.06.04,5.96,3.65,12.46,5.74l3.56,1.14-3.65.79c-.22.05-5.51,1.18-10.73,1.18Z"/>
        <path class="cls-3" d="m679.04,157.72s4.87,1.06,9.7,1.06c1.09,0,2.17-.05,3.2-.18,0,0,5.98,3.69,12.68,5.84,0,0-5.34,1.16-10.51,1.16-1.09,0-2.18-.05-3.2-.18,0,0-6.97-2.98-11.87-7.69m-6.46-3.44l5.08,4.88c5.1,4.91,12.17,7.96,12.47,8.09l.26.11.28.03c1.04.13,2.2.19,3.44.19,5.32,0,10.71-1.15,10.94-1.2l7.3-1.58-7.12-2.28c-6.4-2.05-12.18-5.6-12.24-5.64l-.6-.37-.7.09c-.88.11-1.87.17-2.95.17-4.55,0-9.23-1-9.28-1.01l-6.89-1.49h0Z"/>
      </g>
      <path class="cls-5" d="m512.46,56.6s17.68-16.75,20.35-18.41,4.82.39,5.87,4.12c1.05,3.72,1.93,10.42,1.75,17.34-.18,6.92-2.56,10.38-2.56,10.38,0,0,1.92-.24,5.34,1.14,1.9.77,4.47,3.63,3.61,5.67s-3.37,3.56-3.37,3.56c0,0,.75-.28,4.42,1.1,3.68,1.38,6.17,4.86,6.17,4.86,0,0-6.44.07-13.46.46-7.03.39-13.27,5.52-14.45,7.75s-1.93,4.54-4.33,7.29c-2.24,2.56-5.97,4.43-11.19,4.43-5.22,0-8.32-1.87-10.57-4.43-2.41-2.75-3.15-5.06-4.33-7.29s-7.42-7.36-14.45-7.75c-7.03-.39-13.46-.46-13.46-.46,0,0,2.5-3.48,6.17-4.86s4.42-1.1,4.42-1.1c0,0-2.52-1.52-3.37-3.56s1.71-4.9,3.61-5.67c3.43-1.38,5.34-1.14,5.34-1.14,0,0-2.39-3.46-2.56-10.38s.7-13.62,1.75-17.34,3.2-5.78,5.87-4.12c2.67,1.66,19.79,18.48,19.79,18.48,0,0,1.09-.61,3.63-.07Z"/>
      <g>
        <path class="cls-4" d="m487.82,42.89s0,15.62,2.04,17.19,6.12,0,8.15-3.12-10.19-14.06-10.19-14.06Z"/>
        <path class="cls-4" d="m534.03,44.82s.13,12.61-1.67,15.07-9.01-1.32-8.68-4.27c.33-2.95,10.35-10.8,10.35-10.8Z"/>
        <g>
          <path class="cls-3" d="m515.54,81.29c-.03-.09-.66-2.23,1.5-6.56,2.38-4.76,6.8-5.37,7.3-5.43l.17-.02c.59-.07,1.21-.13,1.84-.13.84,0,1.55.12,2.17.38.37.15,1.62.75,2.07,1.95.36.97.15,2.3-.82,2.77-.71.34-1.4.37-2.21.41-.63.03-1.34.07-2.2.25-2.22.48-2.68.68-4.92,2.11-3.24,2.07-4.71,4.26-4.72,4.29l-.12.17-.06-.2Z"/>
          <path class="cls-2" d="m526.36,69.25c.71,0,1.44.09,2.13.37.46.19,1.59.77,2.01,1.9.34.91.15,2.2-.77,2.64-1.23.59-2.41.23-4.38.66-2.22.48-2.69.68-4.95,2.12-3.3,2.11-4.75,4.31-4.75,4.31,0,0-.67-2.14,1.5-6.48,2.17-4.34,6.14-5.25,7.22-5.37.63-.07,1.31-.15,2-.15m0-.2c-.64,0-1.25.07-1.85.13l-.17.02c-.5.06-4.98.68-7.38,5.48-2.18,4.36-1.54,6.54-1.51,6.63l.13.4.23-.35s1.48-2.2,4.69-4.26c2.22-1.42,2.68-1.62,4.89-2.1.85-.18,1.56-.22,2.19-.25.81-.04,1.52-.07,2.24-.42,1.02-.49,1.25-1.88.87-2.89-.46-1.24-1.74-1.85-2.12-2.01-.63-.26-1.36-.39-2.21-.39h0Z"/>
        </g>
        <g>
          <path class="cls-3" d="m504.99,81.31s-1.49-2.21-4.72-4.29c-2.23-1.43-2.69-1.63-4.92-2.11-.86-.19-1.57-.22-2.2-.25-.8-.04-1.5-.07-2.2-.41-.97-.47-1.18-1.8-.82-2.77.45-1.2,1.7-1.8,2.07-1.95.62-.26,1.33-.38,2.17-.38.63,0,1.25.07,1.84.13l.17.02c.5.05,4.92.67,7.3,5.43,2.16,4.33,1.53,6.47,1.5,6.56l-.06.2-.12-.17Z"/>
          <path class="cls-2" d="m494.35,69.25c.69,0,1.37.08,2,.15,1.08.12,5.05,1.03,7.22,5.37,2.17,4.34,1.5,6.48,1.5,6.48,0,0-1.46-2.2-4.75-4.31-2.26-1.45-2.73-1.64-4.95-2.12-1.97-.43-3.15-.07-4.38-.66-.93-.44-1.11-1.74-.77-2.64.42-1.12,1.56-1.71,2.01-1.9.69-.29,1.41-.37,2.13-.37m0-.2h0c-.85,0-1.57.13-2.21.39-.38.16-1.66.77-2.12,2.01-.38,1.01-.15,2.4.87,2.89.72.35,1.43.38,2.24.42.62.03,1.33.07,2.19.25,2.21.48,2.67.67,4.89,2.1,3.22,2.06,4.68,4.23,4.69,4.26l.23.35.13-.4c.03-.09.67-2.27-1.51-6.63-2.4-4.8-6.88-5.43-7.38-5.48l-.17-.02c-.6-.07-1.21-.13-1.85-.13h0Z"/>
        </g>
        <path class="cls-6" d="m518.44,96.04c0,2.9-3.37,4.96-7.52,4.96s-7.52-2.05-7.52-4.96c0-1.44.74-2.89,2.18-3.7,1.63-.92,3.44-1.03,5.53-1.03s4.33.53,5.27,1.11c1.04.64,2.07,2.22,2.07,3.62Z"/>
      </g>
      <g>
        <g>
          <g>
            <path class="cls-3" d="m528.57,121.26c.9,3.76,1.92,7.6,3.88,10.96.19.33.71.03.52-.3-1.93-3.32-2.94-7.11-3.82-10.82-.09-.38-.67-.22-.58.16h0Z"/>
            <path class="cls-3" d="m527.84,123.76c.27,1.35.67,2.67,1.14,3.96s.93,2.62,1.69,3.77c.21.32.73.02.52-.3-.75-1.15-1.21-2.48-1.67-3.76s-.83-2.52-1.1-3.83c-.08-.38-.66-.22-.58.16h0Z"/>
            <path class="cls-3" d="m526,122.96c.47,2.41,1.17,4.79,2.05,7.08.14.36.72.2.58-.16-.88-2.29-1.58-4.67-2.05-7.08-.07-.38-.65-.22-.58.16h0Z"/>
            <path class="cls-3" d="m524.97,124.92c.35,1.51,1.02,2.92,1.41,4.41.1.37.68.21.58-.16-.4-1.49-1.07-2.9-1.41-4.41-.09-.38-.67-.22-.58.16h0Z"/>
            <path class="cls-3" d="m533.02,133.4c.2.84.38,1.7.53,2.55s.29,1.71.26,2.58c-.01.39.59.39.6,0,.03-.89-.12-1.79-.27-2.66s-.33-1.76-.54-2.63c-.09-.38-.67-.22-.58.16h0Z"/>
            <path class="cls-3" d="m533.81,140.69c0,1.85-.11,3.7-.29,5.54-.04.38.56.38.6,0,.19-1.84.29-3.69.29-5.54,0-.39-.6-.39-.6,0h0Z"/>
            <path class="cls-3" d="m532.46,143.1c-.03.72-.05,1.45-.07,2.17s-.05,1.45,0,2.17c.02.38.62.39.6,0-.05-.72-.01-1.45,0-2.17s.04-1.45.07-2.17c.02-.39-.58-.39-.6,0h0Z"/>
            <path class="cls-3" d="m531.55,132.97c.17.59.35,1.18.46,1.79s.13,1.2.14,1.8c0,.39.61.39.6,0-.01-.64-.04-1.28-.15-1.91s-.3-1.22-.47-1.83c-.1-.37-.68-.21-.58.16h0Z"/>
            <path class="cls-3" d="m530.11,132.35c.26.79.41,1.62.53,2.44.13.88.24,1.77.24,2.67,0,.39.6.39.6,0,0-.92-.11-1.84-.25-2.75-.13-.84-.27-1.7-.54-2.52-.12-.36-.7-.21-.58.16h0Z"/>
          </g>
          <g>
            <g>
              <path class="cls-3" d="m588.76,130.52c.24,2.19,1.01,4.21,1.85,6.23.15.35.73.2.58-.16-.82-1.96-1.6-3.94-1.83-6.07-.04-.38-.64-.38-.6,0h0Z"/>
              <path class="cls-3" d="m587.59,130.88c.15.87.26,1.74.44,2.6s.44,1.69.79,2.49c.15.35.67.05.52-.3-.69-1.58-.89-3.27-1.17-4.95-.06-.38-.64-.22-.58.16h0Z"/>
              <path class="cls-3" d="m586.22,131.28c.23.89.37,1.8.63,2.69.24.83.51,1.67.87,2.46.16.35.68.05.52-.3-.35-.76-.6-1.58-.83-2.38-.25-.86-.39-1.75-.61-2.62-.1-.37-.67-.22-.58.16h0Z"/>
              <path class="cls-3" d="m580.52,132.4c-.01.35,0,.7.05,1.05.06.42.18.84.29,1.25.04.16.21.25.37.21s.25-.21.21-.37c-.11-.41-.22-.81-.28-1.23,0-.02,0-.03,0-.05,0-.04,0,.05,0,0,0-.04,0-.08-.01-.12,0-.08-.01-.15-.01-.23,0-.17,0-.34,0-.52,0-.16-.14-.3-.3-.3-.17,0-.29.14-.3.3h0Z"/>
              <path class="cls-3" d="m581.62,132.12c0,.19.04.39.07.57.05.29.11.58.18.86.13.59.27,1.18.44,1.76.11.37.69.21.58-.16-.17-.57-.3-1.14-.43-1.72-.06-.28-.13-.57-.18-.86-.01-.06-.02-.11-.03-.17,0-.02,0-.04-.01-.06,0,0-.01-.09,0-.04,0,.04,0-.07,0-.09,0-.03,0-.06,0-.09,0-.39-.59-.39-.6,0h0Z"/>
              <path class="cls-3" d="m583.86,133.85c-.08-.29-.17-.58-.24-.87-.04-.17-.08-.33-.12-.5,0-.04-.01-.08-.02-.11,0-.02,0-.04,0-.05,0-.05-.01-.02,0,0-.03-.04-.01-.15-.01-.2,0-.16-.14-.31-.3-.3s-.3.13-.3.3c0,.34.09.68.18,1,.08.3.17.6.25.9.04.15.22.26.37.21s.25-.21.21-.37h0Z"/>
              <path class="cls-3" d="m585.65,135.83c-.32-.69-.51-1.46-.68-2.2-.09-.36-.16-.73-.23-1.09-.05-.25-.08-.46-.1-.66-.03-.38-.63-.39-.6,0,.05.64.2,1.29.35,1.91.19.79.4,1.6.75,2.34.16.35.68.05.52-.3h0Z"/>
            </g>
            <path class="cls-3" d="m586.68,134.93c-.43-1.07-.75-2.15-.89-3.3-.02-.16-.12-.3-.3-.3-.15,0-.32.14-.3.3.07.57.16,1.14.3,1.7.16.6.37,1.19.61,1.77.06.15.2.26.37.21.14-.04.27-.22.21-.37h0Z"/>
          </g>
          <g>
            <path class="cls-3" d="m621.82,112.78c1.52,1.53,1.65,3.7,1.7,5.74.03,1.3-.07,2.56-.22,3.84-.28,2.37-.75,4.83-.67,7.22.01.38.61.39.6,0-.09-2.58.44-5.22.73-7.78.18-1.53.2-3.06.11-4.6-.11-1.79-.53-3.55-1.83-4.85-.27-.27-.7.15-.42.42h0Z"/>
            <path class="cls-3" d="m620.75,113.71c.78,1.07,1.2,2.14,1.32,3.46.1,1.12.14,2.26.05,3.38-.15,1.68-.46,3.35-.69,5.02-.05.38.53.54.58.16.25-1.76.59-3.51.72-5.28.1-1.23.04-2.49-.1-3.71s-.62-2.31-1.36-3.34c-.22-.31-.75-.01-.52.3h0Z"/>
            <path class="cls-3" d="m619.97,114.83c.68,1.17.91,2.47,1,3.8s.04,2.68-.27,3.99c-.09.38.49.54.58.16.34-1.41.39-2.85.28-4.29s-.36-2.75-1.07-3.97c-.2-.33-.71-.03-.52.3h0Z"/>
          </g>
          <g>
            <path class="cls-3" d="m471.78,86.07c.98-.53,2.03-.92,3.09-1.26.92-.3,1.85-.56,2.79-.77.38-.08.22-.66-.16-.58-.97.21-1.93.49-2.87.8-1.08.35-2.15.75-3.15,1.29-.34.18-.04.7.3.52h0Z"/>
            <path class="cls-3" d="m476.48,86.19c1.72-.46,3.46-.81,5.25-.81.39,0,.39-.6,0-.6-1.84,0-3.64.36-5.41.83-.37.1-.21.68.16.58h0Z"/>
            <path class="cls-3" d="m469.77,85.45c3.16-1.54,6.52-2.87,10.02-3.38.38-.05.22-.63-.16-.58-3.55.51-6.95,1.87-10.16,3.44-.35.17-.04.69.3.52h0Z"/>
            <path class="cls-3" d="m500.36,104.49h1.27c.16,0,.31-.14.3-.3s-.13-.3-.3-.3h-1.27c-.16,0-.31.14-.3.3s.13.3.3.3h0Z"/>
            <path class="cls-3" d="m501.19,105.64c.59-.03,1.17-.09,1.75-.17.16-.02.25-.23.21-.37-.06-.17-.2-.23-.37-.21-.03,0-.07,0-.1.01.04,0-.06,0-.07,0-.07,0-.13.02-.2.02-.14.02-.27.03-.41.04-.27.03-.55.04-.82.06-.16,0-.31.13-.3.3,0,.16.13.31.3.3h0Z"/>
            <path class="cls-3" d="m501.98,106.8c.09-.02.19-.04.28-.05.03,0,.06,0,.09-.01-.06,0,.04,0,.04,0,.07,0,.14-.02.2-.02.34-.04.68-.07,1.02-.09s.67-.04,1-.05c.13,0,.27,0,.4,0,.05,0,.1,0,.16,0,.03,0,.19.02.08,0,.16.02.32-.04.37-.21.04-.14-.05-.35-.21-.37-.59-.08-1.21-.02-1.8.02s-1.21.07-1.79.21c-.38.09-.22.67.16.58h0Z"/>
            <path class="cls-3" d="m554.05,87.79c-6.94-.22-14.02-.58-20.73,1.5-.37.11-.21.69.16.58,6.65-2.07,13.69-1.7,20.57-1.48.39.01.39-.59,0-.6h0Z"/>
            <path class="cls-3" d="m552,89.05c-3.92-.26-7.82-.31-11.72.09s-7.35,1.39-10.96,2.43c-.37.11-.21.69.16.58,3.65-1.05,7.26-2.05,11.05-2.43s7.65-.32,11.48-.07c.39.03.38-.57,0-.6h0Z"/>
            <path class="cls-3" d="m536.32,92.24c-3.34.82-6.72,1.75-9.92,3.02-.35.14-.2.72.16.58,3.2-1.28,6.57-2.21,9.92-3.02.37-.09.22-.67-.16-.58h0Z"/>
            <path class="cls-3" d="m546.98,91.4c-2.48-.06-4.92-.15-7.37.33-.38.07-.22.65.16.58,2.39-.47,4.79-.37,7.21-.31.39,0,.39-.59,0-.6h0Z"/>
            <path class="cls-3" d="m533.89,94c-3.13.88-6.36,1.87-9.17,3.54-.33.2-.03.72.3.52,2.77-1.64,5.94-2.62,9.03-3.48.37-.1.21-.68-.16-.58h0Z"/>
            <path class="cls-3" d="m524.59,99.6c2.55-1.31,5.23-2.33,7.97-3.16.37-.11.21-.69-.16-.58-2.79.85-5.52,1.89-8.11,3.22-.34.18-.04.69.3.52h0Z"/>
            <path class="cls-3" d="m528.93,98.63c-1.93.47-3.76,1.29-5.63,1.95-.36.13-.21.71.16.58,1.87-.66,3.7-1.48,5.63-1.95.38-.09.22-.67-.16-.58h0Z"/>
            <path class="cls-3" d="m526.4,101.13c-1.7.24-3.37.7-5,1.22-.37.12-.21.7.16.58,1.63-.52,3.3-.98,5-1.22.38-.05.22-.63-.16-.58h0Z"/>
            <path class="cls-3" d="m524.87,102.78c-1.62.18-3.25.44-4.83.88-.37.1-.21.68.16.58,1.53-.42,3.1-.68,4.67-.86.38-.04.38-.64,0-.6h0Z"/>
            <path class="cls-3" d="m524.37,104.42c-1.5.1-3,.41-4.48.67s-3,.56-4.48.89c-.38.09-.22.66.16.58,1.45-.33,2.91-.61,4.37-.87s2.95-.57,4.43-.67c.38-.03.39-.63,0-.6h0Z"/>
            <path class="cls-3" d="m503.86,108.12c2.46-.08,4.89-.42,7.35-.5,3.54-.12,7.01-.46,10.51-1.04.38-.06.22-.64-.16-.58-3.5.58-6.97.9-10.51,1.03-2.4.09-4.78.42-7.18.5-.39.01-.39.61,0,.6h0Z"/>
            <path class="cls-3" d="m550.31,89.96c-7.67-.46-15.56.73-22.73,3.52-.36.14-.2.72.16.58,7.12-2.77,14.95-3.95,22.57-3.5.39.02.38-.58,0-.6h0Z"/>
            <path class="cls-3" d="m507.16,109.45c1.96-.41,4.01-.44,6-.63s3.9-.42,5.85-.43c.39,0,.39-.6,0-.6-2.02.01-4.03.25-6.04.45s-4.01.22-5.97.63c-.38.08-.22.66.16.58h0Z"/>
            <path class="cls-3" d="m509.48,110.54c2.26-.17,4.52-.34,6.79-.48.38-.02.39-.62,0-.6-2.26.14-4.53.31-6.79.48-.38.03-.39.63,0,.6h0Z"/>
          </g>
          <g>
            <path class="cls-3" d="m681.87,159.44c1.12.29,2.24.56,3.39.66s2.43.03,3.64,0c.39-.01.39-.61,0-.6-1.18.04-2.37.1-3.56.01s-2.22-.36-3.31-.64c-.37-.1-.53.48-.16.58h0Z"/>
            <path class="cls-3" d="m681.74,159.36c.82.68,1.75,1.23,2.66,1.8.64.4,1.26.83,1.92,1.2,1.21.68,2.45,1.31,3.67,1.96.34.18.64-.34.3-.52-1.21-.64-2.42-1.26-3.61-1.92-.61-.34-1.17-.74-1.76-1.1-.93-.58-1.91-1.13-2.75-1.84-.3-.24-.72.18-.42.42h0Z"/>
            <path class="cls-3" d="m686.22,160.95c.88.63,1.88,1.03,2.89,1.41.15.06.33-.06.37-.21.05-.17-.06-.31-.21-.37-.96-.36-1.91-.75-2.74-1.35-.13-.09-.33-.02-.41.11-.09.15-.02.32.11.41h0Z"/>
            <path class="cls-3" d="m686.29,160.98c.66.1,1.34.2,2.01.12.16-.02.31-.13.3-.3,0-.15-.13-.32-.3-.3-.63.07-1.24,0-1.85-.1-.15-.02-.33.04-.37.21-.03.14.04.34.21.37h0Z"/>
            <path class="cls-3" d="m666.9,165.06c-1.71-.99-3.33-2.31-4.74-3.69-1.68-1.65-3.25-3.41-4.74-5.23-.24-.3-.67.13-.42.42,1.52,1.87,3.13,3.67,4.86,5.35,1.41,1.37,3.03,2.68,4.74,3.67.33.19.64-.32.3-.52h0Z"/>
            <path class="cls-3" d="m665.07,161.86c-.76-.61-1.47-1.29-2.15-1.98s-1.35-1.41-1.96-2.18c-.1-.13-.32-.1-.42,0-.13.12-.1.3,0,.42.61.76,1.27,1.48,1.96,2.18s1.39,1.37,2.15,1.98c.13.1.3.12.42,0,.11-.1.13-.32,0-.42h0Z"/>
            <path class="cls-3" d="m661.72,155.94c1.09,1.44,2.11,2.95,3.35,4.27,1.13,1.19,2.38,2.32,3.65,3.36,1.45,1.19,3.18,2.01,4.68,3.14.31.23.61-.29.3-.52-1.46-1.09-3.15-1.89-4.56-3.04-1.22-1-2.41-2.09-3.51-3.21-1.28-1.31-2.3-2.84-3.4-4.29-.23-.3-.75,0-.52.3h0Z"/>
            <path class="cls-3" d="m667.56,160.06c1.7,1.82,3.49,3.66,5.53,5.1,1.64,1.15,3.44,2.34,5.34,3.01.36.13.52-.45.16-.58-1.84-.65-3.61-1.83-5.2-2.95-2-1.4-3.75-3.22-5.41-5-.26-.28-.69.14-.42.42h0Z"/>
            <path class="cls-3" d="m671.81,152.51c-.8-.65-1.61-1.3-2.33-2.04s-1.36-1.66-1.94-2.57c-.21-.32-.73-.02-.52.3.59.93,1.21,1.84,1.98,2.63s1.57,1.43,2.39,2.1c.3.24.72-.18.42-.42h0Z"/>
            <path class="cls-3" d="m674.94,154.02c-.89-.7-1.72-1.48-2.54-2.28s-1.62-1.6-2.37-2.45c-.26-.29-.68.14-.42.42.75.85,1.55,1.66,2.37,2.45s1.65,1.57,2.54,2.28c.3.24.73-.19.42-.42h0Z"/>
            <path class="cls-3" d="m672.68,151.48c1.75,1.62,3.51,3.36,5.75,4.28.36.15.51-.43.16-.58-2.13-.88-3.82-2.59-5.49-4.13-.28-.26-.71.16-.42.42h0Z"/>
          </g>
          <g>
            <path class="cls-3" d="m629.75,114.58c1.35,1.06,1.92,2.96,2.47,4.52s.98,3.25,1.25,4.93c.62,3.73.61,7.53.6,11.3,0,4.4-.64,9.51,2.71,12.93.27.28.7-.15.42-.42-1.66-1.69-2.28-3.71-2.45-6.03-.23-3.12-.06-6.27-.09-9.4-.04-3.39-.19-6.81-.92-10.13-.37-1.66-.88-3.28-1.52-4.85-.49-1.21-1-2.44-2.05-3.27-.3-.24-.73.19-.42.42h0Z"/>
            <path class="cls-3" d="m636.7,124.03c.39,2.62.59,5.23.53,7.89,0,.39.59.39.6,0,.06-2.71-.15-5.37-.55-8.05-.06-.38-.64-.22-.58.16h0Z"/>
            <path class="cls-3" d="m634.56,120.72c.9,2.92,1.07,6.14,1.21,9.17.17,3.69-.39,7.43.24,11.08.07.38.64.22.58-.16-.36-2.06-.26-4.06-.18-6.13.07-1.8.03-3.61-.07-5.42-.16-2.87-.34-5.93-1.2-8.7-.11-.37-.69-.21-.58.16h0Z"/>
          </g>
        </g>
        <path class="cls-3" d="m579.28,132.4c0,.31.06.64.12.94.08.42.19.84.31,1.26.05.16.21.25.37.21s.26-.21.21-.37c-.12-.4-.22-.81-.3-1.22-.02-.09-.03-.18-.05-.27,0-.04-.01-.08-.02-.12,0-.02,0-.04,0-.06,0,0-.01-.08,0-.04,0,.04,0-.02,0-.02,0-.02,0-.03,0-.05,0-.03,0-.07,0-.1,0-.05,0-.11,0-.16,0-.16-.14-.3-.3-.3-.17,0-.3.14-.3.3h0Z"/>
        <path class="cls-3" d="m590.04,130.37c.3,1.75.89,3.39,1.6,5.01.15.35.67.05.52-.3-.69-1.58-1.24-3.17-1.54-4.87-.07-.38-.64-.22-.58.16h0Z"/>
      </g>
    </g>
  </g>
</svg>