<?xml version="1.0" encoding="UTF-8"?>
<svg id="Layer_1" data-name="Layer 1" xmlns="http://www.w3.org/2000/svg" viewBox="0 0 800 600">
  <defs>
    <style>
      .cls-1, .cls-2, .cls-3, .cls-4 {
        stroke-miterlimit: 10;
      }

      .cls-1, .cls-5 {
        fill: #f4eded;
      }

      .cls-1, .cls-3 {
        stroke: #331b0e;
        stroke-width: 4px;
      }

      .cls-2 {
        stroke-width: 2px;
      }

      .cls-2, .cls-4 {
        stroke: #f4eded;
      }

      .cls-2, .cls-4, .cls-6 {
        fill: #331b0e;
      }

      .cls-5, .cls-6 {
        stroke-width: 0px;
      }

      .cls-3 {
        fill: none;
      }

      .cls-4 {
        stroke-width: .2px;
      }
    </style>
  </defs>
  <path class="cls-1" d="m365.01,365.51s5.66,23.58,16.23,32.56,36.51,23.2,43.66,29.54c7.15,6.35,14.45,14.09,9.35,26.89-4.51,11.32-12.69,35.41-12.69,35.41,0,0-1.97,8.09-12.08,8.81-11.46.82-25.26,10.53-25.01,13.89.25,3.37.4,6.75,3.97,9.92,3.57,3.17,37.51,4.54,47.02-6.18,9.52-10.72,12.87-29.38,19.4-44.96,4.3-10.27,7.53-15,10.47-18.85,2.9-3.8,9.74-13.28.52-24.26-10.7-12.75-19.02-45.76-22.8-52.3s-7.85-24.05-7.85-24.05l-70.18,13.57Z"/>
  <path class="cls-1" d="m84.26,208.91s49.23,108.76,71.72,129.62c22.49,20.86,25.19,19.58,21.91,49.48-3.28,29.9-14.63,86.41-21.94,93.96-7.31,7.54-25.4,10.6-29.21,13.25s-9.83,11.53-7.17,13.98c2.67,2.45,24.35,8.97,47.42,1.11,23.06-7.86,40.3-68.41,66.83-104.65,0,0-5.46,73.43-8.22,87.27-2.76,13.84-27.85,19.83-31.24,23.53-3.39,3.69-3.41,9.21-1.61,10.28s40.28,3.67,53.51-2.76c13.23-6.43,3.31-14.62,3.31-19.37s28.91-88.61,39.26-108.58c10.35-19.97,9.84-28.2,33.6-28.51s77.9-3.06,92.03-10.85c0,0,17.73,27.69,39.54,46.18,21.81,18.49,49.24,42.3,51.9,45.77,2.66,3.47,4.73,6.77,4.95,21.46.23,14.69,1.89,37.46-6.63,45.4s-16.54,10.35-21.71,12.68c-5.17,2.32-8.09,4.36-7.92,10.89.16,6.53,39.62,7.2,48.93,2.22,9.31-4.97,6.86-4.29,9.03-21.98,2.17-17.69,2.67-36.94,16.44-54.94,13.77-18-7.72-30.57-11.25-37.61-3.53-7.04-12.73-17.19-11.97-48.4s4.71-47.3,4.02-58.82c-.68-11.51-5-16.39-5-16.39,0,0,11.65.25,18.55,14.14,6.9,13.89,7.94,49.77,8.2,74.72.26,24.95,8.63,33.34,16.82,44.06,8.2,10.72,31.75,37.88,75.39,43.17,32.11,3.89,21.96-8.14,21.96-8.14,0,0,42.94,27.43,84.52,10.29-16.58-4.51-46.37-23.38-62.46-42.28,0,0,36.35,18.04,77.75,6.39,0,0-32.8-9.92-64.72-41.41-31.92-31.49-63.06-78.31-77.69-105.15-14.63-26.85-56.45-53.8-89.25-53.26,0,0-27.21-37-61.71-47.78-34.5-10.78-133.3-15.44-154.86-11.92-21.55,3.52-233.06,22.93-233.06,22.93Z"/>
  <path class="cls-3" d="m233.83,405.67s4.64-25.29-2.33-38.85-10.61-20.75-13.52-40.55"/>
  <path class="cls-3" d="m183.81,335.51s9.49,18.33,26.53,26.31c13.01,6.1,21.88,6.54,21.88,6.54"/>
  <g>
    <path class="cls-5" d="m754.32,477.74c-3.9,0-7.52-.2-10.75-.59l-.28-.03-.26-.11c-.95-.4-23.42-10.1-39.58-25.65l-5.08-4.89,6.89,1.49c.16.04,15.98,3.42,31.43,3.42,3.74,0,7.19-.2,10.26-.59l.7-.09.6.37c.19.12,19.68,12.08,41.21,18.97l7.12,2.28-7.3,1.58c-.72.16-17.95,3.84-34.96,3.84Z"/>
    <path class="cls-6" d="m704.84,449.91s15.99,3.47,31.86,3.47c3.57,0,7.14-.18,10.51-.61,0,0,19.62,12.12,41.65,19.17,0,0-17.55,3.8-34.53,3.8-3.59,0-7.15-.17-10.51-.58,0,0-22.89-9.78-38.98-25.25m-12.93-6.89l10.16,9.77c16.43,15.8,39.22,25.64,40.18,26.05l.52.22.56.07c3.31.4,7.01.61,10.99.61,17.21,0,34.64-3.73,35.38-3.89l14.61-3.16-14.24-4.56c-21.28-6.81-40.57-18.65-40.77-18.77l-1.2-.74-1.4.18c-2.99.38-6.35.57-10.01.57-15.23,0-30.85-3.34-31.01-3.38l-13.78-2.98h0Z"/>
  </g>
  <path class="cls-1" d="m157.81,117.82s58.06-55,66.83-60.47,15.82,1.29,19.27,13.52c3.45,12.22,6.33,34.22,5.75,56.94-.58,22.72-8.41,34.08-8.41,34.08,0,0,6.29-.79,17.54,3.74,6.26,2.52,14.67,11.93,11.86,18.62-2.8,6.69-11.08,11.69-11.08,11.69,0,0,2.45-.91,14.53,3.62,12.08,4.53,20.27,15.96,20.27,15.96,0,0-21.14.22-44.22,1.51-23.08,1.29-43.57,18.12-47.45,25.45-3.88,7.33-6.33,14.9-14.24,23.94-7.36,8.42-19.6,14.55-36.74,14.56-17.14,0-27.33-6.14-34.7-14.56-7.91-9.04-10.35-16.61-14.24-23.94-3.88-7.33-24.37-24.16-47.45-25.45s-44.22-1.51-44.22-1.51c0,0,8.2-11.43,20.27-15.96,12.08-4.53,14.53-3.62,14.53-3.62,0,0-8.27-5.01-11.08-11.69-2.8-6.69,5.61-16.1,11.86-18.62,11.25-4.53,17.54-3.74,17.54-3.74,0,0-7.84-11.36-8.41-34.08-.58-22.72,2.3-44.72,5.75-56.94,3.45-12.22,10.5-18.98,19.27-13.52,8.77,5.46,64.99,60.68,64.99,60.68,0,0,3.59-2.01,11.93-.22Z"/>
  <g>
    <g>
      <path class="cls-6" d="m211.23,330.04c2.92,12.29,6.27,24.89,12.7,35.88.29.5,1.07.05.78-.45-6.39-10.92-9.7-23.45-12.61-35.66-.13-.56-1-.32-.87.24h0Z"/>
      <path class="cls-6" d="m208.84,338.25c.92,4.51,2.25,8.9,3.84,13.22s2.99,8.37,5.41,12.04c.32.48,1.1.03.78-.45-2.46-3.74-3.95-8.08-5.47-12.26s-2.79-8.43-3.68-12.79c-.12-.57-.98-.33-.87.24h0Z"/>
      <path class="cls-6" d="m202.77,335.63c1.54,7.93,3.83,15.72,6.72,23.26.21.54,1.08.3.87-.24-2.89-7.53-5.18-15.33-6.72-23.26-.11-.57-.98-.33-.87.24h0Z"/>
      <path class="cls-6" d="m199.41,342.07c1.14,4.94,3.34,9.57,4.65,14.47.15.56,1.02.32.87-.24-1.31-4.89-3.51-9.52-4.65-14.47-.13-.56-1-.33-.87.24h0Z"/>
      <path class="cls-6" d="m225.82,369.91c.67,2.77,1.25,5.57,1.73,8.38s.96,5.73.88,8.6c-.02.58.88.58.9,0,.08-2.87-.39-5.77-.87-8.59s-1.09-5.78-1.78-8.63c-.14-.56-1-.32-.87.24h0Z"/>
      <path class="cls-6" d="m228.44,393.98c0,6.08-.35,12.15-.97,18.21-.06.58.84.57.9,0,.62-6.05.96-12.12.97-18.21,0-.58-.9-.58-.9,0h0Z"/>
      <path class="cls-6" d="m224,401.92c-.1,2.37-.18,4.75-.23,7.13s-.16,4.76,0,7.12c.04.58.94.58.9,0-.15-2.37-.05-4.76,0-7.12s.13-4.75.23-7.13c.03-.58-.87-.58-.9,0h0Z"/>
      <path class="cls-6" d="m221,368.49c.55,1.94,1.15,3.88,1.52,5.87s.44,4.02.48,6.04c.01.58.91.58.9,0-.04-2.06-.12-4.12-.48-6.14s-.98-4.02-1.54-6.01c-.16-.56-1.03-.32-.87.24h0Z"/>
      <path class="cls-6" d="m216.27,366.44c.86,2.59,1.33,5.32,1.74,8.01.45,2.94.79,5.92.8,8.9,0,.58.9.58.9,0-.01-2.97-.36-5.95-.8-8.89-.41-2.77-.89-5.6-1.78-8.27-.18-.55-1.05-.31-.87.24h0Z"/>
    </g>
    <g>
      <g>
        <path class="cls-6" d="m408.91,360.61c.78,7.13,3.33,13.73,6.07,20.3.22.53,1.09.3.87-.24-2.71-6.48-5.27-13.03-6.04-20.06-.06-.57-.96-.58-.9,0h0Z"/>
        <path class="cls-6" d="m405.03,361.64c.97,5.67,1.68,11.28,4,16.61.23.53,1.01.07.78-.45-2.28-5.24-2.96-10.81-3.91-16.39-.1-.57-.96-.33-.87.24h0Z"/>
        <path class="cls-6" d="m400.55,362.93c.75,2.94,1.22,5.91,2.08,8.82.79,2.69,1.64,5.39,2.82,7.94.24.53,1.02.07.78-.45-1.17-2.55-2.01-5.27-2.79-7.96-.82-2.84-1.28-5.74-2.01-8.59-.14-.56-1.01-.32-.87.24h0Z"/>
        <path class="cls-6" d="m381.83,366.76c-.04,1.11-.01,2.21.15,3.31.21,1.39.58,2.76.94,4.11.15.56,1.02.32.87-.24-.35-1.33-.72-2.67-.93-4.03-.16-1.04-.17-2.1-.13-3.15.02-.58-.88-.58-.9,0h0Z"/>
        <path class="cls-6" d="m385.46,365.85c-.01.58.12,1.17.22,1.73.17.95.37,1.89.58,2.83.43,1.93.89,3.86,1.45,5.76.16.55,1.03.32.87-.24-.55-1.86-1-3.75-1.42-5.64-.21-.93-.41-1.87-.58-2.81-.1-.53-.23-1.1-.22-1.64.01-.58-.89-.58-.9,0h0Z"/>
        <path class="cls-6" d="m391.76,371.67c-.25-.96-.54-1.91-.8-2.87s-.55-1.98-.55-2.98c0-.58-.9-.58-.9,0,0,1.06.3,2.12.56,3.14s.57,1.96.82,2.95c.14.56,1.01.32.87-.24h0Z"/>
        <path class="cls-6" d="m397.67,378.3c-1.08-2.32-1.72-4.86-2.3-7.34-.45-1.93-.94-3.92-1.1-5.91-.05-.57-.95-.58-.9,0,.17,2.06.66,4.13,1.13,6.14.6,2.56,1.28,5.16,2.39,7.55.24.52,1.02.07.78-.45h0Z"/>
      </g>
      <path class="cls-6" d="m401.02,375.21c-1.44-3.57-2.48-7.17-2.93-10.99-.07-.57-.97-.58-.9,0,.21,1.83.51,3.64.97,5.42.52,1.98,1.22,3.91,1.99,5.81.21.53,1.08.3.87-.24h0Z"/>
    </g>
    <g>
      <path class="cls-6" d="m517.31,301.94c3.53,3.41,4.95,8.23,5.42,12.99.45,4.51.58,9.24.15,13.75-.61,6.48-1.57,12.92-2.22,19.39-.31,3.12-.67,6.3-.54,9.44.02.58.92.58.9,0-.12-2.83.18-5.69.45-8.5.35-3.64.78-7.27,1.22-10.9.37-3.07.77-6.14,1.06-9.22.45-4.66.33-9.54-.16-14.19-.52-4.92-2.02-9.87-5.66-13.39-.42-.4-1.05.23-.64.64h0Z"/>
      <path class="cls-6" d="m513.89,305.13c1.23,1.68,2.37,3.44,3.13,5.39s1.06,3.92,1.26,5.97c.36,3.76.51,7.64.17,11.41-.5,5.56-1.52,11.08-2.3,16.6-.08.57.79.81.87.24.79-5.67,1.86-11.34,2.35-17.05.34-4.07.16-8.28-.31-12.34-.47-4.04-2-7.4-4.39-10.68-.34-.46-1.12-.01-.78.45h0Z"/>
      <path class="cls-6" d="m511.33,308.81c2.3,3.92,3.06,8.31,3.36,12.79s.13,8.88-.91,13.22c-.14.56.73.8.87.24,1.09-4.55,1.24-9.23.91-13.89-.32-4.49-1.15-8.88-3.45-12.81-.29-.5-1.07-.05-.78.45h0Z"/>
    </g>
    <g>
      <path class="cls-6" d="m23.92,214.17c3.25-1.77,6.76-3.06,10.28-4.2,3.01-.98,6.06-1.85,9.16-2.52.57-.12.33-.99-.24-.87-3.19.69-6.34,1.6-9.44,2.61-3.49,1.14-6.98,2.44-10.21,4.2-.51.28-.06,1.05.45.78h0Z"/>
      <path class="cls-6" d="m39.49,214.51c5.69-1.52,11.47-2.67,17.38-2.69.58,0,.58-.9,0-.9-5.99.02-11.85,1.18-17.62,2.72-.56.15-.32,1.02.24.87h0Z"/>
      <path class="cls-6" d="m17.34,212.12c10.42-5.08,21.49-9.49,33.03-11.14.57-.08.33-.95-.24-.87-11.62,1.66-22.76,6.12-33.25,11.23-.52.25-.06,1.03.45.78h0Z"/>
      <path class="cls-6" d="m118.05,274.57c1.39,0,2.78,0,4.17,0,.58,0,.58-.9,0-.9-1.39,0-2.78,0-4.17,0-.58,0-.58.9,0,.9h0Z"/>
      <path class="cls-6" d="m120.79,278.36c1.88-.09,3.74-.27,5.6-.53.24-.03.37-.34.31-.55-.07-.26-.31-.35-.55-.31-1.78.25-3.57.42-5.37.5-.58.03-.58.93,0,.9h0Z"/>
      <path class="cls-6" d="m123.23,282.18c1.78-.42,3.68-.49,5.5-.62,1.09-.08,2.19-.14,3.29-.17.73-.02,1.54-.06,2.24.04.57.08.81-.79.24-.87-1.88-.27-3.88-.04-5.77.1s-3.88.22-5.74.66c-.56.13-.32,1,.24.87h0Z"/>
      <path class="cls-6" d="m294.39,220.81c-8.1-.26-16.21-.43-24.31-.43-8.1,0-16.31,0-24.35,1.06-6.54.87-12.98,2.31-19.27,4.29-.55.17-.32,1.04.24.87,9.42-2.96,19.09-4.61,28.94-5.04,8.73-.38,17.48-.31,26.21-.16,4.18.08,8.36.19,12.54.32.58.02.58-.88,0-.9h0Z"/>
      <path class="cls-6" d="m287.64,224.94c-11.1-.74-22.27-1.07-33.37-.23-3.17.24-6.5.43-9.61,1.1-3.82.83-7.73,1.06-11.53,1.97-6.67,1.59-13.26,3.51-19.84,5.42-.56.16-.32,1.03.24.87,6.09-1.76,12.18-3.51,18.33-5.05,3.85-.96,7.73-1.41,11.64-2.07,7.37-1.25,14.9-1.83,22.38-1.82,7.26,0,14.52.23,21.76.71.58.04.58-.86,0-.9h0Z"/>
      <path class="cls-6" d="m236.29,235.39c-10.98,2.68-22.07,5.73-32.57,9.93-.53.21-.3,1.08.24.87,10.51-4.2,21.59-7.25,32.57-9.93.56-.14.32-1.01-.24-.87h0Z"/>
      <path class="cls-6" d="m271.17,232.65c-8.09-.2-16.08-.49-24.07,1.07-.57.11-.33.98.24.87,7.91-1.54,15.82-1.23,23.83-1.03.58.01.58-.89,0-.9h0Z"/>
      <path class="cls-6" d="m228.32,241.16c-10.25,2.87-20.79,6.11-29.99,11.57-.5.3-.05,1.07.45.78,9.13-5.43,19.6-8.64,29.77-11.48.56-.16.32-1.02-.24-.87h0Z"/>
      <path class="cls-6" d="m197.38,258.59c8.41-4.32,17.26-7.68,26.3-10.44.55-.17.32-1.04-.24-.87-9.11,2.78-18.04,6.17-26.51,10.53-.52.26-.06,1.04.45.78h0Z"/>
      <path class="cls-6" d="m212.03,256.38c-6.34,1.53-12.36,4.24-18.5,6.4-.54.19-.31,1.06.24.87,6.14-2.16,12.16-4.87,18.5-6.4.56-.14.32-1-.24-.87h0Z"/>
      <path class="cls-6" d="m203.71,264.58c-5.58.8-11.06,2.3-16.43,4-.55.17-.32,1.04.24.87,5.37-1.7,10.84-3.21,16.43-4,.57-.08.33-.95-.24-.87h0Z"/>
      <path class="cls-6" d="m198.56,270.02c-5.28.59-10.59,1.45-15.72,2.86-.56.15-.32,1.02.24.87,5.06-1.39,10.28-2.24,15.48-2.83.57-.06.58-.96,0-.9h0Z"/>
      <path class="cls-6" d="m196.9,275.43c-4.89.33-9.77,1.32-14.59,2.2-4.91.89-9.82,1.82-14.69,2.93-.56.13-.33,1,.24.87,4.76-1.09,9.57-1.99,14.37-2.87s9.75-1.89,14.67-2.23c.57-.04.58-.94,0-.9h0Z"/>
      <path class="cls-6" d="m129.57,286.48c6.16-.18,12.26-1.08,18.42-1.4,7.81-.4,15.58-.4,23.37-1.28,5.59-.63,11.16-1.45,16.7-2.38.57-.1.33-.96-.24-.87-9.91,1.66-19.98,3.19-30.04,3.31-5.61.07-11.38.06-16.95.86-3.71.53-7.52.75-11.26.86-.58.02-.58.92,0,.9h0Z"/>
      <path class="cls-6" d="m282.08,227.93c-6.41-.42-12.86-.14-19.28-.03-4.38.07-8.72.22-13.06.92-7.21,1.18-14.46,2.55-21.58,4.21-7,1.64-13.89,3.79-20.58,6.42-.53.21-.3,1.08.24.87,6.17-2.43,12.5-4.44,18.94-6.03,3.65-.9,7.34-1.57,11.03-2.3,7.5-1.49,14.91-3.05,22.6-3.16,7.21-.11,14.48-.48,21.69,0,.58.04.58-.86,0-.9h0Z"/>
      <path class="cls-6" d="m140.25,290.87c6.46-1.38,13.2-1.44,19.76-2.09,6.41-.63,12.85-1.39,19.3-1.41.58,0,.58-.9,0-.9-6.58.03-13.15.81-19.7,1.45-6.51.64-13.19.71-19.6,2.08-.57.12-.33.99.24.87h0Z"/>
      <path class="cls-6" d="m148,294.45c7.43-.56,14.86-1.13,22.3-1.57.58-.03.58-.93,0-.9-7.44.45-14.87,1.01-22.3,1.57-.57.04-.58.94,0,.9h0Z"/>
    </g>
    <g>
      <path class="cls-6" d="m714.28,455.05c3.61.95,7.26,1.83,11,2.14,3.97.33,7.97.11,11.94-.01.58-.02.58-.92,0-.9-3.88.12-7.8.33-11.68.03-3.74-.28-7.4-1.18-11.01-2.13-.56-.15-.8.72-.24.87h0Z"/>
      <path class="cls-6" d="m714.08,454.93c2.68,2.22,5.71,4,8.66,5.83,2.1,1.3,4.12,2.73,6.28,3.93,3.98,2.23,8.04,4.3,12.07,6.43.51.27.97-.51.45-.78-3.97-2.1-7.96-4.14-11.88-6.33-2-1.11-3.87-2.43-5.81-3.63-3.09-1.92-6.31-3.76-9.12-6.09-.44-.37-1.08.27-.64.64h0Z"/>
      <path class="cls-6" d="m728.69,460.07c2.85,2.03,6.1,3.33,9.35,4.57.54.21.78-.66.24-.87-3.18-1.21-6.35-2.49-9.14-4.48-.47-.34-.92.44-.45.78h0Z"/>
      <path class="cls-6" d="m728.8,460.11c2.13.34,4.29.64,6.45.39.24-.03.45-.19.45-.45,0-.22-.21-.48-.45-.45-2.08.24-4.16-.03-6.21-.36-.24-.04-.48.06-.55.31-.06.21.07.52.31.55h0Z"/>
      <path class="cls-6" d="m664.7,474.48c-2.87-1.66-5.54-3.66-8.14-5.72s-5.17-4.18-7.54-6.5c-5.51-5.41-10.67-11.17-15.53-17.16-.37-.45-1,.19-.64.64,4.95,6.1,10.21,12,15.86,17.48,2.42,2.35,5.05,4.49,7.71,6.57,2.5,1.97,5.07,3.88,7.83,5.47.5.29.96-.49.45-.78h0Z"/>
      <path class="cls-6" d="m658.58,463.88c-2.5-2-4.82-4.23-7.06-6.51s-4.43-4.64-6.42-7.15c-.36-.45-.99.19-.64.64,1.99,2.51,4.18,4.87,6.42,7.15s4.56,4.51,7.06,6.51c.45.36,1.09-.27.64-.64h0Z"/>
      <path class="cls-6" d="m648.43,443.8c2.77,3.67,5.41,7.45,8.35,10.99,2.76,3.33,5.94,6.26,9.13,9.17,2.29,2.1,4.57,4.28,7.13,6.06,2.27,1.58,4.62,3.06,6.95,4.56,2.22,1.43,4.51,2.79,6.62,4.37.46.35.91-.43.45-.78-3.96-2.97-8.35-5.42-12.46-8.18-2.43-1.63-4.59-3.54-6.76-5.5-3.08-2.78-6.23-5.57-8.99-8.67-3.5-3.93-6.48-8.28-9.64-12.48-.34-.46-1.13,0-.78.45h0Z"/>
      <path class="cls-6" d="m667.51,457.21c4.74,5.08,9.72,10.04,15.12,14.42,3.96,3.22,8.39,5.91,12.83,8.41,2.42,1.36,4.9,2.72,7.52,3.64.55.19.78-.68.24-.87-3.03-1.06-5.88-2.71-8.65-4.31-2.92-1.7-5.8-3.49-8.56-5.43-6.59-4.63-12.39-10.63-17.86-16.5-.4-.42-1.03.21-.64.64h0Z"/>
      <path class="cls-6" d="m680.73,433.19c-2.64-2.13-5.29-4.27-7.67-6.7-2.53-2.57-4.52-5.51-6.46-8.54-.31-.49-1.09-.04-.78.45,1.93,3.01,3.91,5.95,6.41,8.53,2.43,2.51,5.15,4.7,7.86,6.89.45.36,1.09-.27.64-.64h0Z"/>
      <path class="cls-6" d="m691,438.13c-2.93-2.31-5.66-4.88-8.33-7.47s-5.31-5.26-7.78-8.06c-.39-.43-1.02.2-.64.64,2.48,2.79,5.11,5.46,7.78,8.06,2.67,2.6,5.4,5.17,8.33,7.47.45.35,1.09-.28.64-.64h0Z"/>
      <path class="cls-6" d="m684.33,429.04c5.67,5.23,11.4,10.92,18.65,13.92.53.22.77-.65.24-.87-7.09-2.93-12.7-8.57-18.25-13.69-.43-.39-1.06.24-.64.64h0Z"/>
    </g>
    <g>
      <path class="cls-6" d="m543.43,307.95c3.33,2.39,4.9,6.66,6.38,10.32,1.66,4.08,3.04,8.27,4.13,12.54,2.31,9.01,3.18,18.31,3.53,27.59.34,8.99.2,17.99.19,26.98,0,6.21-.09,12.55,1.11,18.67,1.09,5.56,3.65,10.41,7.66,14.42.41.41,1.05-.23.64-.64-3.7-3.69-6.14-8.12-7.27-13.23-1.36-6.2-1.25-12.71-1.25-19.02,0-18.02.8-36.47-3.53-54.12-1.2-4.88-2.77-9.66-4.71-14.29-1.53-3.65-3.12-7.61-6.45-10-.47-.34-.92.44-.45.78h0Z"/>
      <path class="cls-6" d="m566.33,339.12c1.29,8.67,1.96,17.28,1.76,26.05-.01.58.89.58.9,0,.2-8.85-.49-17.54-1.79-26.29-.09-.57-.95-.33-.87.24h0Z"/>
      <path class="cls-6" d="m559.28,328.26c2.19,6.93,2.82,14.49,3.42,21.69.76,9.11,1.09,18.32.53,27.45-.36,5.82-.23,11.61.8,17.36.1.57.97.33.87-.24-1.76-9.79-.37-19.64-.54-29.5-.15-8.87-.77-17.78-2.06-26.56-.51-3.5-1.09-7.05-2.16-10.44-.17-.55-1.04-.32-.87.24h0Z"/>
    </g>
  </g>
  <g>
    <path class="cls-2" d="m76.9,72.81s0,51.31,6.69,56.44c6.69,5.13,20.08,0,26.78-10.26,6.69-10.26-33.47-46.18-33.47-46.18Z"/>
    <path class="cls-2" d="m228.63,79.15s.43,41.41-5.48,49.5c-5.9,8.09-29.58-4.34-28.51-14.03,1.07-9.69,33.98-35.47,33.98-35.47Z"/>
    <g>
      <path class="cls-6" d="m168.13,198.84c-.02-.07-2.14-7.24,4.92-21.37,7.76-15.51,22.18-17.52,23.8-17.69l.57-.06c1.94-.22,3.95-.44,6.01-.44,2.72,0,5.02.4,7.03,1.24,1.2.5,5.22,2.41,6.66,6.28,1.15,3.09.49,7.33-2.58,8.81-2.28,1.09-4.54,1.2-7.15,1.33-2.07.1-4.42.22-7.27.83-7.34,1.59-8.86,2.24-16.23,6.96-10.68,6.84-15.53,14.06-15.58,14.14l-.12.17-.06-.2Z"/>
      <path class="cls-5" d="m203.43,159.38c2.35,0,4.73.29,6.99,1.23,1.5.62,5.23,2.53,6.6,6.23,1.11,2.98.5,7.22-2.53,8.68-4.04,1.94-7.93.75-14.4,2.16-7.31,1.58-8.84,2.22-16.26,6.97-10.82,6.93-15.61,14.16-15.61,14.16,0,0-2.21-7.04,4.92-21.29,7.13-14.26,20.17-17.25,23.72-17.64,2.07-.23,4.3-.5,6.57-.5m0-.2c-2.07,0-4.08.22-6.03.44l-.57.06c-1.62.18-16.1,2.19-23.87,17.75-7.08,14.17-5.02,21.15-4.93,21.44l.13.4.23-.35c.05-.07,4.89-7.28,15.55-14.11,7.35-4.71,8.87-5.36,16.19-6.95,2.84-.61,5.18-.73,7.26-.83,2.62-.13,4.89-.24,7.19-1.34,3.12-1.5,3.8-5.8,2.64-8.93-1.45-3.91-5.51-5.84-6.72-6.34-2.02-.84-4.34-1.25-7.07-1.25h0Z"/>
    </g>
    <g>
      <path class="cls-6" d="m133.45,198.87c-.05-.07-4.9-7.3-15.58-14.14-7.37-4.72-8.88-5.37-16.23-6.96-2.85-.62-5.2-.73-7.27-.83-2.61-.13-4.87-.24-7.15-1.33-3.07-1.47-3.73-5.72-2.59-8.81,1.44-3.87,5.46-5.79,6.66-6.28,2.01-.83,4.31-1.24,7.03-1.24,2.07,0,4.07.22,6.01.44l.57.06c1.62.18,16.04,2.18,23.8,17.69,7.07,14.13,4.94,21.3,4.92,21.37l-.06.2-.12-.17Z"/>
      <path class="cls-5" d="m98.33,159.38c2.27,0,4.5.27,6.57.5,3.54.39,16.59,3.38,23.72,17.64,7.13,14.26,4.92,21.29,4.92,21.29,0,0-4.79-7.23-15.61-14.16-7.42-4.75-8.95-5.39-16.26-6.97-6.47-1.4-10.35-.22-14.4-2.16-3.04-1.46-3.64-5.7-2.53-8.68,1.38-3.69,5.11-5.61,6.6-6.23,2.27-.94,4.65-1.23,6.99-1.23m0-.2h0c-2.73,0-5.04.41-7.07,1.25-1.21.5-5.26,2.43-6.72,6.34-1.16,3.13-.49,7.43,2.64,8.93,2.3,1.1,4.56,1.21,7.19,1.34,2.07.1,4.42.22,7.26.83,7.33,1.59,8.84,2.24,16.19,6.95,10.66,6.83,15.5,14.03,15.55,14.11l.23.35.13-.4c.09-.29,2.16-7.28-4.93-21.44-7.78-15.56-22.25-17.57-23.87-17.75l-.57-.06c-1.94-.22-3.95-.44-6.02-.44h0Z"/>
    </g>
    <path class="cls-4" d="m177.43,247.35c0,9.54-11.06,16.27-24.71,16.27s-24.71-6.74-24.71-16.27c0-4.74,2.44-9.49,7.15-12.15,5.36-3.03,11.29-3.39,18.16-3.39s14.21,1.73,17.29,3.64c3.41,2.11,6.81,7.29,6.81,11.9Z"/>
  </g>
  <path class="cls-6" d="m377.76,366.76c-.03.98.19,1.99.37,2.95.27,1.39.62,2.77,1.02,4.13.16.55,1.03.32.87-.24-.39-1.32-.72-2.66-.99-4.02-.18-.92-.39-1.88-.36-2.81.02-.58-.88-.58-.9,0h0Z"/>
  <path class="cls-6" d="m413.09,359.95c.99,5.71,2.88,11.04,5.2,16.33.23.53,1.01.07.78-.45-2.29-5.22-4.13-10.49-5.11-16.11-.1-.57-.97-.33-.87.24h0Z"/>
</svg>